{"asset": {"version": "2.0", "generator": "l2vzla char_pipeline (weapons, static psk)"}, "scene": 0, "scenes": [{"nodes": [0]}], "nodes": [{"name": "aka_m00_wp", "mesh": 0}], "meshes": [{"name": "aka_m00_wp", "primitives": [{"attributes": {"POSITION": 0, "NORMAL": 1, "TEXCOORD_0": 2}, "mode": 4, "indices": 3, "material": 0}]}], "materials": [{"name": "aka_m00_wp:material_0", "pbrMetallicRoughness": {"metallicFactor": 0.0, "roughnessFactor": 0.9, "baseColorTexture": {"index": 0}}, "doubleSided": true, "alphaMode": "MASK", "alphaCutoff": 0.5}], "accessors": [{"bufferView": 0, "componentType": 5126, "count": 420, "type": "VEC3", "min": [-0.09336344718933105, -0.016493020057678224, -0.07219021320343018], "max": [0.36743572235107425, 0.01602381944656372, 0.07178593635559082]}, {"bufferView": 1, "componentType": 5126, "count": 420, "type": "VEC3"}, {"bufferView": 2, "componentType": 5126, "count": 420, "type": "VEC2"}, {"bufferView": 3, "componentType": 5125, "count": 2244, "type": "SCALAR"}], "bufferViews": [{"buffer": 0, "byteOffset": 0, "byteLength": 5040}, {"buffer": 0, "byteOffset": 5040, "byteLength": 5040}, {"buffer": 0, "byteOffset": 10080, "byteLength": 3360}, {"buffer": 0, "byteOffset": 13440, "byteLength": 8976}], "images": [{"uri": "aka_m00_wp.png"}], "samplers": [{"magFilter": 9729, "minFilter": 9987, "wrapS": 10497, "wrapT": 10497}], "textures": [{"source": 0, "sampler": 0}], "buffers": [{"uri": "aka_m00_wp.bin", "byteLength": 22416}]}