{"asset": {"version": "2.0", "generator": "l2vzla char_pipeline (weapons, static psk)"}, "scene": 0, "scenes": [{"nodes": [0]}], "nodes": [{"name": "apprentices_rod_m00_wp", "mesh": 0}], "meshes": [{"name": "apprentices_rod_m00_wp", "primitives": [{"attributes": {"POSITION": 0, "NORMAL": 1, "TEXCOORD_0": 2}, "mode": 4, "indices": 3, "material": 0}]}], "materials": [{"name": "apprentices_rod_m00_wp:material_0", "pbrMetallicRoughness": {"metallicFactor": 0.0, "roughnessFactor": 0.9, "baseColorTexture": {"index": 0}}, "doubleSided": true, "alphaMode": "MASK", "alphaCutoff": 0.5}], "accessors": [{"bufferView": 0, "componentType": 5126, "count": 60, "type": "VEC3", "min": [-0.08409304618835449, -0.007877976894378661, -0.02318281650543213], "max": [0.170419864654541, 0.007448672652244568, 0.022352123260498048]}, {"bufferView": 1, "componentType": 5126, "count": 60, "type": "VEC3"}, {"bufferView": 2, "componentType": 5126, "count": 60, "type": "VEC2"}, {"bufferView": 3, "componentType": 5125, "count": 174, "type": "SCALAR"}], "bufferViews": [{"buffer": 0, "byteOffset": 0, "byteLength": 720}, {"buffer": 0, "byteOffset": 720, "byteLength": 720}, {"buffer": 0, "byteOffset": 1440, "byteLength": 480}, {"buffer": 0, "byteOffset": 1920, "byteLength": 696}], "images": [{"uri": "apprentices_rod_m00_wp.png"}], "samplers": [{"magFilter": 9729, "minFilter": 9987, "wrapS": 10497, "wrapT": 10497}], "textures": [{"source": 0, "sampler": 0}], "buffers": [{"uri": "apprentices_rod_m00_wp.bin", "byteLength": 2616}]}