{"asset": {"version": "2.0", "generator": "l2vzla char_pipeline (weapons, static psk)"}, "scene": 0, "scenes": [{"nodes": [0]}], "nodes": [{"name": "apprentices_wand_m00_wp", "mesh": 0}], "meshes": [{"name": "apprentices_wand_m00_wp", "primitives": [{"attributes": {"POSITION": 0, "NORMAL": 1, "TEXCOORD_0": 2}, "mode": 4, "indices": 3, "material": 0}]}], "materials": [{"name": "apprentices_wand_m00_wp:material_0", "pbrMetallicRoughness": {"metallicFactor": 0.0, "roughnessFactor": 0.9, "baseColorTexture": {"index": 0}}, "doubleSided": true}], "accessors": [{"bufferView": 0, "componentType": 5126, "count": 94, "type": "VEC3", "min": [-0.08790444374084473, -0.013492887020111085, -0.015343612432479859], "max": [0.15366860389709472, 0.015188566446304322, 0.015430574417114259]}, {"bufferView": 1, "componentType": 5126, "count": 94, "type": "VEC3"}, {"bufferView": 2, "componentType": 5126, "count": 94, "type": "VEC2"}, {"bufferView": 3, "componentType": 5125, "count": 420, "type": "SCALAR"}], "bufferViews": [{"buffer": 0, "byteOffset": 0, "byteLength": 1128}, {"buffer": 0, "byteOffset": 1128, "byteLength": 1128}, {"buffer": 0, "byteOffset": 2256, "byteLength": 752}, {"buffer": 0, "byteOffset": 3008, "byteLength": 1680}], "images": [{"uri": "apprentices_wand_m00_wp.png"}], "samplers": [{"magFilter": 9729, "minFilter": 9987, "wrapS": 10497, "wrapT": 10497}], "textures": [{"source": 0, "sampler": 0}], "buffers": [{"uri": "apprentices_wand_m00_wp.bin", "byteLength": 4688}]}