{"asset": {"version": "2.0", "generator": "l2vzla char_pipeline (weapons, static psk)"}, "scene": 0, "scenes": [{"nodes": [0]}], "nodes": [{"name": "apprentices_staff_m00_wp", "mesh": 0}], "meshes": [{"name": "apprentices_staff_m00_wp", "primitives": [{"attributes": {"POSITION": 0, "NORMAL": 1, "TEXCOORD_0": 2}, "mode": 4, "indices": 3, "material": 0}]}], "materials": [{"name": "apprentices_staff_m00_wp:material_0", "pbrMetallicRoughness": {"metallicFactor": 0.0, "roughnessFactor": 0.9, "baseColorTexture": {"index": 0}}, "doubleSided": true}], "accessors": [{"bufferView": 0, "componentType": 5126, "count": 118, "type": "VEC3", "min": [-0.12125314712524414, -0.02587913513183594, -0.043310317993164066], "max": [0.31412731170654296, 0.01622440814971924, 0.03930522203445435]}, {"bufferView": 1, "componentType": 5126, "count": 118, "type": "VEC3"}, {"bufferView": 2, "componentType": 5126, "count": 118, "type": "VEC2"}, {"bufferView": 3, "componentType": 5125, "count": 414, "type": "SCALAR"}], "bufferViews": [{"buffer": 0, "byteOffset": 0, "byteLength": 1416}, {"buffer": 0, "byteOffset": 1416, "byteLength": 1416}, {"buffer": 0, "byteOffset": 2832, "byteLength": 944}, {"buffer": 0, "byteOffset": 3776, "byteLength": 1656}], "images": [{"uri": "apprentices_staff_m00_wp.png"}], "samplers": [{"magFilter": 9729, "minFilter": 9987, "wrapS": 10497, "wrapT": 10497}], "textures": [{"source": 0, "sampler": 0}], "buffers": [{"uri": "apprentices_staff_m00_wp.bin", "byteLength": 5432}]}