{"asset": {"version": "2.0", "generator": "l2vzla char_pipeline (weapons, static psk)"}, "scene": 0, "scenes": [{"nodes": [0]}], "nodes": [{"name": "apprentices_spellbook_m00_wp", "mesh": 0}], "meshes": [{"name": "apprentices_spellbook_m00_wp", "primitives": [{"attributes": {"POSITION": 0, "NORMAL": 1, "TEXCOORD_0": 2}, "mode": 4, "indices": 3, "material": 0}]}], "materials": [{"name": "apprentices_spellbook_m00_wp:material_0", "pbrMetallicRoughness": {"metallicFactor": 0.0, "roughnessFactor": 0.9, "baseColorTexture": {"index": 0}}, "doubleSided": true}], "accessors": [{"bufferView": 0, "componentType": 5126, "count": 56, "type": "VEC3", "min": [-0.05025683403015137, -0.006436575651168824, -0.008023752570152283], "max": [0.02805114030838013, 0.004462446868419647, 0.04797401905059814]}, {"bufferView": 1, "componentType": 5126, "count": 56, "type": "VEC3"}, {"bufferView": 2, "componentType": 5126, "count": 56, "type": "VEC2"}, {"bufferView": 3, "componentType": 5125, "count": 114, "type": "SCALAR"}], "bufferViews": [{"buffer": 0, "byteOffset": 0, "byteLength": 672}, {"buffer": 0, "byteOffset": 672, "byteLength": 672}, {"buffer": 0, "byteOffset": 1344, "byteLength": 448}, {"buffer": 0, "byteOffset": 1792, "byteLength": 456}], "images": [{"uri": "apprentices_spellbook_m00_wp.png"}], "samplers": [{"magFilter": 9729, "minFilter": 9987, "wrapS": 10497, "wrapT": 10497}], "textures": [{"source": 0, "sampler": 0}], "buffers": [{"uri": "apprentices_spellbook_m00_wp.bin", "byteLength": 2248}]}