{"asset": {"version": "2.0", "generator": "l2vzla char_pipeline (weapons, static psk)"}, "scene": 0, "scenes": [{"nodes": [0]}], "nodes": [{"name": "aspis_m00_sh", "mesh": 0}], "meshes": [{"name": "aspis_m00_sh", "primitives": [{"attributes": {"POSITION": 0, "NORMAL": 1, "TEXCOORD_0": 2}, "mode": 4, "indices": 3, "material": 0}, {"attributes": {"POSITION": 4, "NORMAL": 5, "TEXCOORD_0": 6}, "mode": 4, "indices": 7, "material": 1}]}], "materials": [{"name": "aspis_m00_sh:material_0", "pbrMetallicRoughness": {"metallicFactor": 0.0, "roughnessFactor": 0.9, "baseColorTexture": {"index": 0}}, "doubleSided": true}, {"name": "aspis_m00_sh:material_1", "pbrMetallicRoughness": {"metallicFactor": 0.0, "roughnessFactor": 0.9, "baseColorTexture": {"index": 1}}, "doubleSided": true}], "accessors": [{"bufferView": 0, "componentType": 5126, "count": 17, "type": "VEC3", "min": [-0.059971065521240235, -0.06404959678649902, -0.008221919536590577], "max": [0.1063953971862793, 0.06343440055847169, 0.017257785797119143]}, {"bufferView": 1, "componentType": 5126, "count": 17, "type": "VEC3"}, {"bufferView": 2, "componentType": 5126, "count": 17, "type": "VEC2"}, {"bufferView": 3, "componentType": 5125, "count": 54, "type": "SCALAR"}, {"bufferView": 4, "componentType": 5126, "count": 33, "type": "VEC3", "min": [-0.059971065521240235, -0.06404959678649902, -0.001865960955619812], "max": [0.1063953971862793, 0.06343440055847169, 0.018282136917114257]}, {"bufferView": 5, "componentType": 5126, "count": 33, "type": "VEC3"}, {"bufferView": 6, "componentType": 5126, "count": 33, "type": "VEC2"}, {"bufferView": 7, "componentType": 5125, "count": 84, "type": "SCALAR"}], "bufferViews": [{"buffer": 0, "byteOffset": 0, "byteLength": 204}, {"buffer": 0, "byteOffset": 204, "byteLength": 204}, {"buffer": 0, "byteOffset": 408, "byteLength": 136}, {"buffer": 0, "byteOffset": 544, "byteLength": 216}, {"buffer": 0, "byteOffset": 760, "byteLength": 396}, {"buffer": 0, "byteOffset": 1156, "byteLength": 396}, {"buffer": 0, "byteOffset": 1552, "byteLength": 264}, {"buffer": 0, "byteOffset": 1816, "byteLength": 336}], "images": [{"uri": "aspis_m00_sh_s0.png"}, {"uri": "aspis_m00_sh_s1.png"}], "samplers": [{"magFilter": 9729, "minFilter": 9987, "wrapS": 10497, "wrapT": 10497}, {"magFilter": 9729, "minFilter": 9987, "wrapS": 10497, "wrapT": 10497}], "textures": [{"source": 0, "sampler": 0}, {"source": 1, "sampler": 1}], "buffers": [{"uri": "aspis_m00_sh.bin", "byteLength": 2152}]}