{"asset": {"version": "2.0", "generator": "l2vzla char_pipeline (weapons, static psk)"}, "scene": 0, "scenes": [{"nodes": [0]}], "nodes": [{"name": "assassin_knife_m00_wp", "mesh": 0}], "meshes": [{"name": "assassin_knife_m00_wp", "primitives": [{"attributes": {"POSITION": 0, "NORMAL": 1, "TEXCOORD_0": 2}, "mode": 4, "indices": 3, "material": 0}]}], "materials": [{"name": "assassin_knife_m00_wp:material_0", "pbrMetallicRoughness": {"metallicFactor": 0.0, "roughnessFactor": 0.9, "baseColorTexture": {"index": 0}}, "doubleSided": true, "alphaMode": "MASK", "alphaCutoff": 0.5}], "accessors": [{"bufferView": 0, "componentType": 5126, "count": 93, "type": "VEC3", "min": [-0.0521961784362793, -0.02813063859939575, -0.028186330795288088], "max": [0.17471904754638673, 0.02797935962677002, 0.027923667430877687]}, {"bufferView": 1, "componentType": 5126, "count": 93, "type": "VEC3"}, {"bufferView": 2, "componentType": 5126, "count": 93, "type": "VEC2"}, {"bufferView": 3, "componentType": 5125, "count": 348, "type": "SCALAR"}], "bufferViews": [{"buffer": 0, "byteOffset": 0, "byteLength": 1116}, {"buffer": 0, "byteOffset": 1116, "byteLength": 1116}, {"buffer": 0, "byteOffset": 2232, "byteLength": 744}, {"buffer": 0, "byteOffset": 2976, "byteLength": 1392}], "images": [{"uri": "assassin_knife_m00_wp.png"}], "samplers": [{"magFilter": 9729, "minFilter": 9987, "wrapS": 10497, "wrapT": 10497}], "textures": [{"source": 0, "sampler": 0}], "buffers": [{"uri": "assassin_knife_m00_wp.bin", "byteLength": 4368}]}