{"asset": {"version": "2.0", "generator": "l2vzla char_pipeline (weapons, static psk)"}, "scene": 0, "scenes": [{"nodes": [0]}], "nodes": [{"name": "atuba_hammer_m00_wp", "mesh": 0}], "meshes": [{"name": "atuba_hammer_m00_wp", "primitives": [{"attributes": {"POSITION": 0, "NORMAL": 1, "TEXCOORD_0": 2}, "mode": 4, "indices": 3, "material": 0}]}], "materials": [{"name": "atuba_hammer_m00_wp:material_0", "pbrMetallicRoughness": {"metallicFactor": 0.0, "roughnessFactor": 0.9, "baseColorTexture": {"index": 0}}, "doubleSided": true}], "accessors": [{"bufferView": 0, "componentType": 5126, "count": 116, "type": "VEC3", "min": [-0.09864800453186036, -0.03173394918441773, -0.06867704391479493], "max": [0.3290369415283203, 0.03164489030838013, 0.06879075050354004]}, {"bufferView": 1, "componentType": 5126, "count": 116, "type": "VEC3"}, {"bufferView": 2, "componentType": 5126, "count": 116, "type": "VEC2"}, {"bufferView": 3, "componentType": 5125, "count": 516, "type": "SCALAR"}], "bufferViews": [{"buffer": 0, "byteOffset": 0, "byteLength": 1392}, {"buffer": 0, "byteOffset": 1392, "byteLength": 1392}, {"buffer": 0, "byteOffset": 2784, "byteLength": 928}, {"buffer": 0, "byteOffset": 3712, "byteLength": 2064}], "images": [{"uri": "atuba_hammer_m00_wp.png"}], "samplers": [{"magFilter": 9729, "minFilter": 9987, "wrapS": 10497, "wrapT": 10497}], "textures": [{"source": 0, "sampler": 0}], "buffers": [{"uri": "atuba_hammer_m00_wp.bin", "byteLength": 5776}]}