{"asset": {"version": "2.0", "generator": "l2vzla char_pipeline (weapons, static psk)"}, "scene": 0, "scenes": [{"nodes": [0]}], "nodes": [{"name": "baghnakh_m00_wp", "mesh": 0}], "meshes": [{"name": "baghnakh_m00_wp", "primitives": [{"attributes": {"POSITION": 0, "NORMAL": 1, "TEXCOORD_0": 2}, "mode": 4, "indices": 3, "material": 0}]}], "materials": [{"name": "baghnakh_m00_wp:material_0", "pbrMetallicRoughness": {"metallicFactor": 0.0, "roughnessFactor": 0.9, "baseColorTexture": {"index": 0}}, "doubleSided": true, "alphaMode": "MASK", "alphaCutoff": 0.5}], "accessors": [{"bufferView": 0, "componentType": 5126, "count": 168, "type": "VEC3", "min": [-0.02875948667526245, -0.03483970165252686, -0.021415262222290038], "max": [0.02928463935852051, 0.03802146434783936, 0.09924341201782227]}, {"bufferView": 1, "componentType": 5126, "count": 168, "type": "VEC3"}, {"bufferView": 2, "componentType": 5126, "count": 168, "type": "VEC2"}, {"bufferView": 3, "componentType": 5125, "count": 612, "type": "SCALAR"}], "bufferViews": [{"buffer": 0, "byteOffset": 0, "byteLength": 2016}, {"buffer": 0, "byteOffset": 2016, "byteLength": 2016}, {"buffer": 0, "byteOffset": 4032, "byteLength": 1344}, {"buffer": 0, "byteOffset": 5376, "byteLength": 2448}], "images": [{"uri": "baghnakh_m00_wp.png"}], "samplers": [{"magFilter": 9729, "minFilter": 9987, "wrapS": 10497, "wrapT": 10497}], "textures": [{"source": 0, "sampler": 0}], "buffers": [{"uri": "baghnakh_m00_wp.bin", "byteLength": 7824}]}