{"asset": {"version": "2.0", "generator": "l2vzla char_pipeline (weapons, static psk)"}, "scene": 0, "scenes": [{"nodes": [0]}], "nodes": [{"name": "bech_de_corbin_m00_wp", "mesh": 0}], "meshes": [{"name": "bech_de_corbin_m00_wp", "primitives": [{"attributes": {"POSITION": 0, "NORMAL": 1, "TEXCOORD_0": 2}, "mode": 4, "indices": 3, "material": 0}]}], "materials": [{"name": "bech_de_corbin_m00_wp:material_0", "pbrMetallicRoughness": {"metallicFactor": 0.0, "roughnessFactor": 0.9, "baseColorTexture": {"index": 0}}, "doubleSided": true, "alphaMode": "MASK", "alphaCutoff": 0.5}], "accessors": [{"bufferView": 0, "componentType": 5126, "count": 134, "type": "VEC3", "min": [-0.17334651947021484, -0.007861641645431518, -0.07619470596313477], "max": [0.38984302520751957, 0.007300722599029541, 0.048968348503112796]}, {"bufferView": 1, "componentType": 5126, "count": 134, "type": "VEC3"}, {"bufferView": 2, "componentType": 5126, "count": 134, "type": "VEC2"}, {"bufferView": 3, "componentType": 5125, "count": 399, "type": "SCALAR"}], "bufferViews": [{"buffer": 0, "byteOffset": 0, "byteLength": 1608}, {"buffer": 0, "byteOffset": 1608, "byteLength": 1608}, {"buffer": 0, "byteOffset": 3216, "byteLength": 1072}, {"buffer": 0, "byteOffset": 4288, "byteLength": 1596}], "images": [{"uri": "bech_de_corbin_m00_wp.png"}], "samplers": [{"magFilter": 9729, "minFilter": 9987, "wrapS": 10497, "wrapT": 10497}], "textures": [{"source": 0, "sampler": 0}], "buffers": [{"uri": "bech_de_corbin_m00_wp.bin", "byteLength": 5884}]}