{"asset": {"version": "2.0", "generator": "l2vzla char_pipeline (weapons, static psk)"}, "scene": 0, "scenes": [{"nodes": [0]}], "nodes": [{"name": "big_hammer_m00_wp", "mesh": 0}], "meshes": [{"name": "big_hammer_m00_wp", "primitives": [{"attributes": {"POSITION": 0, "NORMAL": 1, "TEXCOORD_0": 2}, "mode": 4, "indices": 3, "material": 0}]}], "materials": [{"name": "big_hammer_m00_wp:material_0", "pbrMetallicRoughness": {"metallicFactor": 0.0, "roughnessFactor": 0.9, "baseColorTexture": {"index": 0}}, "doubleSided": true}], "accessors": [{"bufferView": 0, "componentType": 5126, "count": 134, "type": "VEC3", "min": [-0.06721899509429932, -0.02655108451843262, -0.04789939880371094], "max": [0.13975866317749025, 0.026393587589263915, 0.047128577232360844]}, {"bufferView": 1, "componentType": 5126, "count": 134, "type": "VEC3"}, {"bufferView": 2, "componentType": 5126, "count": 134, "type": "VEC2"}, {"bufferView": 3, "componentType": 5125, "count": 468, "type": "SCALAR"}], "bufferViews": [{"buffer": 0, "byteOffset": 0, "byteLength": 1608}, {"buffer": 0, "byteOffset": 1608, "byteLength": 1608}, {"buffer": 0, "byteOffset": 3216, "byteLength": 1072}, {"buffer": 0, "byteOffset": 4288, "byteLength": 1872}], "images": [{"uri": "big_hammer_m00_wp.png"}], "samplers": [{"magFilter": 9729, "minFilter": 9987, "wrapS": 10497, "wrapT": 10497}], "textures": [{"source": 0, "sampler": 0}], "buffers": [{"uri": "big_hammer_m00_wp.bin", "byteLength": 6160}]}