{"asset": {"version": "2.0", "generator": "l2vzla char_pipeline (weapons, static psk)"}, "scene": 0, "scenes": [{"nodes": [0]}], "nodes": [{"name": "bone_dagger_m00_wp", "mesh": 0}], "meshes": [{"name": "bone_dagger_m00_wp", "primitives": [{"attributes": {"POSITION": 0, "NORMAL": 1, "TEXCOORD_0": 2}, "mode": 4, "indices": 3, "material": 0}]}], "materials": [{"name": "bone_dagger_m00_wp:material_0", "pbrMetallicRoughness": {"metallicFactor": 0.0, "roughnessFactor": 0.9, "baseColorTexture": {"index": 0}}, "doubleSided": true}], "accessors": [{"bufferView": 0, "componentType": 5126, "count": 127, "type": "VEC3", "min": [-0.047926011085510256, -0.004122267365455627, -0.025942819118499758], "max": [0.13008735656738282, 0.004570766985416412, 0.02511403799057007]}, {"bufferView": 1, "componentType": 5126, "count": 127, "type": "VEC3"}, {"bufferView": 2, "componentType": 5126, "count": 127, "type": "VEC2"}, {"bufferView": 3, "componentType": 5125, "count": 330, "type": "SCALAR"}], "bufferViews": [{"buffer": 0, "byteOffset": 0, "byteLength": 1524}, {"buffer": 0, "byteOffset": 1524, "byteLength": 1524}, {"buffer": 0, "byteOffset": 3048, "byteLength": 1016}, {"buffer": 0, "byteOffset": 4064, "byteLength": 1320}], "images": [{"uri": "bone_dagger_m00_wp.png"}], "samplers": [{"magFilter": 9729, "minFilter": 9987, "wrapS": 10497, "wrapT": 10497}], "textures": [{"source": 0, "sampler": 0}], "buffers": [{"uri": "bone_dagger_m00_wp.bin", "byteLength": 5384}]}