{"asset": {"version": "2.0", "generator": "l2vzla char_pipeline (weapons, static psk)"}, "scene": 0, "scenes": [{"nodes": [0]}], "nodes": [{"name": "bonebreaker_m00_wp", "mesh": 0}], "meshes": [{"name": "bonebreaker_m00_wp", "primitives": [{"attributes": {"POSITION": 0, "NORMAL": 1, "TEXCOORD_0": 2}, "mode": 4, "indices": 3, "material": 0}]}], "materials": [{"name": "bonebreaker_m00_wp:material_0", "pbrMetallicRoughness": {"metallicFactor": 0.0, "roughnessFactor": 0.9, "baseColorTexture": {"index": 0}}, "doubleSided": true}], "accessors": [{"bufferView": 0, "componentType": 5126, "count": 120, "type": "VEC3", "min": [-0.09032803535461426, -0.013476377725601197, -0.05025506019592285], "max": [0.23137775421142578, 0.013986459970474244, 0.04893980026245117]}, {"bufferView": 1, "componentType": 5126, "count": 120, "type": "VEC3"}, {"bufferView": 2, "componentType": 5126, "count": 120, "type": "VEC2"}, {"bufferView": 3, "componentType": 5125, "count": 414, "type": "SCALAR"}], "bufferViews": [{"buffer": 0, "byteOffset": 0, "byteLength": 1440}, {"buffer": 0, "byteOffset": 1440, "byteLength": 1440}, {"buffer": 0, "byteOffset": 2880, "byteLength": 960}, {"buffer": 0, "byteOffset": 3840, "byteLength": 1656}], "images": [{"uri": "bonebreaker_m00_wp.png"}], "samplers": [{"magFilter": 9729, "minFilter": 9987, "wrapS": 10497, "wrapT": 10497}], "textures": [{"source": 0, "sampler": 0}], "buffers": [{"uri": "bonebreaker_m00_wp.bin", "byteLength": 5496}]}