{"asset": {"version": "2.0", "generator": "l2vzla char_pipeline (weapons, static psk)"}, "scene": 0, "scenes": [{"nodes": [0]}], "nodes": [{"name": "bow_of_forest_m00_wp", "mesh": 0}], "meshes": [{"name": "bow_of_forest_m00_wp", "primitives": [{"attributes": {"POSITION": 0, "NORMAL": 1, "TEXCOORD_0": 2}, "mode": 4, "indices": 3, "material": 0}]}], "materials": [{"name": "bow_of_forest_m00_wp:material_0", "pbrMetallicRoughness": {"metallicFactor": 0.0, "roughnessFactor": 0.9, "baseColorTexture": {"index": 0}}, "doubleSided": true}], "accessors": [{"bufferView": 0, "componentType": 5126, "count": 128, "type": "VEC3", "min": [-0.12070222854614258, -0.006464285850524902, -0.07205552101135254], "max": [0.12110801696777344, 0.005065185427665711, 0.005490985512733459]}, {"bufferView": 1, "componentType": 5126, "count": 128, "type": "VEC3"}, {"bufferView": 2, "componentType": 5126, "count": 128, "type": "VEC2"}, {"bufferView": 3, "componentType": 5125, "count": 456, "type": "SCALAR"}], "bufferViews": [{"buffer": 0, "byteOffset": 0, "byteLength": 1536}, {"buffer": 0, "byteOffset": 1536, "byteLength": 1536}, {"buffer": 0, "byteOffset": 3072, "byteLength": 1024}, {"buffer": 0, "byteOffset": 4096, "byteLength": 1824}], "images": [{"uri": "bow_of_forest_m00_wp.png"}], "samplers": [{"magFilter": 9729, "minFilter": 9987, "wrapS": 10497, "wrapT": 10497}], "textures": [{"source": 0, "sampler": 0}], "buffers": [{"uri": "bow_of_forest_m00_wp.bin", "byteLength": 5920}]}