{"asset": {"version": "2.0", "generator": "l2vzla char_pipeline (weapons, static psk)"}, "scene": 0, "scenes": [{"nodes": [0]}], "nodes": [{"name": "bow_m00_wp", "mesh": 0}], "meshes": [{"name": "bow_m00_wp", "primitives": [{"attributes": {"POSITION": 0, "NORMAL": 1, "TEXCOORD_0": 2}, "mode": 4, "indices": 3, "material": 0}]}], "materials": [{"name": "bow_m00_wp:material_0", "pbrMetallicRoughness": {"metallicFactor": 0.0, "roughnessFactor": 0.9, "baseColorTexture": {"index": 0}}, "doubleSided": true}], "accessors": [{"bufferView": 0, "componentType": 5126, "count": 110, "type": "VEC3", "min": [-0.18225725173950197, -0.008320733308792114, -0.040469479560852055], "max": [0.15439337730407715, 0.008553102016448974, 0.016958894729614257]}, {"bufferView": 1, "componentType": 5126, "count": 110, "type": "VEC3"}, {"bufferView": 2, "componentType": 5126, "count": 110, "type": "VEC2"}, {"bufferView": 3, "componentType": 5125, "count": 516, "type": "SCALAR"}], "bufferViews": [{"buffer": 0, "byteOffset": 0, "byteLength": 1320}, {"buffer": 0, "byteOffset": 1320, "byteLength": 1320}, {"buffer": 0, "byteOffset": 2640, "byteLength": 880}, {"buffer": 0, "byteOffset": 3520, "byteLength": 2064}], "images": [{"uri": "bow_m00_wp.png"}], "samplers": [{"magFilter": 9729, "minFilter": 9987, "wrapS": 10497, "wrapT": 10497}], "textures": [{"source": 0, "sampler": 0}], "buffers": [{"uri": "bow_m00_wp.bin", "byteLength": 5584}]}