{"asset": {"version": "2.0", "generator": "l2vzla char_pipeline (weapons, static psk)"}, "scene": 0, "scenes": [{"nodes": [0]}], "nodes": [{"name": "bronze_shield_m00_sh", "mesh": 0}], "meshes": [{"name": "bronze_shield_m00_sh", "primitives": [{"attributes": {"POSITION": 0, "NORMAL": 1, "TEXCOORD_0": 2}, "mode": 4, "indices": 3, "material": 0}, {"attributes": {"POSITION": 4, "NORMAL": 5, "TEXCOORD_0": 6}, "mode": 4, "indices": 7, "material": 1}]}], "materials": [{"name": "bronze_shield_m00_sh:material_0", "pbrMetallicRoughness": {"metallicFactor": 0.0, "roughnessFactor": 0.9, "baseColorTexture": {"index": 0}}, "doubleSided": true}, {"name": "bronze_shield_m00_sh:material_1", "pbrMetallicRoughness": {"metallicFactor": 0.0, "roughnessFactor": 0.9, "baseColorTexture": {"index": 1}}, "doubleSided": true}], "accessors": [{"bufferView": 0, "componentType": 5126, "count": 37, "type": "VEC3", "min": [-0.045352835655212406, -0.06114460945129395, -0.013670580387115478], "max": [0.08392810821533203, 0.07012574672698975, 0.01192831039428711]}, {"bufferView": 1, "componentType": 5126, "count": 37, "type": "VEC3"}, {"bufferView": 2, "componentType": 5126, "count": 37, "type": "VEC2"}, {"bufferView": 3, "componentType": 5125, "count": 162, "type": "SCALAR"}, {"bufferView": 4, "componentType": 5126, "count": 19, "type": "VEC3", "min": [-0.045352835655212406, -0.06114460945129395, 0.010782738924026489], "max": [0.08392810821533203, 0.07012574672698975, 0.01192831039428711]}, {"bufferView": 5, "componentType": 5126, "count": 19, "type": "VEC3"}, {"bufferView": 6, "componentType": 5126, "count": 19, "type": "VEC2"}, {"bufferView": 7, "componentType": 5125, "count": 54, "type": "SCALAR"}], "bufferViews": [{"buffer": 0, "byteOffset": 0, "byteLength": 444}, {"buffer": 0, "byteOffset": 444, "byteLength": 444}, {"buffer": 0, "byteOffset": 888, "byteLength": 296}, {"buffer": 0, "byteOffset": 1184, "byteLength": 648}, {"buffer": 0, "byteOffset": 1832, "byteLength": 228}, {"buffer": 0, "byteOffset": 2060, "byteLength": 228}, {"buffer": 0, "byteOffset": 2288, "byteLength": 152}, {"buffer": 0, "byteOffset": 2440, "byteLength": 216}], "images": [{"uri": "bronze_shield_m00_sh_s0.png"}, {"uri": "bronze_shield_m00_sh_s1.png"}], "samplers": [{"magFilter": 9729, "minFilter": 9987, "wrapS": 10497, "wrapT": 10497}, {"magFilter": 9729, "minFilter": 9987, "wrapS": 10497, "wrapT": 10497}], "textures": [{"source": 0, "sampler": 0}, {"source": 1, "sampler": 1}], "buffers": [{"uri": "bronze_shield_m00_sh.bin", "byteLength": 2656}]}