{"asset": {"version": "2.0", "generator": "l2vzla char_pipeline (weapons, static psk)"}, "scene": 0, "scenes": [{"nodes": [0]}], "nodes": [{"name": "buffalo_horn_m00_wp", "mesh": 0}], "meshes": [{"name": "buffalo_horn_m00_wp", "primitives": [{"attributes": {"POSITION": 0, "NORMAL": 1, "TEXCOORD_0": 2}, "mode": 4, "indices": 3, "material": 0}]}], "materials": [{"name": "buffalo_horn_m00_wp:material_0", "pbrMetallicRoughness": {"metallicFactor": 0.0, "roughnessFactor": 0.9, "baseColorTexture": {"index": 0}}, "doubleSided": true}], "accessors": [{"bufferView": 0, "componentType": 5126, "count": 105, "type": "VEC3", "min": [-0.04541175365447998, -0.011530991792678833, -0.04002164840698242], "max": [0.09431656837463379, 0.011687581539154054, 0.03804018020629883]}, {"bufferView": 1, "componentType": 5126, "count": 105, "type": "VEC3"}, {"bufferView": 2, "componentType": 5126, "count": 105, "type": "VEC2"}, {"bufferView": 3, "componentType": 5125, "count": 492, "type": "SCALAR"}], "bufferViews": [{"buffer": 0, "byteOffset": 0, "byteLength": 1260}, {"buffer": 0, "byteOffset": 1260, "byteLength": 1260}, {"buffer": 0, "byteOffset": 2520, "byteLength": 840}, {"buffer": 0, "byteOffset": 3360, "byteLength": 1968}], "images": [{"uri": "buffalo_horn_m00_wp.png"}], "samplers": [{"magFilter": 9729, "minFilter": 9987, "wrapS": 10497, "wrapT": 10497}], "textures": [{"source": 0, "sampler": 0}], "buffers": [{"uri": "buffalo_horn_m00_wp.bin", "byteLength": 5328}]}