{"asset": {"version": "2.0", "generator": "l2vzla char_pipeline (weapons, static psk)"}, "scene": 0, "scenes": [{"nodes": [0]}], "nodes": [{"name": "caliburs_m00_wp", "mesh": 0}], "meshes": [{"name": "caliburs_m00_wp", "primitives": [{"attributes": {"POSITION": 0, "NORMAL": 1, "TEXCOORD_0": 2}, "mode": 4, "indices": 3, "material": 0}]}], "materials": [{"name": "caliburs_m00_wp:material_0", "pbrMetallicRoughness": {"metallicFactor": 0.0, "roughnessFactor": 0.9, "baseColorTexture": {"index": 0}}, "doubleSided": true, "alphaMode": "MASK", "alphaCutoff": 0.5}], "accessors": [{"bufferView": 0, "componentType": 5126, "count": 84, "type": "VEC3", "min": [-0.07349665641784668, -0.007865608930587768, -0.04128575325012207], "max": [0.283763484954834, 0.00848692536354065, 0.041889820098876956]}, {"bufferView": 1, "componentType": 5126, "count": 84, "type": "VEC3"}, {"bufferView": 2, "componentType": 5126, "count": 84, "type": "VEC2"}, {"bufferView": 3, "componentType": 5125, "count": 384, "type": "SCALAR"}], "bufferViews": [{"buffer": 0, "byteOffset": 0, "byteLength": 1008}, {"buffer": 0, "byteOffset": 1008, "byteLength": 1008}, {"buffer": 0, "byteOffset": 2016, "byteLength": 672}, {"buffer": 0, "byteOffset": 2688, "byteLength": 1536}], "images": [{"uri": "caliburs_m00_wp.png"}], "samplers": [{"magFilter": 9729, "minFilter": 9987, "wrapS": 10497, "wrapT": 10497}], "textures": [{"source": 0, "sampler": 0}], "buffers": [{"uri": "caliburs_m00_wp.bin", "byteLength": 4224}]}