{"asset": {"version": "2.0", "generator": "l2vzla char_pipeline (weapons, static psk)"}, "scene": 0, "scenes": [{"nodes": [0]}], "nodes": [{"name": "Cedar_staff_m00_wp", "mesh": 0}], "meshes": [{"name": "Cedar_staff_m00_wp", "primitives": [{"attributes": {"POSITION": 0, "NORMAL": 1, "TEXCOORD_0": 2}, "mode": 4, "indices": 3, "material": 0}]}], "materials": [{"name": "Cedar_staff_m00_wp:material_0", "pbrMetallicRoughness": {"metallicFactor": 0.0, "roughnessFactor": 0.9, "baseColorTexture": {"index": 0}}, "doubleSided": true}], "accessors": [{"bufferView": 0, "componentType": 5126, "count": 72, "type": "VEC3", "min": [-0.09868865013122559, -0.015002779960632324, -0.052691497802734376], "max": [0.2987061500549317, 0.013628829717636109, 0.03579992055892944]}, {"bufferView": 1, "componentType": 5126, "count": 72, "type": "VEC3"}, {"bufferView": 2, "componentType": 5126, "count": 72, "type": "VEC2"}, {"bufferView": 3, "componentType": 5125, "count": 336, "type": "SCALAR"}], "bufferViews": [{"buffer": 0, "byteOffset": 0, "byteLength": 864}, {"buffer": 0, "byteOffset": 864, "byteLength": 864}, {"buffer": 0, "byteOffset": 1728, "byteLength": 576}, {"buffer": 0, "byteOffset": 2304, "byteLength": 1344}], "images": [{"uri": "cedar_staff_m00_wp.png"}], "samplers": [{"magFilter": 9729, "minFilter": 9987, "wrapS": 10497, "wrapT": 10497}], "textures": [{"source": 0, "sampler": 0}], "buffers": [{"uri": "cedar_staff_m00_wp.bin", "byteLength": 3648}]}