{"asset": {"version": "2.0", "generator": "l2vzla char_pipeline (weapons, static psk)"}, "scene": 0, "scenes": [{"nodes": [0]}], "nodes": [{"name": "chrono_cithara_m00_wp", "mesh": 0}], "meshes": [{"name": "chrono_cithara_m00_wp", "primitives": [{"attributes": {"POSITION": 0, "NORMAL": 1, "TEXCOORD_0": 2}, "mode": 4, "indices": 3, "material": 0}]}], "materials": [{"name": "chrono_cithara_m00_wp:material_0", "pbrMetallicRoughness": {"metallicFactor": 0.0, "roughnessFactor": 0.9, "baseColorTexture": {"index": 0}}, "doubleSided": true}], "accessors": [{"bufferView": 0, "componentType": 5126, "count": 557, "type": "VEC3", "min": [-0.06307578086853027, -0.055073909759521485, -0.02450974702835083], "max": [0.2055070686340332, 0.005408489108085632, 0.024404187202453614]}, {"bufferView": 1, "componentType": 5126, "count": 557, "type": "VEC3"}, {"bufferView": 2, "componentType": 5126, "count": 557, "type": "VEC2"}, {"bufferView": 3, "componentType": 5125, "count": 1815, "type": "SCALAR"}], "bufferViews": [{"buffer": 0, "byteOffset": 0, "byteLength": 6684}, {"buffer": 0, "byteOffset": 6684, "byteLength": 6684}, {"buffer": 0, "byteOffset": 13368, "byteLength": 4456}, {"buffer": 0, "byteOffset": 17824, "byteLength": 7260}], "images": [{"uri": "chrono_cithara_m00_wp.png"}], "samplers": [{"magFilter": 9729, "minFilter": 9987, "wrapS": 10497, "wrapT": 10497}], "textures": [{"source": 0, "sampler": 0}], "buffers": [{"uri": "chrono_cithara_m00_wp.bin", "byteLength": 25084}]}