{"asset": {"version": "2.0", "generator": "l2vzla char_pipeline (weapons, static psk)"}, "scene": 0, "scenes": [{"nodes": [0]}], "nodes": [{"name": "chrono_tambourine_m00_wp", "mesh": 0}], "meshes": [{"name": "chrono_tambourine_m00_wp", "primitives": [{"attributes": {"POSITION": 0, "NORMAL": 1, "TEXCOORD_0": 2}, "mode": 4, "indices": 3, "material": 0}]}], "materials": [{"name": "chrono_tambourine_m00_wp:material_0", "pbrMetallicRoughness": {"metallicFactor": 0.0, "roughnessFactor": 0.9, "baseColorTexture": {"index": 0}}, "doubleSided": true}], "accessors": [{"bufferView": 0, "componentType": 5126, "count": 424, "type": "VEC3", "min": [-0.06736547470092774, -0.007312230467796325, -0.015678703784942627], "max": [0.06739806175231934, 0.006962475180625915, 0.07165565490722657]}, {"bufferView": 1, "componentType": 5126, "count": 424, "type": "VEC3"}, {"bufferView": 2, "componentType": 5126, "count": 424, "type": "VEC2"}, {"bufferView": 3, "componentType": 5125, "count": 1500, "type": "SCALAR"}], "bufferViews": [{"buffer": 0, "byteOffset": 0, "byteLength": 5088}, {"buffer": 0, "byteOffset": 5088, "byteLength": 5088}, {"buffer": 0, "byteOffset": 10176, "byteLength": 3392}, {"buffer": 0, "byteOffset": 13568, "byteLength": 6000}], "images": [{"uri": "chrono_tambourine_m00_wp.png"}], "samplers": [{"magFilter": 9729, "minFilter": 9987, "wrapS": 10497, "wrapT": 10497}], "textures": [{"source": 0, "sampler": 0}], "buffers": [{"uri": "chrono_tambourine_m00_wp.bin", "byteLength": 19568}]}