{"asset": {"version": "2.0", "generator": "l2vzla char_pipeline (weapons, static psk)"}, "scene": 0, "scenes": [{"nodes": [0]}], "nodes": [{"name": "chrono_maracas_m00_wp", "mesh": 0}], "meshes": [{"name": "chrono_maracas_m00_wp", "primitives": [{"attributes": {"POSITION": 0, "NORMAL": 1, "TEXCOORD_0": 2}, "mode": 4, "indices": 3, "material": 0}]}], "materials": [{"name": "chrono_maracas_m00_wp:material_0", "pbrMetallicRoughness": {"metallicFactor": 0.0, "roughnessFactor": 0.9, "baseColorTexture": {"index": 0}}, "doubleSided": true}], "accessors": [{"bufferView": 0, "componentType": 5126, "count": 92, "type": "VEC3", "min": [-0.039317939281463626, -0.01846411347389221, -0.018153001070022583], "max": [0.11827323913574218, 0.018384418487548827, 0.018817981481552126]}, {"bufferView": 1, "componentType": 5126, "count": 92, "type": "VEC3"}, {"bufferView": 2, "componentType": 5126, "count": 92, "type": "VEC2"}, {"bufferView": 3, "componentType": 5125, "count": 492, "type": "SCALAR"}], "bufferViews": [{"buffer": 0, "byteOffset": 0, "byteLength": 1104}, {"buffer": 0, "byteOffset": 1104, "byteLength": 1104}, {"buffer": 0, "byteOffset": 2208, "byteLength": 736}, {"buffer": 0, "byteOffset": 2944, "byteLength": 1968}], "images": [{"uri": "chrono_maracas_m00_wp.png"}], "samplers": [{"magFilter": 9729, "minFilter": 9987, "wrapS": 10497, "wrapT": 10497}], "textures": [{"source": 0, "sampler": 0}], "buffers": [{"uri": "chrono_maracas_m00_wp.bin", "byteLength": 4912}]}