{"asset": {"version": "2.0", "generator": "l2vzla char_pipeline (weapons, static psk)"}, "scene": 0, "scenes": [{"nodes": [0]}], "nodes": [{"name": "chrono_campana_m00_wp", "mesh": 0}], "meshes": [{"name": "chrono_campana_m00_wp", "primitives": [{"attributes": {"POSITION": 0, "NORMAL": 1, "TEXCOORD_0": 2}, "mode": 4, "indices": 3, "material": 0}]}], "materials": [{"name": "chrono_campana_m00_wp:material_0", "pbrMetallicRoughness": {"metallicFactor": 0.0, "roughnessFactor": 0.9, "baseColorTexture": {"index": 0}}, "doubleSided": true}], "accessors": [{"bufferView": 0, "componentType": 5126, "count": 335, "type": "VEC3", "min": [-0.15235483169555664, -0.04761657238006592, -0.045003561973571776], "max": [0.3811636734008789, 0.02898151159286499, 0.04495236873626709]}, {"bufferView": 1, "componentType": 5126, "count": 335, "type": "VEC3"}, {"bufferView": 2, "componentType": 5126, "count": 335, "type": "VEC2"}, {"bufferView": 3, "componentType": 5125, "count": 1602, "type": "SCALAR"}], "bufferViews": [{"buffer": 0, "byteOffset": 0, "byteLength": 4020}, {"buffer": 0, "byteOffset": 4020, "byteLength": 4020}, {"buffer": 0, "byteOffset": 8040, "byteLength": 2680}, {"buffer": 0, "byteOffset": 10720, "byteLength": 6408}], "images": [{"uri": "chrono_campana_m00_wp.png"}], "samplers": [{"magFilter": 9729, "minFilter": 9987, "wrapS": 10497, "wrapT": 10497}], "textures": [{"source": 0, "sampler": 0}], "buffers": [{"uri": "chrono_campana_m00_wp.bin", "byteLength": 17128}]}