{"asset": {"version": "2.0", "generator": "l2vzla char_pipeline (weapons, static psk)"}, "scene": 0, "scenes": [{"nodes": [0]}], "nodes": [{"name": "club_m00_wp", "mesh": 0}], "meshes": [{"name": "club_m00_wp", "primitives": [{"attributes": {"POSITION": 0, "NORMAL": 1, "TEXCOORD_0": 2}, "mode": 4, "indices": 3, "material": 0}]}], "materials": [{"name": "club_m00_wp:material_0", "pbrMetallicRoughness": {"metallicFactor": 0.0, "roughnessFactor": 0.9, "baseColorTexture": {"index": 0}}, "doubleSided": true}], "accessors": [{"bufferView": 0, "componentType": 5126, "count": 51, "type": "VEC3", "min": [-0.06635700702667237, -0.0135342276096344, -0.013310761451721193], "max": [0.1444546127319336, 0.01490884780883789, 0.015286915302276612]}, {"bufferView": 1, "componentType": 5126, "count": 51, "type": "VEC3"}, {"bufferView": 2, "componentType": 5126, "count": 51, "type": "VEC2"}, {"bufferView": 3, "componentType": 5125, "count": 258, "type": "SCALAR"}], "bufferViews": [{"buffer": 0, "byteOffset": 0, "byteLength": 612}, {"buffer": 0, "byteOffset": 612, "byteLength": 612}, {"buffer": 0, "byteOffset": 1224, "byteLength": 408}, {"buffer": 0, "byteOffset": 1632, "byteLength": 1032}], "images": [{"uri": "club_m00_wp.png"}], "samplers": [{"magFilter": 9729, "minFilter": 9987, "wrapS": 10497, "wrapT": 10497}], "textures": [{"source": 0, "sampler": 0}], "buffers": [{"uri": "club_m00_wp.bin", "byteLength": 2664}]}