{"asset": {"version": "2.0", "generator": "l2vzla char_pipeline (weapons, static psk)"}, "scene": 0, "scenes": [{"nodes": [0]}], "nodes": [{"name": "composition_bow_m00_wp", "mesh": 0}], "meshes": [{"name": "composition_bow_m00_wp", "primitives": [{"attributes": {"POSITION": 0, "NORMAL": 1, "TEXCOORD_0": 2}, "mode": 4, "indices": 3, "material": 0}]}], "materials": [{"name": "composition_bow_m00_wp:material_0", "pbrMetallicRoughness": {"metallicFactor": 0.0, "roughnessFactor": 0.9, "baseColorTexture": {"index": 0}}, "doubleSided": true, "alphaMode": "MASK", "alphaCutoff": 0.5}], "accessors": [{"bufferView": 0, "componentType": 5126, "count": 88, "type": "VEC3", "min": [-0.23686737060546875, -0.006332932114601135, -0.10356014251708985], "max": [0.21856523513793946, 0.005671496987342835, 0.018014774322509766]}, {"bufferView": 1, "componentType": 5126, "count": 88, "type": "VEC3"}, {"bufferView": 2, "componentType": 5126, "count": 88, "type": "VEC2"}, {"bufferView": 3, "componentType": 5125, "count": 372, "type": "SCALAR"}], "bufferViews": [{"buffer": 0, "byteOffset": 0, "byteLength": 1056}, {"buffer": 0, "byteOffset": 1056, "byteLength": 1056}, {"buffer": 0, "byteOffset": 2112, "byteLength": 704}, {"buffer": 0, "byteOffset": 2816, "byteLength": 1488}], "images": [{"uri": "composition_bow_m00_wp.png"}], "samplers": [{"magFilter": 9729, "minFilter": 9987, "wrapS": 10497, "wrapT": 10497}], "textures": [{"source": 0, "sampler": 0}], "buffers": [{"uri": "composition_bow_m00_wp.bin", "byteLength": 4304}]}