{"asset": {"version": "2.0", "generator": "l2vzla char_pipeline (weapons, static psk)"}, "scene": 0, "scenes": [{"nodes": [0]}], "nodes": [{"name": "conjure_staff_m00_wp", "mesh": 0}], "meshes": [{"name": "conjure_staff_m00_wp", "primitives": [{"attributes": {"POSITION": 0, "NORMAL": 1, "TEXCOORD_0": 2}, "mode": 4, "indices": 3, "material": 0}]}], "materials": [{"name": "conjure_staff_m00_wp:material_0", "pbrMetallicRoughness": {"metallicFactor": 0.0, "roughnessFactor": 0.9, "baseColorTexture": {"index": 0}}, "doubleSided": true, "alphaMode": "MASK", "alphaCutoff": 0.5}], "accessors": [{"bufferView": 0, "componentType": 5126, "count": 158, "type": "VEC3", "min": [-0.10397572517395019, -0.03920027732849121, -0.03676393508911133], "max": [0.33229183197021483, 0.039042296409606936, 0.03704981088638306]}, {"bufferView": 1, "componentType": 5126, "count": 158, "type": "VEC3"}, {"bufferView": 2, "componentType": 5126, "count": 158, "type": "VEC2"}, {"bufferView": 3, "componentType": 5125, "count": 399, "type": "SCALAR"}], "bufferViews": [{"buffer": 0, "byteOffset": 0, "byteLength": 1896}, {"buffer": 0, "byteOffset": 1896, "byteLength": 1896}, {"buffer": 0, "byteOffset": 3792, "byteLength": 1264}, {"buffer": 0, "byteOffset": 5056, "byteLength": 1596}], "images": [{"uri": "conjure_staff_m00_wp.png"}], "samplers": [{"magFilter": 9729, "minFilter": 9987, "wrapS": 10497, "wrapT": 10497}], "textures": [{"source": 0, "sampler": 0}], "buffers": [{"uri": "conjure_staff_m00_wp.bin", "byteLength": 6652}]}