{"asset": {"version": "2.0", "generator": "l2vzla char_pipeline (weapons, static psk)"}, "scene": 0, "scenes": [{"nodes": [0]}], "nodes": [{"name": "conjure_knife_m00_wp", "mesh": 0}], "meshes": [{"name": "conjure_knife_m00_wp", "primitives": [{"attributes": {"POSITION": 0, "NORMAL": 1, "TEXCOORD_0": 2}, "mode": 4, "indices": 3, "material": 0}]}], "materials": [{"name": "conjure_knife_m00_wp:material_0", "pbrMetallicRoughness": {"metallicFactor": 0.0, "roughnessFactor": 0.9, "baseColorTexture": {"index": 0}}, "doubleSided": true}], "accessors": [{"bufferView": 0, "componentType": 5126, "count": 92, "type": "VEC3", "min": [-0.05210165500640869, -0.0059927344322204595, -0.007213138341903687], "max": [0.14640369415283203, 0.006415964961051941, 0.07181093692779542]}, {"bufferView": 1, "componentType": 5126, "count": 92, "type": "VEC3"}, {"bufferView": 2, "componentType": 5126, "count": 92, "type": "VEC2"}, {"bufferView": 3, "componentType": 5125, "count": 390, "type": "SCALAR"}], "bufferViews": [{"buffer": 0, "byteOffset": 0, "byteLength": 1104}, {"buffer": 0, "byteOffset": 1104, "byteLength": 1104}, {"buffer": 0, "byteOffset": 2208, "byteLength": 736}, {"buffer": 0, "byteOffset": 2944, "byteLength": 1560}], "images": [{"uri": "conjure_knife_m00_wp.png"}], "samplers": [{"magFilter": 9729, "minFilter": 9987, "wrapS": 10497, "wrapT": 10497}], "textures": [{"source": 0, "sampler": 0}], "buffers": [{"uri": "conjure_knife_m00_wp.bin", "byteLength": 4504}]}