{"asset": {"version": "2.0", "generator": "l2vzla char_pipeline (weapons, static psk)"}, "scene": 0, "scenes": [{"nodes": [0]}], "nodes": [{"name": "crimson_sword_m00_wp", "mesh": 0}], "meshes": [{"name": "crimson_sword_m00_wp", "primitives": [{"attributes": {"POSITION": 0, "NORMAL": 1, "TEXCOORD_0": 2}, "mode": 4, "indices": 3, "material": 0}]}], "materials": [{"name": "crimson_sword_m00_wp:material_0", "pbrMetallicRoughness": {"metallicFactor": 0.0, "roughnessFactor": 0.9, "baseColorTexture": {"index": 0}}, "doubleSided": true, "alphaMode": "MASK", "alphaCutoff": 0.5}], "accessors": [{"bufferView": 0, "componentType": 5126, "count": 77, "type": "VEC3", "min": [-0.06560006141662597, -0.008615871071815492, -0.05778307914733887], "max": [0.25511844635009767, 0.010724372863769531, 0.01843208909034729]}, {"bufferView": 1, "componentType": 5126, "count": 77, "type": "VEC3"}, {"bufferView": 2, "componentType": 5126, "count": 77, "type": "VEC2"}, {"bufferView": 3, "componentType": 5125, "count": 276, "type": "SCALAR"}], "bufferViews": [{"buffer": 0, "byteOffset": 0, "byteLength": 924}, {"buffer": 0, "byteOffset": 924, "byteLength": 924}, {"buffer": 0, "byteOffset": 1848, "byteLength": 616}, {"buffer": 0, "byteOffset": 2464, "byteLength": 1104}], "images": [{"uri": "crimson_sword_m00_wp.png"}], "samplers": [{"magFilter": 9729, "minFilter": 9987, "wrapS": 10497, "wrapT": 10497}], "textures": [{"source": 0, "sampler": 0}], "buffers": [{"uri": "crimson_sword_m00_wp.bin", "byteLength": 3568}]}