{"asset": {"version": "2.0", "generator": "l2vzla char_pipeline (weapons, static psk)"}, "scene": 0, "scenes": [{"nodes": [0]}], "nodes": [{"name": "crokian_blade_m00_wp", "mesh": 0}], "meshes": [{"name": "crokian_blade_m00_wp", "primitives": [{"attributes": {"POSITION": 0, "NORMAL": 1, "TEXCOORD_0": 2}, "mode": 4, "indices": 3, "material": 0}]}], "materials": [{"name": "crokian_blade_m00_wp:material_0", "pbrMetallicRoughness": {"metallicFactor": 0.0, "roughnessFactor": 0.9, "baseColorTexture": {"index": 0}}, "doubleSided": true}], "accessors": [{"bufferView": 0, "componentType": 5126, "count": 63, "type": "VEC3", "min": [-0.08506649971008301, -0.03462440967559815, -0.05725875377655029], "max": [0.41506935119628907, 0.03530826568603516, 0.03874190330505371]}, {"bufferView": 1, "componentType": 5126, "count": 63, "type": "VEC3"}, {"bufferView": 2, "componentType": 5126, "count": 63, "type": "VEC2"}, {"bufferView": 3, "componentType": 5125, "count": 252, "type": "SCALAR"}], "bufferViews": [{"buffer": 0, "byteOffset": 0, "byteLength": 756}, {"buffer": 0, "byteOffset": 756, "byteLength": 756}, {"buffer": 0, "byteOffset": 1512, "byteLength": 504}, {"buffer": 0, "byteOffset": 2016, "byteLength": 1008}], "images": [{"uri": "crokian_blade_m00_wp.png"}], "samplers": [{"magFilter": 9729, "minFilter": 9987, "wrapS": 10497, "wrapT": 10497}], "textures": [{"source": 0, "sampler": 0}], "buffers": [{"uri": "crokian_blade_m00_wp.bin", "byteLength": 3024}]}