{"asset": {"version": "2.0", "generator": "l2vzla char_pipeline (weapons, static psk)"}, "scene": 0, "scenes": [{"nodes": [0]}], "nodes": [{"name": "crucifix_of_blessing_m00_wp", "mesh": 0}], "meshes": [{"name": "crucifix_of_blessing_m00_wp", "primitives": [{"attributes": {"POSITION": 0, "NORMAL": 1, "TEXCOORD_0": 2}, "mode": 4, "indices": 3, "material": 0}]}], "materials": [{"name": "crucifix_of_blessing_m00_wp:material_0", "pbrMetallicRoughness": {"metallicFactor": 0.0, "roughnessFactor": 0.9, "baseColorTexture": {"index": 0}}, "doubleSided": true, "alphaMode": "MASK", "alphaCutoff": 0.5}], "accessors": [{"bufferView": 0, "componentType": 5126, "count": 101, "type": "VEC3", "min": [-0.09628683090209961, -0.007946603298187256, -0.04690207004547119], "max": [0.2011501121520996, 0.007584162950515747, 0.04687006950378418]}, {"bufferView": 1, "componentType": 5126, "count": 101, "type": "VEC3"}, {"bufferView": 2, "componentType": 5126, "count": 101, "type": "VEC2"}, {"bufferView": 3, "componentType": 5125, "count": 468, "type": "SCALAR"}], "bufferViews": [{"buffer": 0, "byteOffset": 0, "byteLength": 1212}, {"buffer": 0, "byteOffset": 1212, "byteLength": 1212}, {"buffer": 0, "byteOffset": 2424, "byteLength": 808}, {"buffer": 0, "byteOffset": 3232, "byteLength": 1872}], "images": [{"uri": "crucifix_of_blessing_m00_wp.png"}], "samplers": [{"magFilter": 9729, "minFilter": 9987, "wrapS": 10497, "wrapT": 10497}], "textures": [{"source": 0, "sampler": 0}], "buffers": [{"uri": "crucifix_of_blessing_m00_wp.bin", "byteLength": 5104}]}