{"asset": {"version": "2.0", "generator": "l2vzla char_pipeline (weapons, static psk)"}, "scene": 0, "scenes": [{"nodes": [0]}], "nodes": [{"name": "crucifix_of_blood_m00_wp", "mesh": 0}], "meshes": [{"name": "crucifix_of_blood_m00_wp", "primitives": [{"attributes": {"POSITION": 0, "NORMAL": 1, "TEXCOORD_0": 2}, "mode": 4, "indices": 3, "material": 0}]}], "materials": [{"name": "crucifix_of_blood_m00_wp:material_0", "pbrMetallicRoughness": {"metallicFactor": 0.0, "roughnessFactor": 0.9, "baseColorTexture": {"index": 0}}, "doubleSided": true}], "accessors": [{"bufferView": 0, "componentType": 5126, "count": 107, "type": "VEC3", "min": [-0.07680596351623535, -0.009555196166038513, -0.042974634170532225], "max": [0.22336660385131837, 0.00947679102420807, 0.04230398178100586]}, {"bufferView": 1, "componentType": 5126, "count": 107, "type": "VEC3"}, {"bufferView": 2, "componentType": 5126, "count": 107, "type": "VEC2"}, {"bufferView": 3, "componentType": 5125, "count": 516, "type": "SCALAR"}], "bufferViews": [{"buffer": 0, "byteOffset": 0, "byteLength": 1284}, {"buffer": 0, "byteOffset": 1284, "byteLength": 1284}, {"buffer": 0, "byteOffset": 2568, "byteLength": 856}, {"buffer": 0, "byteOffset": 3424, "byteLength": 2064}], "images": [{"uri": "crucifix_of_blood_m00_wp.png"}], "samplers": [{"magFilter": 9729, "minFilter": 9987, "wrapS": 10497, "wrapT": 10497}], "textures": [{"source": 0, "sampler": 0}], "buffers": [{"uri": "crucifix_of_blood_m00_wp.bin", "byteLength": 5488}]}