{"asset": {"version": "2.0", "generator": "l2vzla char_pipeline (weapons, static psk)"}, "scene": 0, "scenes": [{"nodes": [0]}], "nodes": [{"name": "cyclone_bow_m00_wp", "mesh": 0}], "meshes": [{"name": "cyclone_bow_m00_wp", "primitives": [{"attributes": {"POSITION": 0, "NORMAL": 1, "TEXCOORD_0": 2}, "mode": 4, "indices": 3, "material": 0}]}], "materials": [{"name": "cyclone_bow_m00_wp:material_0", "pbrMetallicRoughness": {"metallicFactor": 0.0, "roughnessFactor": 0.9, "baseColorTexture": {"index": 0}}, "doubleSided": true, "alphaMode": "MASK", "alphaCutoff": 0.5}], "accessors": [{"bufferView": 0, "componentType": 5126, "count": 160, "type": "VEC3", "min": [-0.24155376434326173, -0.005308383107185364, -0.07710755825042724], "max": [0.23001451492309571, 0.0032718846201896666, 0.041236133575439454]}, {"bufferView": 1, "componentType": 5126, "count": 160, "type": "VEC3"}, {"bufferView": 2, "componentType": 5126, "count": 160, "type": "VEC2"}, {"bufferView": 3, "componentType": 5125, "count": 828, "type": "SCALAR"}], "bufferViews": [{"buffer": 0, "byteOffset": 0, "byteLength": 1920}, {"buffer": 0, "byteOffset": 1920, "byteLength": 1920}, {"buffer": 0, "byteOffset": 3840, "byteLength": 1280}, {"buffer": 0, "byteOffset": 5120, "byteLength": 3312}], "images": [{"uri": "cyclone_bow_m00_wp.png"}], "samplers": [{"magFilter": 9729, "minFilter": 9987, "wrapS": 10497, "wrapT": 10497}], "textures": [{"source": 0, "sampler": 0}], "buffers": [{"uri": "cyclone_bow_m00_wp.bin", "byteLength": 8432}]}