{"asset": {"version": "2.0", "generator": "l2vzla char_pipeline (weapons, static psk)"}, "scene": 0, "scenes": [{"nodes": [0]}], "nodes": [{"name": "dagger_m00_wp", "mesh": 0}], "meshes": [{"name": "dagger_m00_wp", "primitives": [{"attributes": {"POSITION": 0, "NORMAL": 1, "TEXCOORD_0": 2}, "mode": 4, "indices": 3, "material": 0}]}], "materials": [{"name": "dagger_m00_wp:material_0", "pbrMetallicRoughness": {"metallicFactor": 0.0, "roughnessFactor": 0.9, "baseColorTexture": {"index": 0}}, "doubleSided": true}], "accessors": [{"bufferView": 0, "componentType": 5126, "count": 134, "type": "VEC3", "min": [-0.047519226074218754, -0.00437629371881485, -0.026127521991729737], "max": [0.14148442268371583, 0.004316744804382325, 0.02492933988571167]}, {"bufferView": 1, "componentType": 5126, "count": 134, "type": "VEC3"}, {"bufferView": 2, "componentType": 5126, "count": 134, "type": "VEC2"}, {"bufferView": 3, "componentType": 5125, "count": 330, "type": "SCALAR"}], "bufferViews": [{"buffer": 0, "byteOffset": 0, "byteLength": 1608}, {"buffer": 0, "byteOffset": 1608, "byteLength": 1608}, {"buffer": 0, "byteOffset": 3216, "byteLength": 1072}, {"buffer": 0, "byteOffset": 4288, "byteLength": 1320}], "images": [{"uri": "dagger_m00_wp.png"}], "samplers": [{"magFilter": 9729, "minFilter": 9987, "wrapS": 10497, "wrapT": 10497}], "textures": [{"source": 0, "sampler": 0}], "buffers": [{"uri": "dagger_m00_wp.bin", "byteLength": 5608}]}