{"asset": {"version": "2.0", "generator": "l2vzla char_pipeline (weapons, static psk)"}, "scene": 0, "scenes": [{"nodes": [0]}], "nodes": [{"name": "dailaon_knife_m00_wp", "mesh": 0}], "meshes": [{"name": "dailaon_knife_m00_wp", "primitives": [{"attributes": {"POSITION": 0, "NORMAL": 1, "TEXCOORD_0": 2}, "mode": 4, "indices": 3, "material": 0}]}], "materials": [{"name": "dailaon_knife_m00_wp:material_0", "pbrMetallicRoughness": {"metallicFactor": 0.0, "roughnessFactor": 0.9, "baseColorTexture": {"index": 0}}, "doubleSided": true}], "accessors": [{"bufferView": 0, "componentType": 5126, "count": 81, "type": "VEC3", "min": [-0.10071959495544434, -0.020028486251831054, -0.062414388656616214], "max": [0.2813050651550293, 0.022399792671203615, 0.06244553565979004]}, {"bufferView": 1, "componentType": 5126, "count": 81, "type": "VEC3"}, {"bufferView": 2, "componentType": 5126, "count": 81, "type": "VEC2"}, {"bufferView": 3, "componentType": 5125, "count": 282, "type": "SCALAR"}], "bufferViews": [{"buffer": 0, "byteOffset": 0, "byteLength": 972}, {"buffer": 0, "byteOffset": 972, "byteLength": 972}, {"buffer": 0, "byteOffset": 1944, "byteLength": 648}, {"buffer": 0, "byteOffset": 2592, "byteLength": 1128}], "images": [{"uri": "dailaon_knife_m00_wp.png"}], "samplers": [{"magFilter": 9729, "minFilter": 9987, "wrapS": 10497, "wrapT": 10497}], "textures": [{"source": 0, "sampler": 0}], "buffers": [{"uri": "dailaon_knife_m00_wp.bin", "byteLength": 3720}]}