{"asset": {"version": "2.0", "generator": "l2vzla char_pipeline (weapons, static psk)"}, "scene": 0, "scenes": [{"nodes": [0]}], "nodes": [{"name": "dark_crystal_shield_m00_sh", "mesh": 0}], "meshes": [{"name": "dark_crystal_shield_m00_sh", "primitives": [{"attributes": {"POSITION": 0, "NORMAL": 1, "TEXCOORD_0": 2}, "mode": 4, "indices": 3, "material": 0}, {"attributes": {"POSITION": 4, "NORMAL": 5, "TEXCOORD_0": 6}, "mode": 4, "indices": 7, "material": 1}]}], "materials": [{"name": "dark_crystal_shield_m00_sh:material_0", "pbrMetallicRoughness": {"metallicFactor": 0.0, "roughnessFactor": 0.9, "baseColorTexture": {"index": 0}}, "doubleSided": true}, {"name": "dark_crystal_shield_m00_sh:material_1", "pbrMetallicRoughness": {"metallicFactor": 0.0, "roughnessFactor": 0.9, "baseColorTexture": {"index": 1}}, "doubleSided": true}], "accessors": [{"bufferView": 0, "componentType": 5126, "count": 16, "type": "VEC3", "min": [-0.0822096061706543, -0.06849011421203613, -0.00370547354221344], "max": [0.17377948760986328, 0.07249017238616944, 0.015746819972991943]}, {"bufferView": 1, "componentType": 5126, "count": 16, "type": "VEC3"}, {"bufferView": 2, "componentType": 5126, "count": 16, "type": "VEC2"}, {"bufferView": 3, "componentType": 5125, "count": 48, "type": "SCALAR"}, {"bufferView": 4, "componentType": 5126, "count": 58, "type": "VEC3", "min": [-0.0822096061706543, -0.06849011421203613, -0.0034641480445861818], "max": [0.17384515762329103, 0.07249017238616944, 0.02084643840789795]}, {"bufferView": 5, "componentType": 5126, "count": 58, "type": "VEC3"}, {"bufferView": 6, "componentType": 5126, "count": 58, "type": "VEC2"}, {"bufferView": 7, "componentType": 5125, "count": 132, "type": "SCALAR"}], "bufferViews": [{"buffer": 0, "byteOffset": 0, "byteLength": 192}, {"buffer": 0, "byteOffset": 192, "byteLength": 192}, {"buffer": 0, "byteOffset": 384, "byteLength": 128}, {"buffer": 0, "byteOffset": 512, "byteLength": 192}, {"buffer": 0, "byteOffset": 704, "byteLength": 696}, {"buffer": 0, "byteOffset": 1400, "byteLength": 696}, {"buffer": 0, "byteOffset": 2096, "byteLength": 464}, {"buffer": 0, "byteOffset": 2560, "byteLength": 528}], "images": [{"uri": "dark_crystal_shield_m00_sh_s0.png"}, {"uri": "dark_crystal_shield_m00_sh_s1.png"}], "samplers": [{"magFilter": 9729, "minFilter": 9987, "wrapS": 10497, "wrapT": 10497}, {"magFilter": 9729, "minFilter": 9987, "wrapS": 10497, "wrapT": 10497}], "textures": [{"source": 0, "sampler": 0}, {"source": 1, "sampler": 1}], "buffers": [{"uri": "dark_crystal_shield_m00_sh.bin", "byteLength": 3088}]}