{"asset": {"version": "2.0", "generator": "l2vzla char_pipeline (weapons, static psk)"}, "scene": 0, "scenes": [{"nodes": [0]}], "nodes": [{"name": "dark_elven_bow_m00_wp", "mesh": 0}], "meshes": [{"name": "dark_elven_bow_m00_wp", "primitives": [{"attributes": {"POSITION": 0, "NORMAL": 1, "TEXCOORD_0": 2}, "mode": 4, "indices": 3, "material": 0}]}], "materials": [{"name": "dark_elven_bow_m00_wp:material_0", "pbrMetallicRoughness": {"metallicFactor": 0.0, "roughnessFactor": 0.9, "baseColorTexture": {"index": 0}}, "doubleSided": true, "alphaMode": "MASK", "alphaCutoff": 0.5}], "accessors": [{"bufferView": 0, "componentType": 5126, "count": 140, "type": "VEC3", "min": [-0.2881269645690918, -0.009038261771202087, -0.07535555362701417], "max": [0.26892839431762694, 0.008892506957054139, 0.055070595741271974]}, {"bufferView": 1, "componentType": 5126, "count": 140, "type": "VEC3"}, {"bufferView": 2, "componentType": 5126, "count": 140, "type": "VEC2"}, {"bufferView": 3, "componentType": 5125, "count": 606, "type": "SCALAR"}], "bufferViews": [{"buffer": 0, "byteOffset": 0, "byteLength": 1680}, {"buffer": 0, "byteOffset": 1680, "byteLength": 1680}, {"buffer": 0, "byteOffset": 3360, "byteLength": 1120}, {"buffer": 0, "byteOffset": 4480, "byteLength": 2424}], "images": [{"uri": "dark_elven_bow_m00_wp.png"}], "samplers": [{"magFilter": 9729, "minFilter": 9987, "wrapS": 10497, "wrapT": 10497}], "textures": [{"source": 0, "sampler": 0}], "buffers": [{"uri": "dark_elven_bow_m00_wp.bin", "byteLength": 6904}]}