{"asset": {"version": "2.0", "generator": "l2vzla char_pipeline (weapons, static psk)"}, "scene": 0, "scenes": [{"nodes": [0]}], "nodes": [{"name": "death_knight_blader_m00_wp", "mesh": 0}], "meshes": [{"name": "death_knight_blader_m00_wp", "primitives": [{"attributes": {"POSITION": 0, "NORMAL": 1, "TEXCOORD_0": 2}, "mode": 4, "indices": 3, "material": 0}]}], "materials": [{"name": "death_knight_blader_m00_wp:material_0", "pbrMetallicRoughness": {"metallicFactor": 0.0, "roughnessFactor": 0.9, "baseColorTexture": {"index": 0}}, "doubleSided": true, "alphaMode": "MASK", "alphaCutoff": 0.5}], "accessors": [{"bufferView": 0, "componentType": 5126, "count": 112, "type": "VEC3", "min": [-0.5034537887573243, -0.016097944974899293, -0.057283849716186525], "max": [0.5327397537231445, 0.016097944974899293, 0.057283849716186525]}, {"bufferView": 1, "componentType": 5126, "count": 112, "type": "VEC3"}, {"bufferView": 2, "componentType": 5126, "count": 112, "type": "VEC2"}, {"bufferView": 3, "componentType": 5125, "count": 420, "type": "SCALAR"}], "bufferViews": [{"buffer": 0, "byteOffset": 0, "byteLength": 1344}, {"buffer": 0, "byteOffset": 1344, "byteLength": 1344}, {"buffer": 0, "byteOffset": 2688, "byteLength": 896}, {"buffer": 0, "byteOffset": 3584, "byteLength": 1680}], "images": [{"uri": "death_knight_blader_m00_wp.png"}], "samplers": [{"magFilter": 9729, "minFilter": 9987, "wrapS": 10497, "wrapT": 10497}], "textures": [{"source": 0, "sampler": 0}], "buffers": [{"uri": "death_knight_blader_m00_wp.bin", "byteLength": 5264}]}