{"asset": {"version": "2.0", "generator": "l2vzla char_pipeline (weapons, static psk)"}, "scene": 0, "scenes": [{"nodes": [0]}], "nodes": [{"name": "demon_fangs_m00_wp", "mesh": 0}], "meshes": [{"name": "demon_fangs_m00_wp", "primitives": [{"attributes": {"POSITION": 0, "NORMAL": 1, "TEXCOORD_0": 2}, "mode": 4, "indices": 3, "material": 0}]}], "materials": [{"name": "demon_fangs_m00_wp:material_0", "pbrMetallicRoughness": {"metallicFactor": 0.0, "roughnessFactor": 0.9, "baseColorTexture": {"index": 0}}, "doubleSided": true}], "accessors": [{"bufferView": 0, "componentType": 5126, "count": 103, "type": "VEC3", "min": [-0.07899307250976563, -0.020187568664550782, -0.0653019380569458], "max": [0.17796674728393555, 0.020083448886871337, 0.06538604259490967]}, {"bufferView": 1, "componentType": 5126, "count": 103, "type": "VEC3"}, {"bufferView": 2, "componentType": 5126, "count": 103, "type": "VEC2"}, {"bufferView": 3, "componentType": 5125, "count": 576, "type": "SCALAR"}], "bufferViews": [{"buffer": 0, "byteOffset": 0, "byteLength": 1236}, {"buffer": 0, "byteOffset": 1236, "byteLength": 1236}, {"buffer": 0, "byteOffset": 2472, "byteLength": 824}, {"buffer": 0, "byteOffset": 3296, "byteLength": 2304}], "images": [{"uri": "demon_fangs_m00_wp.png"}], "samplers": [{"magFilter": 9729, "minFilter": 9987, "wrapS": 10497, "wrapT": 10497}], "textures": [{"source": 0, "sampler": 0}], "buffers": [{"uri": "demon_fangs_m00_wp.bin", "byteLength": 5600}]}