{"asset": {"version": "2.0", "generator": "l2vzla char_pipeline (weapons, static psk)"}, "scene": 0, "scenes": [{"nodes": [0]}], "nodes": [{"name": "dirk_m00_wp", "mesh": 0}], "meshes": [{"name": "dirk_m00_wp", "primitives": [{"attributes": {"POSITION": 0, "NORMAL": 1, "TEXCOORD_0": 2}, "mode": 4, "indices": 3, "material": 0}]}], "materials": [{"name": "dirk_m00_wp:material_0", "pbrMetallicRoughness": {"metallicFactor": 0.0, "roughnessFactor": 0.9, "baseColorTexture": {"index": 0}}, "doubleSided": true}], "accessors": [{"bufferView": 0, "componentType": 5126, "count": 111, "type": "VEC3", "min": [-0.057033510208129884, -0.006663578152656556, -0.032163166999816896], "max": [0.12298072814941406, 0.007030556797981262, 0.03269277334213257]}, {"bufferView": 1, "componentType": 5126, "count": 111, "type": "VEC3"}, {"bufferView": 2, "componentType": 5126, "count": 111, "type": "VEC2"}, {"bufferView": 3, "componentType": 5125, "count": 396, "type": "SCALAR"}], "bufferViews": [{"buffer": 0, "byteOffset": 0, "byteLength": 1332}, {"buffer": 0, "byteOffset": 1332, "byteLength": 1332}, {"buffer": 0, "byteOffset": 2664, "byteLength": 888}, {"buffer": 0, "byteOffset": 3552, "byteLength": 1584}], "images": [{"uri": "dirk_m00_wp.png"}], "samplers": [{"magFilter": 9729, "minFilter": 9987, "wrapS": 10497, "wrapT": 10497}], "textures": [{"source": 0, "sampler": 0}], "buffers": [{"uri": "dirk_m00_wp.bin", "byteLength": 5136}]}