{"asset": {"version": "2.0", "generator": "l2vzla char_pipeline (weapons, static psk)"}, "scene": 0, "scenes": [{"nodes": [0]}], "nodes": [{"name": "divine_tome_m00_wp", "mesh": 0}], "meshes": [{"name": "divine_tome_m00_wp", "primitives": [{"attributes": {"POSITION": 0, "NORMAL": 1, "TEXCOORD_0": 2}, "mode": 4, "indices": 3, "material": 0}]}], "materials": [{"name": "divine_tome_m00_wp:material_0", "pbrMetallicRoughness": {"metallicFactor": 0.0, "roughnessFactor": 0.9, "baseColorTexture": {"index": 0}}, "doubleSided": true, "alphaMode": "MASK", "alphaCutoff": 0.5}], "accessors": [{"bufferView": 0, "componentType": 5126, "count": 118, "type": "VEC3", "min": [-0.13204395294189453, -0.00791511058807373, -0.019647338390350343], "max": [0.1195536994934082, 0.007948048114776611, 0.02000673532485962]}, {"bufferView": 1, "componentType": 5126, "count": 118, "type": "VEC3"}, {"bufferView": 2, "componentType": 5126, "count": 118, "type": "VEC2"}, {"bufferView": 3, "componentType": 5125, "count": 468, "type": "SCALAR"}], "bufferViews": [{"buffer": 0, "byteOffset": 0, "byteLength": 1416}, {"buffer": 0, "byteOffset": 1416, "byteLength": 1416}, {"buffer": 0, "byteOffset": 2832, "byteLength": 944}, {"buffer": 0, "byteOffset": 3776, "byteLength": 1872}], "images": [{"uri": "divine_tome_m00_wp.png"}], "samplers": [{"magFilter": 9729, "minFilter": 9987, "wrapS": 10497, "wrapT": 10497}], "textures": [{"source": 0, "sampler": 0}], "buffers": [{"uri": "divine_tome_m00_wp.bin", "byteLength": 5648}]}