{"asset": {"version": "2.0", "generator": "l2vzla char_pipeline (weapons, static psk)"}, "scene": 0, "scenes": [{"nodes": [0]}], "nodes": [{"name": "doll_knife_m00_wp", "mesh": 0}], "meshes": [{"name": "doll_knife_m00_wp", "primitives": [{"attributes": {"POSITION": 0, "NORMAL": 1, "TEXCOORD_0": 2}, "mode": 4, "indices": 3, "material": 0}]}], "materials": [{"name": "doll_knife_m00_wp:material_0", "pbrMetallicRoughness": {"metallicFactor": 0.0, "roughnessFactor": 0.9, "baseColorTexture": {"index": 0}}, "doubleSided": true, "alphaMode": "BLEND"}], "accessors": [{"bufferView": 0, "componentType": 5126, "count": 90, "type": "VEC3", "min": [-0.0438103199005127, -0.008142422437667846, -0.010111093521118164], "max": [0.12284090995788574, 0.008469799160957336, 0.04949169158935547]}, {"bufferView": 1, "componentType": 5126, "count": 90, "type": "VEC3"}, {"bufferView": 2, "componentType": 5126, "count": 90, "type": "VEC2"}, {"bufferView": 3, "componentType": 5125, "count": 348, "type": "SCALAR"}], "bufferViews": [{"buffer": 0, "byteOffset": 0, "byteLength": 1080}, {"buffer": 0, "byteOffset": 1080, "byteLength": 1080}, {"buffer": 0, "byteOffset": 2160, "byteLength": 720}, {"buffer": 0, "byteOffset": 2880, "byteLength": 1392}], "images": [{"uri": "doll_knife_m00_wp.png"}], "samplers": [{"magFilter": 9729, "minFilter": 9987, "wrapS": 10497, "wrapT": 10497}], "textures": [{"source": 0, "sampler": 0}], "buffers": [{"uri": "doll_knife_m00_wp.bin", "byteLength": 4272}]}