{"asset": {"version": "2.0", "generator": "l2vzla char_pipeline (weapons, static psk)"}, "scene": 0, "scenes": [{"nodes": [0]}], "nodes": [{"name": "duskk_shield_m00_sh", "mesh": 0}], "meshes": [{"name": "duskk_shield_m00_sh", "primitives": [{"attributes": {"POSITION": 0, "NORMAL": 1, "TEXCOORD_0": 2}, "mode": 4, "indices": 3, "material": 0}]}], "materials": [{"name": "duskk_shield_m00_sh:material_0", "pbrMetallicRoughness": {"metallicFactor": 0.0, "roughnessFactor": 0.9, "baseColorTexture": {"index": 0}}, "doubleSided": true, "alphaMode": "MASK", "alphaCutoff": 0.5}], "accessors": [{"bufferView": 0, "componentType": 5126, "count": 86, "type": "VEC3", "min": [-0.27159599304199217, -0.26742876052856446, -0.03152784585952759], "max": [0.44107749938964846, 0.27962629318237303, 0.07249038219451905]}, {"bufferView": 1, "componentType": 5126, "count": 86, "type": "VEC3"}, {"bufferView": 2, "componentType": 5126, "count": 86, "type": "VEC2"}, {"bufferView": 3, "componentType": 5125, "count": 354, "type": "SCALAR"}], "bufferViews": [{"buffer": 0, "byteOffset": 0, "byteLength": 1032}, {"buffer": 0, "byteOffset": 1032, "byteLength": 1032}, {"buffer": 0, "byteOffset": 2064, "byteLength": 688}, {"buffer": 0, "byteOffset": 2752, "byteLength": 1416}], "images": [{"uri": "duskk_shield_m00_sh.png"}], "samplers": [{"magFilter": 9729, "minFilter": 9987, "wrapS": 10497, "wrapT": 10497}], "textures": [{"source": 0, "sampler": 0}], "buffers": [{"uri": "duskk_shield_m00_sh.bin", "byteLength": 4168}]}