{"asset": {"version": "2.0", "generator": "l2vzla char_pipeline (weapons, static psk)"}, "scene": 0, "scenes": [{"nodes": [0]}], "nodes": [{"name": "dwarven_pike_m00_wp", "mesh": 0}], "meshes": [{"name": "dwarven_pike_m00_wp", "primitives": [{"attributes": {"POSITION": 0, "NORMAL": 1, "TEXCOORD_0": 2}, "mode": 4, "indices": 3, "material": 0}]}], "materials": [{"name": "dwarven_pike_m00_wp:material_0", "pbrMetallicRoughness": {"metallicFactor": 0.0, "roughnessFactor": 0.9, "baseColorTexture": {"index": 0}}, "doubleSided": true, "alphaMode": "MASK", "alphaCutoff": 0.5}], "accessors": [{"bufferView": 0, "componentType": 5126, "count": 111, "type": "VEC3", "min": [-0.19085029602050782, -0.007468997240066528, -0.05673670291900635], "max": [0.34862464904785156, 0.007468441724777222, 0.056831617355346684]}, {"bufferView": 1, "componentType": 5126, "count": 111, "type": "VEC3"}, {"bufferView": 2, "componentType": 5126, "count": 111, "type": "VEC2"}, {"bufferView": 3, "componentType": 5125, "count": 426, "type": "SCALAR"}], "bufferViews": [{"buffer": 0, "byteOffset": 0, "byteLength": 1332}, {"buffer": 0, "byteOffset": 1332, "byteLength": 1332}, {"buffer": 0, "byteOffset": 2664, "byteLength": 888}, {"buffer": 0, "byteOffset": 3552, "byteLength": 1704}], "images": [{"uri": "dwarven_pike_m00_wp.png"}], "samplers": [{"magFilter": 9729, "minFilter": 9987, "wrapS": 10497, "wrapT": 10497}], "textures": [{"source": 0, "sampler": 0}], "buffers": [{"uri": "dwarven_pike_m00_wp.bin", "byteLength": 5256}]}