{"asset": {"version": "2.0", "generator": "l2vzla char_pipeline (weapons, static psk)"}, "scene": 0, "scenes": [{"nodes": [0]}], "nodes": [{"name": "dwarven_trident_m00_wp", "mesh": 0}], "meshes": [{"name": "dwarven_trident_m00_wp", "primitives": [{"attributes": {"POSITION": 0, "NORMAL": 1, "TEXCOORD_0": 2}, "mode": 4, "indices": 3, "material": 0}]}], "materials": [{"name": "dwarven_trident_m00_wp:material_0", "pbrMetallicRoughness": {"metallicFactor": 0.0, "roughnessFactor": 0.9, "baseColorTexture": {"index": 0}}, "doubleSided": true}], "accessors": [{"bufferView": 0, "componentType": 5126, "count": 114, "type": "VEC3", "min": [-0.20468284606933596, -0.008617865443229676, -0.04305734157562256], "max": [0.36581275939941404, 0.008618036508560181, 0.041877455711364746]}, {"bufferView": 1, "componentType": 5126, "count": 114, "type": "VEC3"}, {"bufferView": 2, "componentType": 5126, "count": 114, "type": "VEC2"}, {"bufferView": 3, "componentType": 5125, "count": 540, "type": "SCALAR"}], "bufferViews": [{"buffer": 0, "byteOffset": 0, "byteLength": 1368}, {"buffer": 0, "byteOffset": 1368, "byteLength": 1368}, {"buffer": 0, "byteOffset": 2736, "byteLength": 912}, {"buffer": 0, "byteOffset": 3648, "byteLength": 2160}], "images": [{"uri": "dwarven_trident_m00_wp.png"}], "samplers": [{"magFilter": 9729, "minFilter": 9987, "wrapS": 10497, "wrapT": 10497}], "textures": [{"source": 0, "sampler": 0}], "buffers": [{"uri": "dwarven_trident_m00_wp.bin", "byteLength": 5808}]}