{"asset": {"version": "2.0", "generator": "l2vzla char_pipeline (weapons, static psk)"}, "scene": 0, "scenes": [{"nodes": [0]}], "nodes": [{"name": "elven_sword_m00_wp", "mesh": 0}], "meshes": [{"name": "elven_sword_m00_wp", "primitives": [{"attributes": {"POSITION": 0, "NORMAL": 1, "TEXCOORD_0": 2}, "mode": 4, "indices": 3, "material": 0}]}], "materials": [{"name": "elven_sword_m00_wp:material_0", "pbrMetallicRoughness": {"metallicFactor": 0.0, "roughnessFactor": 0.9, "baseColorTexture": {"index": 0}}, "doubleSided": true, "alphaMode": "MASK", "alphaCutoff": 0.5}], "accessors": [{"bufferView": 0, "componentType": 5126, "count": 52, "type": "VEC3", "min": [-0.06265080451965332, -0.005642116069793701, -0.023316574096679688], "max": [0.2713526916503906, 0.00588478147983551, 0.022804856300354004]}, {"bufferView": 1, "componentType": 5126, "count": 52, "type": "VEC3"}, {"bufferView": 2, "componentType": 5126, "count": 52, "type": "VEC2"}, {"bufferView": 3, "componentType": 5125, "count": 276, "type": "SCALAR"}], "bufferViews": [{"buffer": 0, "byteOffset": 0, "byteLength": 624}, {"buffer": 0, "byteOffset": 624, "byteLength": 624}, {"buffer": 0, "byteOffset": 1248, "byteLength": 416}, {"buffer": 0, "byteOffset": 1664, "byteLength": 1104}], "images": [{"uri": "elven_sword_m00_wp.png"}], "samplers": [{"magFilter": 9729, "minFilter": 9987, "wrapS": 10497, "wrapT": 10497}], "textures": [{"source": 0, "sampler": 0}], "buffers": [{"uri": "elven_sword_m00_wp.bin", "byteLength": 2768}]}