{"asset": {"version": "2.0", "generator": "l2vzla char_pipeline (weapons, static psk)"}, "scene": 0, "scenes": [{"nodes": [0]}], "nodes": [{"name": "elven_long_sword_m00_wp", "mesh": 0}], "meshes": [{"name": "elven_long_sword_m00_wp", "primitives": [{"attributes": {"POSITION": 0, "NORMAL": 1, "TEXCOORD_0": 2}, "mode": 4, "indices": 3, "material": 0}]}], "materials": [{"name": "elven_long_sword_m00_wp:material_0", "pbrMetallicRoughness": {"metallicFactor": 0.0, "roughnessFactor": 0.9, "baseColorTexture": {"index": 0}}, "doubleSided": true, "alphaMode": "MASK", "alphaCutoff": 0.5}], "accessors": [{"bufferView": 0, "componentType": 5126, "count": 104, "type": "VEC3", "min": [-0.0683491849899292, -0.010388789176940917, -0.048583669662475584], "max": [0.30111879348754883, 0.010211886167526244, 0.04854020595550537]}, {"bufferView": 1, "componentType": 5126, "count": 104, "type": "VEC3"}, {"bufferView": 2, "componentType": 5126, "count": 104, "type": "VEC2"}, {"bufferView": 3, "componentType": 5125, "count": 528, "type": "SCALAR"}], "bufferViews": [{"buffer": 0, "byteOffset": 0, "byteLength": 1248}, {"buffer": 0, "byteOffset": 1248, "byteLength": 1248}, {"buffer": 0, "byteOffset": 2496, "byteLength": 832}, {"buffer": 0, "byteOffset": 3328, "byteLength": 2112}], "images": [{"uri": "elven_long_sword_m00_wp.png"}], "samplers": [{"magFilter": 9729, "minFilter": 9987, "wrapS": 10497, "wrapT": 10497}], "textures": [{"source": 0, "sampler": 0}], "buffers": [{"uri": "elven_long_sword_m00_wp.bin", "byteLength": 5440}]}