{"asset": {"version": "2.0", "generator": "l2vzla char_pipeline (weapons, static psk)"}, "scene": 0, "scenes": [{"nodes": [0]}], "nodes": [{"name": "falchion_m00_wp", "mesh": 0}], "meshes": [{"name": "falchion_m00_wp", "primitives": [{"attributes": {"POSITION": 0, "NORMAL": 1, "TEXCOORD_0": 2}, "mode": 4, "indices": 3, "material": 0}]}], "materials": [{"name": "falchion_m00_wp:material_0", "pbrMetallicRoughness": {"metallicFactor": 0.0, "roughnessFactor": 0.9, "baseColorTexture": {"index": 0}}, "doubleSided": true}], "accessors": [{"bufferView": 0, "componentType": 5126, "count": 108, "type": "VEC3", "min": [-0.07039288520812989, -0.017515193223953247, -0.02765442371368408], "max": [0.2653779983520508, 0.018929567337036133, 0.023643312454223634]}, {"bufferView": 1, "componentType": 5126, "count": 108, "type": "VEC3"}, {"bufferView": 2, "componentType": 5126, "count": 108, "type": "VEC2"}, {"bufferView": 3, "componentType": 5125, "count": 336, "type": "SCALAR"}], "bufferViews": [{"buffer": 0, "byteOffset": 0, "byteLength": 1296}, {"buffer": 0, "byteOffset": 1296, "byteLength": 1296}, {"buffer": 0, "byteOffset": 2592, "byteLength": 864}, {"buffer": 0, "byteOffset": 3456, "byteLength": 1344}], "images": [{"uri": "falchion_m00_wp.png"}], "samplers": [{"magFilter": 9729, "minFilter": 9987, "wrapS": 10497, "wrapT": 10497}], "textures": [{"source": 0, "sampler": 0}], "buffers": [{"uri": "falchion_m00_wp.bin", "byteLength": 4800}]}