{"asset": {"version": "2.0", "generator": "l2vzla char_pipeline (weapons, static psk)"}, "scene": 0, "scenes": [{"nodes": [0]}], "nodes": [{"name": "fishing_rod_m00_wp", "mesh": 0}], "meshes": [{"name": "fishing_rod_m00_wp", "primitives": [{"attributes": {"POSITION": 0, "NORMAL": 1, "TEXCOORD_0": 2}, "mode": 4, "indices": 3, "material": 0}]}], "materials": [{"name": "fishing_rod_m00_wp:material_0", "pbrMetallicRoughness": {"metallicFactor": 0.0, "roughnessFactor": 0.9, "baseColorTexture": {"index": 0}}, "doubleSided": true}], "accessors": [{"bufferView": 0, "componentType": 5126, "count": 61, "type": "VEC3", "min": [-0.06772395610809326, -0.005462822318077087, -0.005566670894622803], "max": [0.9423628997802734, 0.004178185462951661, 0.005707329511642456]}, {"bufferView": 1, "componentType": 5126, "count": 61, "type": "VEC3"}, {"bufferView": 2, "componentType": 5126, "count": 61, "type": "VEC2"}, {"bufferView": 3, "componentType": 5125, "count": 246, "type": "SCALAR"}], "bufferViews": [{"buffer": 0, "byteOffset": 0, "byteLength": 732}, {"buffer": 0, "byteOffset": 732, "byteLength": 732}, {"buffer": 0, "byteOffset": 1464, "byteLength": 488}, {"buffer": 0, "byteOffset": 1952, "byteLength": 984}], "images": [{"uri": "fishing_rod_m00_wp.png"}], "samplers": [{"magFilter": 9729, "minFilter": 9987, "wrapS": 10497, "wrapT": 10497}], "textures": [{"source": 0, "sampler": 0}], "buffers": [{"uri": "fishing_rod_m00_wp.bin", "byteLength": 2936}]}