{"asset": {"version": "2.0", "generator": "l2vzla char_pipeline (weapons, static psk)"}, "scene": 0, "scenes": [{"nodes": [0]}], "nodes": [{"name": "flower_m00", "mesh": 0}], "meshes": [{"name": "flower_m00", "primitives": [{"attributes": {"POSITION": 0, "NORMAL": 1, "TEXCOORD_0": 2}, "mode": 4, "indices": 3, "material": 0}]}], "materials": [{"name": "flower_m00:material_0", "pbrMetallicRoughness": {"metallicFactor": 0.0, "roughnessFactor": 0.9, "baseColorFactor": [0.7, 0.6, 0.55, 1.0]}, "doubleSided": true}], "accessors": [{"bufferView": 0, "componentType": 5126, "count": 86, "type": "VEC3", "min": [-0.2625651168823242, -0.2740299224853516, -0.023323459625244142], "max": [0.45010837554931643, 0.27302513122558597, 0.08069478034973145]}, {"bufferView": 1, "componentType": 5126, "count": 86, "type": "VEC3"}, {"bufferView": 2, "componentType": 5126, "count": 86, "type": "VEC2"}, {"bufferView": 3, "componentType": 5125, "count": 354, "type": "SCALAR"}], "bufferViews": [{"buffer": 0, "byteOffset": 0, "byteLength": 1032}, {"buffer": 0, "byteOffset": 1032, "byteLength": 1032}, {"buffer": 0, "byteOffset": 2064, "byteLength": 688}, {"buffer": 0, "byteOffset": 2752, "byteLength": 1416}], "buffers": [{"uri": "flower_m00.bin", "byteLength": 4168}]}