{"asset": {"version": "2.0", "generator": "l2vzla char_pipeline (weapons, static psk)"}, "scene": 0, "scenes": [{"nodes": [0]}], "nodes": [{"name": "gastraphetes_m00_wp", "mesh": 0}], "meshes": [{"name": "gastraphetes_m00_wp", "primitives": [{"attributes": {"POSITION": 0, "NORMAL": 1, "TEXCOORD_0": 2}, "mode": 4, "indices": 3, "material": 0}]}], "materials": [{"name": "gastraphetes_m00_wp:material_0", "pbrMetallicRoughness": {"metallicFactor": 0.0, "roughnessFactor": 0.9, "baseColorTexture": {"index": 0}}, "doubleSided": true, "alphaMode": "MASK", "alphaCutoff": 0.5}], "accessors": [{"bufferView": 0, "componentType": 5126, "count": 133, "type": "VEC3", "min": [-0.24404582977294922, -0.008798038363456726, -0.12261433601379394], "max": [0.20599107742309572, 0.009157683253288269, 0.050326991081237796]}, {"bufferView": 1, "componentType": 5126, "count": 133, "type": "VEC3"}, {"bufferView": 2, "componentType": 5126, "count": 133, "type": "VEC2"}, {"bufferView": 3, "componentType": 5125, "count": 672, "type": "SCALAR"}], "bufferViews": [{"buffer": 0, "byteOffset": 0, "byteLength": 1596}, {"buffer": 0, "byteOffset": 1596, "byteLength": 1596}, {"buffer": 0, "byteOffset": 3192, "byteLength": 1064}, {"buffer": 0, "byteOffset": 4256, "byteLength": 2688}], "images": [{"uri": "gastraphetes_m00_wp.png"}], "samplers": [{"magFilter": 9729, "minFilter": 9987, "wrapS": 10497, "wrapT": 10497}], "textures": [{"source": 0, "sampler": 0}], "buffers": [{"uri": "gastraphetes_m00_wp.bin", "byteLength": 6944}]}