{"asset": {"version": "2.0", "generator": "l2vzla char_pipeline (weapons, static psk)"}, "scene": 0, "scenes": [{"nodes": [0]}], "nodes": [{"name": "ghost_staff_m00_wp", "mesh": 0}], "meshes": [{"name": "ghost_staff_m00_wp", "primitives": [{"attributes": {"POSITION": 0, "NORMAL": 1, "TEXCOORD_0": 2}, "mode": 4, "indices": 3, "material": 0}]}], "materials": [{"name": "ghost_staff_m00_wp:material_0", "pbrMetallicRoughness": {"metallicFactor": 0.0, "roughnessFactor": 0.9, "baseColorTexture": {"index": 0}}, "doubleSided": true}], "accessors": [{"bufferView": 0, "componentType": 5126, "count": 100, "type": "VEC3", "min": [-0.11001771926879883, -0.024751298427581787, -0.02506365776062012], "max": [0.3318230819702149, 0.025136051177978517, 0.02482370376586914]}, {"bufferView": 1, "componentType": 5126, "count": 100, "type": "VEC3"}, {"bufferView": 2, "componentType": 5126, "count": 100, "type": "VEC2"}, {"bufferView": 3, "componentType": 5125, "count": 444, "type": "SCALAR"}], "bufferViews": [{"buffer": 0, "byteOffset": 0, "byteLength": 1200}, {"buffer": 0, "byteOffset": 1200, "byteLength": 1200}, {"buffer": 0, "byteOffset": 2400, "byteLength": 800}, {"buffer": 0, "byteOffset": 3200, "byteLength": 1776}], "images": [{"uri": "ghost_staff_m00_wp.png"}], "samplers": [{"magFilter": 9729, "minFilter": 9987, "wrapS": 10497, "wrapT": 10497}], "textures": [{"source": 0, "sampler": 0}], "buffers": [{"uri": "ghost_staff_m00_wp.bin", "byteLength": 4976}]}