{"asset": {"version": "2.0", "generator": "l2vzla char_pipeline (weapons, static psk)"}, "scene": 0, "scenes": [{"nodes": [0]}], "nodes": [{"name": "giants_sword_m00_wp", "mesh": 0}], "meshes": [{"name": "giants_sword_m00_wp", "primitives": [{"attributes": {"POSITION": 0, "NORMAL": 1, "TEXCOORD_0": 2}, "mode": 4, "indices": 3, "material": 0}]}], "materials": [{"name": "giants_sword_m00_wp:material_0", "pbrMetallicRoughness": {"metallicFactor": 0.0, "roughnessFactor": 0.9, "baseColorTexture": {"index": 0}}, "doubleSided": true, "alphaMode": "MASK", "alphaCutoff": 0.5}], "accessors": [{"bufferView": 0, "componentType": 5126, "count": 88, "type": "VEC3", "min": [-0.11217469215393067, -0.007758552432060242, -0.04584362030029297], "max": [0.35312480926513673, 0.007426182627677917, 0.04524726867675782]}, {"bufferView": 1, "componentType": 5126, "count": 88, "type": "VEC3"}, {"bufferView": 2, "componentType": 5126, "count": 88, "type": "VEC2"}, {"bufferView": 3, "componentType": 5125, "count": 495, "type": "SCALAR"}], "bufferViews": [{"buffer": 0, "byteOffset": 0, "byteLength": 1056}, {"buffer": 0, "byteOffset": 1056, "byteLength": 1056}, {"buffer": 0, "byteOffset": 2112, "byteLength": 704}, {"buffer": 0, "byteOffset": 2816, "byteLength": 1980}], "images": [{"uri": "giants_sword_m00_wp.png"}], "samplers": [{"magFilter": 9729, "minFilter": 9987, "wrapS": 10497, "wrapT": 10497}], "textures": [{"source": 0, "sampler": 0}], "buffers": [{"uri": "giants_sword_m00_wp.bin", "byteLength": 4796}]}