{"asset": {"version": "2.0", "generator": "l2vzla char_pipeline (weapons, static psk)"}, "scene": 0, "scenes": [{"nodes": [0]}], "nodes": [{"name": "giants_hammer_m00_wp", "mesh": 0}], "meshes": [{"name": "giants_hammer_m00_wp", "primitives": [{"attributes": {"POSITION": 0, "NORMAL": 1, "TEXCOORD_0": 2}, "mode": 4, "indices": 3, "material": 0}]}], "materials": [{"name": "giants_hammer_m00_wp:material_0", "pbrMetallicRoughness": {"metallicFactor": 0.0, "roughnessFactor": 0.9, "baseColorTexture": {"index": 0}}, "doubleSided": true, "alphaMode": "BLEND"}], "accessors": [{"bufferView": 0, "componentType": 5126, "count": 173, "type": "VEC3", "min": [-0.12834997177124025, -0.03604898452758789, -0.06366533279418946], "max": [0.281004695892334, 0.03605653524398804, 0.06325690746307373]}, {"bufferView": 1, "componentType": 5126, "count": 173, "type": "VEC3"}, {"bufferView": 2, "componentType": 5126, "count": 173, "type": "VEC2"}, {"bufferView": 3, "componentType": 5125, "count": 474, "type": "SCALAR"}], "bufferViews": [{"buffer": 0, "byteOffset": 0, "byteLength": 2076}, {"buffer": 0, "byteOffset": 2076, "byteLength": 2076}, {"buffer": 0, "byteOffset": 4152, "byteLength": 1384}, {"buffer": 0, "byteOffset": 5536, "byteLength": 1896}], "images": [{"uri": "giants_hammer_m00_wp.png"}], "samplers": [{"magFilter": 9729, "minFilter": 9987, "wrapS": 10497, "wrapT": 10497}], "textures": [{"source": 0, "sampler": 0}], "buffers": [{"uri": "giants_hammer_m00_wp.bin", "byteLength": 7432}]}