{"asset": {"version": "2.0", "generator": "l2vzla char_pipeline (weapons, static psk)"}, "scene": 0, "scenes": [{"nodes": [0]}], "nodes": [{"name": "giant_rod_m00_wp", "mesh": 0}], "meshes": [{"name": "giant_rod_m00_wp", "primitives": [{"attributes": {"POSITION": 0, "NORMAL": 1, "TEXCOORD_0": 2}, "mode": 4, "indices": 3, "material": 0}]}], "materials": [{"name": "giant_rod_m00_wp:material_0", "pbrMetallicRoughness": {"metallicFactor": 0.0, "roughnessFactor": 0.9, "baseColorTexture": {"index": 0}}, "doubleSided": true}], "accessors": [{"bufferView": 0, "componentType": 5126, "count": 89, "type": "VEC3", "min": [-0.17708139419555666, -0.06178426742553711, -0.03941651821136475], "max": [0.7636371612548828, 0.03749431133270264, 0.07333779335021973]}, {"bufferView": 1, "componentType": 5126, "count": 89, "type": "VEC3"}, {"bufferView": 2, "componentType": 5126, "count": 89, "type": "VEC2"}, {"bufferView": 3, "componentType": 5125, "count": 228, "type": "SCALAR"}], "bufferViews": [{"buffer": 0, "byteOffset": 0, "byteLength": 1068}, {"buffer": 0, "byteOffset": 1068, "byteLength": 1068}, {"buffer": 0, "byteOffset": 2136, "byteLength": 712}, {"buffer": 0, "byteOffset": 2848, "byteLength": 912}], "images": [{"uri": "giant_rod_m00_wp.png"}], "samplers": [{"magFilter": 9729, "minFilter": 9987, "wrapS": 10497, "wrapT": 10497}], "textures": [{"source": 0, "sampler": 0}], "buffers": [{"uri": "giant_rod_m00_wp.bin", "byteLength": 3760}]}