{"asset": {"version": "2.0", "generator": "l2vzla char_pipeline (weapons, static psk)"}, "scene": 0, "scenes": [{"nodes": [0]}], "nodes": [{"name": "gladius_m00_wp", "mesh": 0}], "meshes": [{"name": "gladius_m00_wp", "primitives": [{"attributes": {"POSITION": 0, "NORMAL": 1, "TEXCOORD_0": 2}, "mode": 4, "indices": 3, "material": 0}]}], "materials": [{"name": "gladius_m00_wp:material_0", "pbrMetallicRoughness": {"metallicFactor": 0.0, "roughnessFactor": 0.9, "baseColorTexture": {"index": 0}}, "doubleSided": true}], "accessors": [{"bufferView": 0, "componentType": 5126, "count": 97, "type": "VEC3", "min": [-0.06227066516876221, -0.015656068325042724, -0.02475972890853882], "max": [0.24912494659423828, 0.015994858741760255, 0.024385948181152344]}, {"bufferView": 1, "componentType": 5126, "count": 97, "type": "VEC3"}, {"bufferView": 2, "componentType": 5126, "count": 97, "type": "VEC2"}, {"bufferView": 3, "componentType": 5125, "count": 303, "type": "SCALAR"}], "bufferViews": [{"buffer": 0, "byteOffset": 0, "byteLength": 1164}, {"buffer": 0, "byteOffset": 1164, "byteLength": 1164}, {"buffer": 0, "byteOffset": 2328, "byteLength": 776}, {"buffer": 0, "byteOffset": 3104, "byteLength": 1212}], "images": [{"uri": "gladius_m00_wp.png"}], "samplers": [{"magFilter": 9729, "minFilter": 9987, "wrapS": 10497, "wrapT": 10497}], "textures": [{"source": 0, "sampler": 0}], "buffers": [{"uri": "gladius_m00_wp.bin", "byteLength": 4316}]}