{"asset": {"version": "2.0", "generator": "l2vzla char_pipeline (weapons, static psk)"}, "scene": 0, "scenes": [{"nodes": [0]}], "nodes": [{"name": "glaive_m00_wp", "mesh": 0}], "meshes": [{"name": "glaive_m00_wp", "primitives": [{"attributes": {"POSITION": 0, "NORMAL": 1, "TEXCOORD_0": 2}, "mode": 4, "indices": 3, "material": 0}]}], "materials": [{"name": "glaive_m00_wp:material_0", "pbrMetallicRoughness": {"metallicFactor": 0.0, "roughnessFactor": 0.9, "baseColorTexture": {"index": 0}}, "doubleSided": true, "alphaMode": "MASK", "alphaCutoff": 0.5}], "accessors": [{"bufferView": 0, "componentType": 5126, "count": 164, "type": "VEC3", "min": [-0.17474609375, -0.02979527235031128, -0.040998106002807615], "max": [0.3855172348022461, 0.030205867290496825, 0.05307185649871826]}, {"bufferView": 1, "componentType": 5126, "count": 164, "type": "VEC3"}, {"bufferView": 2, "componentType": 5126, "count": 164, "type": "VEC2"}, {"bufferView": 3, "componentType": 5125, "count": 399, "type": "SCALAR"}], "bufferViews": [{"buffer": 0, "byteOffset": 0, "byteLength": 1968}, {"buffer": 0, "byteOffset": 1968, "byteLength": 1968}, {"buffer": 0, "byteOffset": 3936, "byteLength": 1312}, {"buffer": 0, "byteOffset": 5248, "byteLength": 1596}], "images": [{"uri": "glaive_m00_wp.png"}], "samplers": [{"magFilter": 9729, "minFilter": 9987, "wrapS": 10497, "wrapT": 10497}], "textures": [{"source": 0, "sampler": 0}], "buffers": [{"uri": "glaive_m00_wp.bin", "byteLength": 6844}]}