{"asset": {"version": "2.0", "generator": "l2vzla char_pipeline (weapons, static psk)"}, "scene": 0, "scenes": [{"nodes": [0]}], "nodes": [{"name": "goathead_staff_m00_wp", "mesh": 0}], "meshes": [{"name": "goathead_staff_m00_wp", "primitives": [{"attributes": {"POSITION": 0, "NORMAL": 1, "TEXCOORD_0": 2}, "mode": 4, "indices": 3, "material": 0}]}], "materials": [{"name": "goathead_staff_m00_wp:material_0", "pbrMetallicRoughness": {"metallicFactor": 0.0, "roughnessFactor": 0.9, "baseColorTexture": {"index": 0}}, "doubleSided": true}], "accessors": [{"bufferView": 0, "componentType": 5126, "count": 104, "type": "VEC3", "min": [-0.09554680824279785, -0.016089128255844118, -0.0057947635650634766], "max": [0.3065264129638672, 0.017995030879974366, 0.04121302127838135]}, {"bufferView": 1, "componentType": 5126, "count": 104, "type": "VEC3"}, {"bufferView": 2, "componentType": 5126, "count": 104, "type": "VEC2"}, {"bufferView": 3, "componentType": 5125, "count": 444, "type": "SCALAR"}], "bufferViews": [{"buffer": 0, "byteOffset": 0, "byteLength": 1248}, {"buffer": 0, "byteOffset": 1248, "byteLength": 1248}, {"buffer": 0, "byteOffset": 2496, "byteLength": 832}, {"buffer": 0, "byteOffset": 3328, "byteLength": 1776}], "images": [{"uri": "goathead_staff_m00_wp.png"}], "samplers": [{"magFilter": 9729, "minFilter": 9987, "wrapS": 10497, "wrapT": 10497}], "textures": [{"source": 0, "sampler": 0}], "buffers": [{"uri": "goathead_staff_m00_wp.bin", "byteLength": 5104}]}