{"asset": {"version": "2.0", "generator": "l2vzla char_pipeline (weapons, static psk)"}, "scene": 0, "scenes": [{"nodes": [0]}], "nodes": [{"name": "guard_spear_m00_wp", "mesh": 0}], "meshes": [{"name": "guard_spear_m00_wp", "primitives": [{"attributes": {"POSITION": 0, "NORMAL": 1, "TEXCOORD_0": 2}, "mode": 4, "indices": 3, "material": 0}]}], "materials": [{"name": "guard_spear_m00_wp:material_0", "pbrMetallicRoughness": {"metallicFactor": 0.0, "roughnessFactor": 0.9, "baseColorTexture": {"index": 0}}, "doubleSided": true, "alphaMode": "MASK", "alphaCutoff": 0.5}], "accessors": [{"bufferView": 0, "componentType": 5126, "count": 138, "type": "VEC3", "min": [-0.3447416687011719, -0.0073338901996612554, -0.07619472026824951], "max": [0.3433790969848633, 0.00881133258342743, 0.048968353271484376]}, {"bufferView": 1, "componentType": 5126, "count": 138, "type": "VEC3"}, {"bufferView": 2, "componentType": 5126, "count": 138, "type": "VEC2"}, {"bufferView": 3, "componentType": 5125, "count": 399, "type": "SCALAR"}], "bufferViews": [{"buffer": 0, "byteOffset": 0, "byteLength": 1656}, {"buffer": 0, "byteOffset": 1656, "byteLength": 1656}, {"buffer": 0, "byteOffset": 3312, "byteLength": 1104}, {"buffer": 0, "byteOffset": 4416, "byteLength": 1596}], "images": [{"uri": "guard_spear_m00_wp.png"}], "samplers": [{"magFilter": 9729, "minFilter": 9987, "wrapS": 10497, "wrapT": 10497}], "textures": [{"source": 0, "sampler": 0}], "buffers": [{"uri": "guard_spear_m00_wp.bin", "byteLength": 6012}]}