{"asset": {"version": "2.0", "generator": "l2vzla char_pipeline (weapons, static psk)"}, "scene": 0, "scenes": [{"nodes": [0]}], "nodes": [{"name": "hammer_in_flames_m00_wp", "mesh": 0}], "meshes": [{"name": "hammer_in_flames_m00_wp", "primitives": [{"attributes": {"POSITION": 0, "NORMAL": 1, "TEXCOORD_0": 2}, "mode": 4, "indices": 3, "material": 0}]}], "materials": [{"name": "hammer_in_flames_m00_wp:material_0", "pbrMetallicRoughness": {"metallicFactor": 0.0, "roughnessFactor": 0.9, "baseColorTexture": {"index": 0}}, "doubleSided": true}], "accessors": [{"bufferView": 0, "componentType": 5126, "count": 183, "type": "VEC3", "min": [-0.11371990203857422, -0.022741222381591798, -0.04090752124786377], "max": [0.3376789093017578, 0.022697880268096923, 0.04064906120300293]}, {"bufferView": 1, "componentType": 5126, "count": 183, "type": "VEC3"}, {"bufferView": 2, "componentType": 5126, "count": 183, "type": "VEC2"}, {"bufferView": 3, "componentType": 5125, "count": 588, "type": "SCALAR"}], "bufferViews": [{"buffer": 0, "byteOffset": 0, "byteLength": 2196}, {"buffer": 0, "byteOffset": 2196, "byteLength": 2196}, {"buffer": 0, "byteOffset": 4392, "byteLength": 1464}, {"buffer": 0, "byteOffset": 5856, "byteLength": 2352}], "images": [{"uri": "hammer_in_flames_m00_wp.png"}], "samplers": [{"magFilter": 9729, "minFilter": 9987, "wrapS": 10497, "wrapT": 10497}], "textures": [{"source": 0, "sampler": 0}], "buffers": [{"uri": "hammer_in_flames_m00_wp.bin", "byteLength": 8208}]}