{"asset": {"version": "2.0", "generator": "l2vzla char_pipeline (weapons, static psk)"}, "scene": 0, "scenes": [{"nodes": [0]}], "nodes": [{"name": "heavy_mace_m00_wp", "mesh": 0}], "meshes": [{"name": "heavy_mace_m00_wp", "primitives": [{"attributes": {"POSITION": 0, "NORMAL": 1, "TEXCOORD_0": 2}, "mode": 4, "indices": 3, "material": 0}]}], "materials": [{"name": "heavy_mace_m00_wp:material_0", "pbrMetallicRoughness": {"metallicFactor": 0.0, "roughnessFactor": 0.9, "baseColorTexture": {"index": 0}}, "doubleSided": true}], "accessors": [{"bufferView": 0, "componentType": 5126, "count": 128, "type": "VEC3", "min": [-0.0778620958328247, -0.02569767951965332, -0.02700439453125], "max": [0.2224607276916504, 0.025375699996948244, 0.02809820890426636]}, {"bufferView": 1, "componentType": 5126, "count": 128, "type": "VEC3"}, {"bufferView": 2, "componentType": 5126, "count": 128, "type": "VEC2"}, {"bufferView": 3, "componentType": 5125, "count": 432, "type": "SCALAR"}], "bufferViews": [{"buffer": 0, "byteOffset": 0, "byteLength": 1536}, {"buffer": 0, "byteOffset": 1536, "byteLength": 1536}, {"buffer": 0, "byteOffset": 3072, "byteLength": 1024}, {"buffer": 0, "byteOffset": 4096, "byteLength": 1728}], "images": [{"uri": "heavy_mace_m00_wp.png"}], "samplers": [{"magFilter": 9729, "minFilter": 9987, "wrapS": 10497, "wrapT": 10497}], "textures": [{"source": 0, "sampler": 0}], "buffers": [{"uri": "heavy_mace_m00_wp.bin", "byteLength": 5824}]}