{"asset": {"version": "2.0", "generator": "l2vzla char_pipeline (weapons, static psk)"}, "scene": 0, "scenes": [{"nodes": [0]}], "nodes": [{"name": "heavy_chisel_m00_wp", "mesh": 0}], "meshes": [{"name": "heavy_chisel_m00_wp", "primitives": [{"attributes": {"POSITION": 0, "NORMAL": 1, "TEXCOORD_0": 2}, "mode": 4, "indices": 3, "material": 0}]}], "materials": [{"name": "heavy_chisel_m00_wp:material_0", "pbrMetallicRoughness": {"metallicFactor": 0.0, "roughnessFactor": 0.9, "baseColorTexture": {"index": 0}}, "doubleSided": true}], "accessors": [{"bufferView": 0, "componentType": 5126, "count": 54, "type": "VEC3", "min": [-0.0957852554321289, -0.00642595112323761, -0.05363747596740723], "max": [0.16905084609985352, 0.007435477972030639, 0.043091416358947754]}, {"bufferView": 1, "componentType": 5126, "count": 54, "type": "VEC3"}, {"bufferView": 2, "componentType": 5126, "count": 54, "type": "VEC2"}, {"bufferView": 3, "componentType": 5125, "count": 234, "type": "SCALAR"}], "bufferViews": [{"buffer": 0, "byteOffset": 0, "byteLength": 648}, {"buffer": 0, "byteOffset": 648, "byteLength": 648}, {"buffer": 0, "byteOffset": 1296, "byteLength": 432}, {"buffer": 0, "byteOffset": 1728, "byteLength": 936}], "images": [{"uri": "heavy_chisel_m00_wp.png"}], "samplers": [{"magFilter": 9729, "minFilter": 9987, "wrapS": 10497, "wrapT": 10497}], "textures": [{"source": 0, "sampler": 0}], "buffers": [{"uri": "heavy_chisel_m00_wp.bin", "byteLength": 2664}]}