{"asset": {"version": "2.0", "generator": "l2vzla char_pipeline (weapons, static psk)"}, "scene": 0, "scenes": [{"nodes": [0]}], "nodes": [{"name": "hoplon_m00_sh", "mesh": 0}], "meshes": [{"name": "hoplon_m00_sh", "primitives": [{"attributes": {"POSITION": 0, "NORMAL": 1, "TEXCOORD_0": 2}, "mode": 4, "indices": 3, "material": 0}, {"attributes": {"POSITION": 4, "NORMAL": 5, "TEXCOORD_0": 6}, "mode": 4, "indices": 7, "material": 1}]}], "materials": [{"name": "hoplon_m00_sh:material_0", "pbrMetallicRoughness": {"metallicFactor": 0.0, "roughnessFactor": 0.9, "baseColorTexture": {"index": 0}}, "doubleSided": true}, {"name": "hoplon_m00_sh:material_1", "pbrMetallicRoughness": {"metallicFactor": 0.0, "roughnessFactor": 0.9, "baseColorTexture": {"index": 1}}, "doubleSided": true}], "accessors": [{"bufferView": 0, "componentType": 5126, "count": 13, "type": "VEC3", "min": [-0.07578234672546387, -0.0630231523513794, -0.009504086971282959], "max": [0.14568342208862306, 0.06292824268341064, 0.013850904703140259]}, {"bufferView": 1, "componentType": 5126, "count": 13, "type": "VEC3"}, {"bufferView": 2, "componentType": 5126, "count": 13, "type": "VEC2"}, {"bufferView": 3, "componentType": 5125, "count": 36, "type": "SCALAR"}, {"bufferView": 4, "componentType": 5126, "count": 28, "type": "VEC3", "min": [-0.07578234672546387, -0.0630231523513794, -0.003135729730129242], "max": [0.14568342208862306, 0.06292824268341064, 0.01924917221069336]}, {"bufferView": 5, "componentType": 5126, "count": 28, "type": "VEC3"}, {"bufferView": 6, "componentType": 5126, "count": 28, "type": "VEC2"}, {"bufferView": 7, "componentType": 5125, "count": 108, "type": "SCALAR"}], "bufferViews": [{"buffer": 0, "byteOffset": 0, "byteLength": 156}, {"buffer": 0, "byteOffset": 156, "byteLength": 156}, {"buffer": 0, "byteOffset": 312, "byteLength": 104}, {"buffer": 0, "byteOffset": 416, "byteLength": 144}, {"buffer": 0, "byteOffset": 560, "byteLength": 336}, {"buffer": 0, "byteOffset": 896, "byteLength": 336}, {"buffer": 0, "byteOffset": 1232, "byteLength": 224}, {"buffer": 0, "byteOffset": 1456, "byteLength": 432}], "images": [{"uri": "hoplon_m00_sh_s0.png"}, {"uri": "hoplon_m00_sh_s1.png"}], "samplers": [{"magFilter": 9729, "minFilter": 9987, "wrapS": 10497, "wrapT": 10497}, {"magFilter": 9729, "minFilter": 9987, "wrapS": 10497, "wrapT": 10497}], "textures": [{"source": 0, "sampler": 0}, {"source": 1, "sampler": 1}], "buffers": [{"uri": "hoplon_m00_sh.bin", "byteLength": 1888}]}