{"asset": {"version": "2.0", "generator": "l2vzla char_pipeline (weapons, static psk)"}, "scene": 0, "scenes": [{"nodes": [0]}], "nodes": [{"name": "hunting_bow_m00_wp", "mesh": 0}], "meshes": [{"name": "hunting_bow_m00_wp", "primitives": [{"attributes": {"POSITION": 0, "NORMAL": 1, "TEXCOORD_0": 2}, "mode": 4, "indices": 3, "material": 0}]}], "materials": [{"name": "hunting_bow_m00_wp:material_0", "pbrMetallicRoughness": {"metallicFactor": 0.0, "roughnessFactor": 0.9, "baseColorTexture": {"index": 0}}, "doubleSided": true, "alphaMode": "MASK", "alphaCutoff": 0.5}], "accessors": [{"bufferView": 0, "componentType": 5126, "count": 119, "type": "VEC3", "min": [-0.17491443634033205, -0.010726786851882934, -0.07122656345367431], "max": [0.15655056953430177, 0.010853309631347657, 0.021677775382995607]}, {"bufferView": 1, "componentType": 5126, "count": 119, "type": "VEC3"}, {"bufferView": 2, "componentType": 5126, "count": 119, "type": "VEC2"}, {"bufferView": 3, "componentType": 5125, "count": 456, "type": "SCALAR"}], "bufferViews": [{"buffer": 0, "byteOffset": 0, "byteLength": 1428}, {"buffer": 0, "byteOffset": 1428, "byteLength": 1428}, {"buffer": 0, "byteOffset": 2856, "byteLength": 952}, {"buffer": 0, "byteOffset": 3808, "byteLength": 1824}], "images": [{"uri": "hunting_bow_m00_wp.png"}], "samplers": [{"magFilter": 9729, "minFilter": 9987, "wrapS": 10497, "wrapT": 10497}], "textures": [{"source": 0, "sampler": 0}], "buffers": [{"uri": "hunting_bow_m00_wp.bin", "byteLength": 5632}]}