{"asset": {"version": "2.0", "generator": "l2vzla char_pipeline (weapons, static psk)"}, "scene": 0, "scenes": [{"nodes": [0]}], "nodes": [{"name": "iron_hammer_m00_wp", "mesh": 0}], "meshes": [{"name": "iron_hammer_m00_wp", "primitives": [{"attributes": {"POSITION": 0, "NORMAL": 1, "TEXCOORD_0": 2}, "mode": 4, "indices": 3, "material": 0}]}], "materials": [{"name": "iron_hammer_m00_wp:material_0", "pbrMetallicRoughness": {"metallicFactor": 0.0, "roughnessFactor": 0.9, "baseColorTexture": {"index": 0}}, "doubleSided": true}], "accessors": [{"bufferView": 0, "componentType": 5126, "count": 162, "type": "VEC3", "min": [-0.051528310775756835, -0.012215204238891601, -0.04677792072296143], "max": [0.1506339454650879, 0.01244406819343567, 0.05100808620452881]}, {"bufferView": 1, "componentType": 5126, "count": 162, "type": "VEC3"}, {"bufferView": 2, "componentType": 5126, "count": 162, "type": "VEC2"}, {"bufferView": 3, "componentType": 5125, "count": 390, "type": "SCALAR"}], "bufferViews": [{"buffer": 0, "byteOffset": 0, "byteLength": 1944}, {"buffer": 0, "byteOffset": 1944, "byteLength": 1944}, {"buffer": 0, "byteOffset": 3888, "byteLength": 1296}, {"buffer": 0, "byteOffset": 5184, "byteLength": 1560}], "images": [{"uri": "iron_hammer_m00_wp.png"}], "samplers": [{"magFilter": 9729, "minFilter": 9987, "wrapS": 10497, "wrapT": 10497}], "textures": [{"source": 0, "sampler": 0}], "buffers": [{"uri": "iron_hammer_m00_wp.bin", "byteLength": 6744}]}