{"asset": {"version": "2.0", "generator": "l2vzla char_pipeline (weapons, static psk)"}, "scene": 0, "scenes": [{"nodes": [0]}], "nodes": [{"name": "iron_glove_m00_wp", "mesh": 0}], "meshes": [{"name": "iron_glove_m00_wp", "primitives": [{"attributes": {"POSITION": 0, "NORMAL": 1, "TEXCOORD_0": 2}, "mode": 4, "indices": 3, "material": 0}]}], "materials": [{"name": "iron_glove_m00_wp:material_0", "pbrMetallicRoughness": {"metallicFactor": 0.0, "roughnessFactor": 0.9, "baseColorTexture": {"index": 0}}, "doubleSided": true, "alphaMode": "MASK", "alphaCutoff": 0.5}], "accessors": [{"bufferView": 0, "componentType": 5126, "count": 86, "type": "VEC3", "min": [-0.026972460746765136, -0.003123697638511658, -0.027332053184509278], "max": [0.027102925777435304, 0.038503754138946536, 0.03289177894592285]}, {"bufferView": 1, "componentType": 5126, "count": 86, "type": "VEC3"}, {"bufferView": 2, "componentType": 5126, "count": 86, "type": "VEC2"}, {"bufferView": 3, "componentType": 5125, "count": 198, "type": "SCALAR"}], "bufferViews": [{"buffer": 0, "byteOffset": 0, "byteLength": 1032}, {"buffer": 0, "byteOffset": 1032, "byteLength": 1032}, {"buffer": 0, "byteOffset": 2064, "byteLength": 688}, {"buffer": 0, "byteOffset": 2752, "byteLength": 792}], "images": [{"uri": "iron_glove_m00_wp.png"}], "samplers": [{"magFilter": 9729, "minFilter": 9987, "wrapS": 10497, "wrapT": 10497}], "textures": [{"source": 0, "sampler": 0}], "buffers": [{"uri": "iron_glove_m00_wp.bin", "byteLength": 3544}]}