{"asset": {"version": "2.0", "generator": "l2vzla char_pipeline (weapons, static psk)"}, "scene": 0, "scenes": [{"nodes": [0]}], "nodes": [{"name": "knights_sword_m00_wp", "mesh": 0}], "meshes": [{"name": "knights_sword_m00_wp", "primitives": [{"attributes": {"POSITION": 0, "NORMAL": 1, "TEXCOORD_0": 2}, "mode": 4, "indices": 3, "material": 0}]}], "materials": [{"name": "knights_sword_m00_wp:material_0", "pbrMetallicRoughness": {"metallicFactor": 0.0, "roughnessFactor": 0.9, "baseColorTexture": {"index": 0}}, "doubleSided": true}], "accessors": [{"bufferView": 0, "componentType": 5126, "count": 174, "type": "VEC3", "min": [-0.08690725326538086, -0.007225524783134461, -0.06094415187835694], "max": [0.310474967956543, 0.007416172623634338, 0.06062332630157471]}, {"bufferView": 1, "componentType": 5126, "count": 174, "type": "VEC3"}, {"bufferView": 2, "componentType": 5126, "count": 174, "type": "VEC2"}, {"bufferView": 3, "componentType": 5125, "count": 474, "type": "SCALAR"}], "bufferViews": [{"buffer": 0, "byteOffset": 0, "byteLength": 2088}, {"buffer": 0, "byteOffset": 2088, "byteLength": 2088}, {"buffer": 0, "byteOffset": 4176, "byteLength": 1392}, {"buffer": 0, "byteOffset": 5568, "byteLength": 1896}], "images": [{"uri": "knights_sword_m00_wp.png"}], "samplers": [{"magFilter": 9729, "minFilter": 9987, "wrapS": 10497, "wrapT": 10497}], "textures": [{"source": 0, "sampler": 0}], "buffers": [{"uri": "knights_sword_m00_wp.bin", "byteLength": 7464}]}