{"asset": {"version": "2.0", "generator": "l2vzla char_pipeline (weapons, static psk)"}, "scene": 0, "scenes": [{"nodes": [0]}], "nodes": [{"name": "krono_bow_m00_wp", "mesh": 0}], "meshes": [{"name": "krono_bow_m00_wp", "primitives": [{"attributes": {"POSITION": 0, "NORMAL": 1, "TEXCOORD_0": 2}, "mode": 4, "indices": 3, "material": 0}]}], "materials": [{"name": "krono_bow_m00_wp:material_0", "pbrMetallicRoughness": {"metallicFactor": 0.0, "roughnessFactor": 0.9, "baseColorTexture": {"index": 0}}, "doubleSided": true}], "accessors": [{"bufferView": 0, "componentType": 5126, "count": 382, "type": "VEC3", "min": [-0.2223916244506836, -0.026642463207244872, -0.07978214740753174], "max": [0.20088108062744142, 0.026622934341430666, 0.03836601495742798]}, {"bufferView": 1, "componentType": 5126, "count": 382, "type": "VEC3"}, {"bufferView": 2, "componentType": 5126, "count": 382, "type": "VEC2"}, {"bufferView": 3, "componentType": 5125, "count": 2160, "type": "SCALAR"}], "bufferViews": [{"buffer": 0, "byteOffset": 0, "byteLength": 4584}, {"buffer": 0, "byteOffset": 4584, "byteLength": 4584}, {"buffer": 0, "byteOffset": 9168, "byteLength": 3056}, {"buffer": 0, "byteOffset": 12224, "byteLength": 8640}], "images": [{"uri": "krono_bow_m00_wp.png"}], "samplers": [{"magFilter": 9729, "minFilter": 9987, "wrapS": 10497, "wrapT": 10497}], "textures": [{"source": 0, "sampler": 0}], "buffers": [{"uri": "krono_bow_m00_wp.bin", "byteLength": 20864}]}