{"asset": {"version": "2.0", "generator": "l2vzla char_pipeline (weapons, static psk)"}, "scene": 0, "scenes": [{"nodes": [0]}], "nodes": [{"name": "ladys_fan_m00_wp", "mesh": 0}], "meshes": [{"name": "ladys_fan_m00_wp", "primitives": [{"attributes": {"POSITION": 0, "NORMAL": 1, "TEXCOORD_0": 2}, "mode": 4, "indices": 3, "material": 0}]}], "materials": [{"name": "ladys_fan_m00_wp:material_0", "pbrMetallicRoughness": {"metallicFactor": 0.0, "roughnessFactor": 0.9, "baseColorTexture": {"index": 0}}, "doubleSided": true, "alphaMode": "MASK", "alphaCutoff": 0.5}], "accessors": [{"bufferView": 0, "componentType": 5126, "count": 176, "type": "VEC3", "min": [-0.047839813232421875, -0.011182304620742798, -0.08599931716918946], "max": [0.12970341682434083, 0.01098578929901123, 0.0727215051651001]}, {"bufferView": 1, "componentType": 5126, "count": 176, "type": "VEC3"}, {"bufferView": 2, "componentType": 5126, "count": 176, "type": "VEC2"}, {"bufferView": 3, "componentType": 5125, "count": 696, "type": "SCALAR"}], "bufferViews": [{"buffer": 0, "byteOffset": 0, "byteLength": 2112}, {"buffer": 0, "byteOffset": 2112, "byteLength": 2112}, {"buffer": 0, "byteOffset": 4224, "byteLength": 1408}, {"buffer": 0, "byteOffset": 5632, "byteLength": 2784}], "images": [{"uri": "ladys_fan_m00_wp.png"}], "samplers": [{"magFilter": 9729, "minFilter": 9987, "wrapS": 10497, "wrapT": 10497}], "textures": [{"source": 0, "sampler": 0}], "buffers": [{"uri": "ladys_fan_m00_wp.bin", "byteLength": 8416}]}