{"asset": {"version": "2.0", "generator": "l2vzla char_pipeline (weapons, static psk)"}, "scene": 0, "scenes": [{"nodes": [0]}], "nodes": [{"name": "lancia_m00_wp", "mesh": 0}], "meshes": [{"name": "lancia_m00_wp", "primitives": [{"attributes": {"POSITION": 0, "NORMAL": 1, "TEXCOORD_0": 2}, "mode": 4, "indices": 3, "material": 0}]}], "materials": [{"name": "lancia_m00_wp:material_0", "pbrMetallicRoughness": {"metallicFactor": 0.0, "roughnessFactor": 0.9, "baseColorTexture": {"index": 0}}, "doubleSided": true, "alphaMode": "MASK", "alphaCutoff": 0.5}], "accessors": [{"bufferView": 0, "componentType": 5126, "count": 81, "type": "VEC3", "min": [-0.1896136283874512, -0.010290087461471557, -0.02253196954727173], "max": [0.43723430633544924, 0.011148921251296998, 0.023678913116455078]}, {"bufferView": 1, "componentType": 5126, "count": 81, "type": "VEC3"}, {"bufferView": 2, "componentType": 5126, "count": 81, "type": "VEC2"}, {"bufferView": 3, "componentType": 5125, "count": 396, "type": "SCALAR"}], "bufferViews": [{"buffer": 0, "byteOffset": 0, "byteLength": 972}, {"buffer": 0, "byteOffset": 972, "byteLength": 972}, {"buffer": 0, "byteOffset": 1944, "byteLength": 648}, {"buffer": 0, "byteOffset": 2592, "byteLength": 1584}], "images": [{"uri": "lancia_m00_wp.png"}], "samplers": [{"magFilter": 9729, "minFilter": 9987, "wrapS": 10497, "wrapT": 10497}], "textures": [{"source": 0, "sampler": 0}], "buffers": [{"uri": "lancia_m00_wp.bin", "byteLength": 4176}]}