{"asset": {"version": "2.0", "generator": "l2vzla char_pipeline (weapons, static psk)"}, "scene": 0, "scenes": [{"nodes": [0]}], "nodes": [{"name": "lizardspear_m00_wp", "mesh": 0}], "meshes": [{"name": "lizardspear_m00_wp", "primitives": [{"attributes": {"POSITION": 0, "NORMAL": 1, "TEXCOORD_0": 2}, "mode": 4, "indices": 3, "material": 0}]}], "materials": [{"name": "lizardspear_m00_wp:material_0", "pbrMetallicRoughness": {"metallicFactor": 0.0, "roughnessFactor": 0.9, "baseColorTexture": {"index": 0}}, "doubleSided": true, "alphaMode": "MASK", "alphaCutoff": 0.5}], "accessors": [{"bufferView": 0, "componentType": 5126, "count": 113, "type": "VEC3", "min": [-0.10233835220336915, -0.006359910964965821, -0.020482769012451173], "max": [0.3080244255065918, 0.006359910964965821, 0.00843484878540039]}, {"bufferView": 1, "componentType": 5126, "count": 113, "type": "VEC3"}, {"bufferView": 2, "componentType": 5126, "count": 113, "type": "VEC2"}, {"bufferView": 3, "componentType": 5125, "count": 324, "type": "SCALAR"}], "bufferViews": [{"buffer": 0, "byteOffset": 0, "byteLength": 1356}, {"buffer": 0, "byteOffset": 1356, "byteLength": 1356}, {"buffer": 0, "byteOffset": 2712, "byteLength": 904}, {"buffer": 0, "byteOffset": 3616, "byteLength": 1296}], "images": [{"uri": "lizardspear_m00_wp.png"}], "samplers": [{"magFilter": 9729, "minFilter": 9987, "wrapS": 10497, "wrapT": 10497}], "textures": [{"source": 0, "sampler": 0}], "buffers": [{"uri": "lizardspear_m00_wp.bin", "byteLength": 4912}]}