{"asset": {"version": "2.0", "generator": "l2vzla char_pipeline (weapons, static psk)"}, "scene": 0, "scenes": [{"nodes": [0]}], "nodes": [{"name": "long_bow_m00_wp", "mesh": 0}], "meshes": [{"name": "long_bow_m00_wp", "primitives": [{"attributes": {"POSITION": 0, "NORMAL": 1, "TEXCOORD_0": 2}, "mode": 4, "indices": 3, "material": 0}]}], "materials": [{"name": "long_bow_m00_wp:material_0", "pbrMetallicRoughness": {"metallicFactor": 0.0, "roughnessFactor": 0.9, "baseColorTexture": {"index": 0}}, "doubleSided": true}], "accessors": [{"bufferView": 0, "componentType": 5126, "count": 114, "type": "VEC3", "min": [-0.2330716896057129, -0.00460574597120285, -0.054204344749450684], "max": [0.2328498077392578, 0.004606048166751862, 0.023470914363861086]}, {"bufferView": 1, "componentType": 5126, "count": 114, "type": "VEC3"}, {"bufferView": 2, "componentType": 5126, "count": 114, "type": "VEC2"}, {"bufferView": 3, "componentType": 5125, "count": 672, "type": "SCALAR"}], "bufferViews": [{"buffer": 0, "byteOffset": 0, "byteLength": 1368}, {"buffer": 0, "byteOffset": 1368, "byteLength": 1368}, {"buffer": 0, "byteOffset": 2736, "byteLength": 912}, {"buffer": 0, "byteOffset": 3648, "byteLength": 2688}], "images": [{"uri": "long_bow_m00_wp.png"}], "samplers": [{"magFilter": 9729, "minFilter": 9987, "wrapS": 10497, "wrapT": 10497}], "textures": [{"source": 0, "sampler": 0}], "buffers": [{"uri": "long_bow_m00_wp.bin", "byteLength": 6336}]}