{"asset": {"version": "2.0", "generator": "l2vzla char_pipeline (weapons, static psk)"}, "scene": 0, "scenes": [{"nodes": [0]}], "nodes": [{"name": "long_spear_m00_wp", "mesh": 0}], "meshes": [{"name": "long_spear_m00_wp", "primitives": [{"attributes": {"POSITION": 0, "NORMAL": 1, "TEXCOORD_0": 2}, "mode": 4, "indices": 3, "material": 0}]}], "materials": [{"name": "long_spear_m00_wp:material_0", "pbrMetallicRoughness": {"metallicFactor": 0.0, "roughnessFactor": 0.9, "baseColorTexture": {"index": 0}}, "doubleSided": true}], "accessors": [{"bufferView": 0, "componentType": 5126, "count": 78, "type": "VEC3", "min": [-0.1665940475463867, -0.008381980657577516, -0.0160656476020813], "max": [0.3827846908569336, 0.007791556119918824, 0.015848612785339354]}, {"bufferView": 1, "componentType": 5126, "count": 78, "type": "VEC3"}, {"bufferView": 2, "componentType": 5126, "count": 78, "type": "VEC2"}, {"bufferView": 3, "componentType": 5125, "count": 408, "type": "SCALAR"}], "bufferViews": [{"buffer": 0, "byteOffset": 0, "byteLength": 936}, {"buffer": 0, "byteOffset": 936, "byteLength": 936}, {"buffer": 0, "byteOffset": 1872, "byteLength": 624}, {"buffer": 0, "byteOffset": 2496, "byteLength": 1632}], "images": [{"uri": "long_spear_m00_wp.png"}], "samplers": [{"magFilter": 9729, "minFilter": 9987, "wrapS": 10497, "wrapT": 10497}], "textures": [{"source": 0, "sampler": 0}], "buffers": [{"uri": "long_spear_m00_wp.bin", "byteLength": 4128}]}