{"asset": {"version": "2.0", "generator": "l2vzla char_pipeline (weapons, static psk)"}, "scene": 0, "scenes": [{"nodes": [0]}], "nodes": [{"name": "long_sword_m00_wp", "mesh": 0}], "meshes": [{"name": "long_sword_m00_wp", "primitives": [{"attributes": {"POSITION": 0, "NORMAL": 1, "TEXCOORD_0": 2}, "mode": 4, "indices": 3, "material": 0}]}], "materials": [{"name": "long_sword_m00_wp:material_0", "pbrMetallicRoughness": {"metallicFactor": 0.0, "roughnessFactor": 0.9, "baseColorTexture": {"index": 0}}, "doubleSided": true}], "accessors": [{"bufferView": 0, "componentType": 5126, "count": 114, "type": "VEC3", "min": [-0.06992351531982421, -0.009888697862625122, -0.05022432804107666], "max": [0.2493539619445801, 0.00920155942440033, 0.050150151252746585]}, {"bufferView": 1, "componentType": 5126, "count": 114, "type": "VEC3"}, {"bufferView": 2, "componentType": 5126, "count": 114, "type": "VEC2"}, {"bufferView": 3, "componentType": 5125, "count": 294, "type": "SCALAR"}], "bufferViews": [{"buffer": 0, "byteOffset": 0, "byteLength": 1368}, {"buffer": 0, "byteOffset": 1368, "byteLength": 1368}, {"buffer": 0, "byteOffset": 2736, "byteLength": 912}, {"buffer": 0, "byteOffset": 3648, "byteLength": 1176}], "images": [{"uri": "long_sword_m00_wp.png"}], "samplers": [{"magFilter": 9729, "minFilter": 9987, "wrapS": 10497, "wrapT": 10497}], "textures": [{"source": 0, "sampler": 0}], "buffers": [{"uri": "long_sword_m00_wp.bin", "byteLength": 4824}]}