{"asset": {"version": "2.0", "generator": "l2vzla char_pipeline (weapons, static psk)"}, "scene": 0, "scenes": [{"nodes": [0]}], "nodes": [{"name": "mace_of_priest_m00_wp", "mesh": 0}], "meshes": [{"name": "mace_of_priest_m00_wp", "primitives": [{"attributes": {"POSITION": 0, "NORMAL": 1, "TEXCOORD_0": 2}, "mode": 4, "indices": 3, "material": 0}]}], "materials": [{"name": "mace_of_priest_m00_wp:material_0", "pbrMetallicRoughness": {"metallicFactor": 0.0, "roughnessFactor": 0.9, "baseColorTexture": {"index": 0}}, "doubleSided": true}], "accessors": [{"bufferView": 0, "componentType": 5126, "count": 104, "type": "VEC3", "min": [-0.10912832260131836, -0.011322206258773804, -0.03735073804855347], "max": [0.21119245529174804, 0.011322200298309326, 0.03729420423507691]}, {"bufferView": 1, "componentType": 5126, "count": 104, "type": "VEC3"}, {"bufferView": 2, "componentType": 5126, "count": 104, "type": "VEC2"}, {"bufferView": 3, "componentType": 5125, "count": 516, "type": "SCALAR"}], "bufferViews": [{"buffer": 0, "byteOffset": 0, "byteLength": 1248}, {"buffer": 0, "byteOffset": 1248, "byteLength": 1248}, {"buffer": 0, "byteOffset": 2496, "byteLength": 832}, {"buffer": 0, "byteOffset": 3328, "byteLength": 2064}], "images": [{"uri": "mace_of_priest_m00_wp.png"}], "samplers": [{"magFilter": 9729, "minFilter": 9987, "wrapS": 10497, "wrapT": 10497}], "textures": [{"source": 0, "sampler": 0}], "buffers": [{"uri": "mace_of_priest_m00_wp.bin", "byteLength": 5392}]}