{"asset": {"version": "2.0", "generator": "l2vzla char_pipeline (weapons, static psk)"}, "scene": 0, "scenes": [{"nodes": [0]}], "nodes": [{"name": "mace_of_prayer_m00_wp", "mesh": 0}], "meshes": [{"name": "mace_of_prayer_m00_wp", "primitives": [{"attributes": {"POSITION": 0, "NORMAL": 1, "TEXCOORD_0": 2}, "mode": 4, "indices": 3, "material": 0}]}], "materials": [{"name": "mace_of_prayer_m00_wp:material_0", "pbrMetallicRoughness": {"metallicFactor": 0.0, "roughnessFactor": 0.9, "baseColorTexture": {"index": 0}}, "doubleSided": true, "alphaMode": "MASK", "alphaCutoff": 0.5}], "accessors": [{"bufferView": 0, "componentType": 5126, "count": 75, "type": "VEC3", "min": [-0.06187754154205322, -0.007288969159126282, -0.049148211479187014], "max": [0.20028873443603515, 0.007622784972190857, 0.048499956130981445]}, {"bufferView": 1, "componentType": 5126, "count": 75, "type": "VEC3"}, {"bufferView": 2, "componentType": 5126, "count": 75, "type": "VEC2"}, {"bufferView": 3, "componentType": 5125, "count": 336, "type": "SCALAR"}], "bufferViews": [{"buffer": 0, "byteOffset": 0, "byteLength": 900}, {"buffer": 0, "byteOffset": 900, "byteLength": 900}, {"buffer": 0, "byteOffset": 1800, "byteLength": 600}, {"buffer": 0, "byteOffset": 2400, "byteLength": 1344}], "images": [{"uri": "mace_of_prayer_m00_wp.png"}], "samplers": [{"magFilter": 9729, "minFilter": 9987, "wrapS": 10497, "wrapT": 10497}], "textures": [{"source": 0, "sampler": 0}], "buffers": [{"uri": "mace_of_prayer_m00_wp.bin", "byteLength": 3744}]}