{"asset": {"version": "2.0", "generator": "l2vzla char_pipeline (weapons, static psk)"}, "scene": 0, "scenes": [{"nodes": [0]}], "nodes": [{"name": "mace_of_miracle_m00_wp", "mesh": 0}], "meshes": [{"name": "mace_of_miracle_m00_wp", "primitives": [{"attributes": {"POSITION": 0, "NORMAL": 1, "TEXCOORD_0": 2}, "mode": 4, "indices": 3, "material": 0}]}], "materials": [{"name": "mace_of_miracle_m00_wp:material_0", "pbrMetallicRoughness": {"metallicFactor": 0.0, "roughnessFactor": 0.9, "baseColorTexture": {"index": 0}}, "doubleSided": true, "alphaMode": "MASK", "alphaCutoff": 0.5}], "accessors": [{"bufferView": 0, "componentType": 5126, "count": 107, "type": "VEC3", "min": [-0.04786839485168457, -0.032920455932617186, -0.032941105365753176], "max": [0.21491634368896484, 0.03292047500610352, 0.03289982080459595]}, {"bufferView": 1, "componentType": 5126, "count": 107, "type": "VEC3"}, {"bufferView": 2, "componentType": 5126, "count": 107, "type": "VEC2"}, {"bufferView": 3, "componentType": 5125, "count": 414, "type": "SCALAR"}], "bufferViews": [{"buffer": 0, "byteOffset": 0, "byteLength": 1284}, {"buffer": 0, "byteOffset": 1284, "byteLength": 1284}, {"buffer": 0, "byteOffset": 2568, "byteLength": 856}, {"buffer": 0, "byteOffset": 3424, "byteLength": 1656}], "images": [{"uri": "mace_of_miracle_m00_wp.png"}], "samplers": [{"magFilter": 9729, "minFilter": 9987, "wrapS": 10497, "wrapT": 10497}], "textures": [{"source": 0, "sampler": 0}], "buffers": [{"uri": "mace_of_miracle_m00_wp.bin", "byteLength": 5080}]}