{"asset": {"version": "2.0", "generator": "l2vzla char_pipeline (weapons, static psk)"}, "scene": 0, "scenes": [{"nodes": [0]}], "nodes": [{"name": "mace_of_judgment_m00_wp", "mesh": 0}], "meshes": [{"name": "mace_of_judgment_m00_wp", "primitives": [{"attributes": {"POSITION": 0, "NORMAL": 1, "TEXCOORD_0": 2}, "mode": 4, "indices": 3, "material": 0}]}], "materials": [{"name": "mace_of_judgment_m00_wp:material_0", "pbrMetallicRoughness": {"metallicFactor": 0.0, "roughnessFactor": 0.9, "baseColorTexture": {"index": 0}}, "doubleSided": true, "alphaMode": "MASK", "alphaCutoff": 0.5}], "accessors": [{"bufferView": 0, "componentType": 5126, "count": 74, "type": "VEC3", "min": [-0.07376034259796142, -0.02420571804046631, -0.02815264701843262], "max": [0.1896221160888672, 0.024886763095855715, 0.028234114646911623]}, {"bufferView": 1, "componentType": 5126, "count": 74, "type": "VEC3"}, {"bufferView": 2, "componentType": 5126, "count": 74, "type": "VEC2"}, {"bufferView": 3, "componentType": 5125, "count": 228, "type": "SCALAR"}], "bufferViews": [{"buffer": 0, "byteOffset": 0, "byteLength": 888}, {"buffer": 0, "byteOffset": 888, "byteLength": 888}, {"buffer": 0, "byteOffset": 1776, "byteLength": 592}, {"buffer": 0, "byteOffset": 2368, "byteLength": 912}], "images": [{"uri": "mace_of_judgment_m00_wp.png"}], "samplers": [{"magFilter": 9729, "minFilter": 9987, "wrapS": 10497, "wrapT": 10497}], "textures": [{"source": 0, "sampler": 0}], "buffers": [{"uri": "mace_of_judgment_m00_wp.bin", "byteLength": 3280}]}