{"asset": {"version": "2.0", "generator": "l2vzla char_pipeline (weapons, static psk)"}, "scene": 0, "scenes": [{"nodes": [0]}], "nodes": [{"name": "mace_m00_wp", "mesh": 0}], "meshes": [{"name": "mace_m00_wp", "primitives": [{"attributes": {"POSITION": 0, "NORMAL": 1, "TEXCOORD_0": 2}, "mode": 4, "indices": 3, "material": 0}]}], "materials": [{"name": "mace_m00_wp:material_0", "pbrMetallicRoughness": {"metallicFactor": 0.0, "roughnessFactor": 0.9, "baseColorTexture": {"index": 0}}, "doubleSided": true, "alphaMode": "MASK", "alphaCutoff": 0.5}], "accessors": [{"bufferView": 0, "componentType": 5126, "count": 68, "type": "VEC3", "min": [-0.06331402778625489, -0.023819191455841066, -0.02398890256881714], "max": [0.16894367218017578, 0.02201545476913452, 0.021374540328979494]}, {"bufferView": 1, "componentType": 5126, "count": 68, "type": "VEC3"}, {"bufferView": 2, "componentType": 5126, "count": 68, "type": "VEC2"}, {"bufferView": 3, "componentType": 5125, "count": 228, "type": "SCALAR"}], "bufferViews": [{"buffer": 0, "byteOffset": 0, "byteLength": 816}, {"buffer": 0, "byteOffset": 816, "byteLength": 816}, {"buffer": 0, "byteOffset": 1632, "byteLength": 544}, {"buffer": 0, "byteOffset": 2176, "byteLength": 912}], "images": [{"uri": "mace_m00_wp.png"}], "samplers": [{"magFilter": 9729, "minFilter": 9987, "wrapS": 10497, "wrapT": 10497}], "textures": [{"source": 0, "sampler": 0}], "buffers": [{"uri": "mace_m00_wp.bin", "byteLength": 3088}]}