{"asset": {"version": "2.0", "generator": "l2vzla char_pipeline (weapons, static psk)"}, "scene": 0, "scenes": [{"nodes": [0]}], "nodes": [{"name": "manaf_m00_wp", "mesh": 0}], "meshes": [{"name": "manaf_m00_wp", "primitives": [{"attributes": {"POSITION": 0, "NORMAL": 1, "TEXCOORD_0": 2}, "mode": 4, "indices": 3, "material": 0}]}], "materials": [{"name": "manaf_m00_wp:material_0", "pbrMetallicRoughness": {"metallicFactor": 0.0, "roughnessFactor": 0.9, "baseColorTexture": {"index": 0}}, "doubleSided": true, "alphaMode": "MASK", "alphaCutoff": 0.5}], "accessors": [{"bufferView": 0, "componentType": 5126, "count": 390, "type": "VEC3", "min": [-0.07115077018737793, -0.010012612342834473, -0.05358162879943848], "max": [0.2788591957092285, 0.010032612085342408, 0.05329939365386963]}, {"bufferView": 1, "componentType": 5126, "count": 390, "type": "VEC3"}, {"bufferView": 2, "componentType": 5126, "count": 390, "type": "VEC2"}, {"bufferView": 3, "componentType": 5125, "count": 2244, "type": "SCALAR"}], "bufferViews": [{"buffer": 0, "byteOffset": 0, "byteLength": 4680}, {"buffer": 0, "byteOffset": 4680, "byteLength": 4680}, {"buffer": 0, "byteOffset": 9360, "byteLength": 3120}, {"buffer": 0, "byteOffset": 12480, "byteLength": 8976}], "images": [{"uri": "manaf_m00_wp.png"}], "samplers": [{"magFilter": 9729, "minFilter": 9987, "wrapS": 10497, "wrapT": 10497}], "textures": [{"source": 0, "sampler": 0}], "buffers": [{"uri": "manaf_m00_wp.bin", "byteLength": 21456}]}