{"asset": {"version": "2.0", "generator": "l2vzla char_pipeline (weapons, static psk)"}, "scene": 0, "scenes": [{"nodes": [0]}], "nodes": [{"name": "Mon_follower_of_frintessa_calibur_m00_wp", "mesh": 0}], "meshes": [{"name": "Mon_follower_of_frintessa_calibur_m00_wp", "primitives": [{"attributes": {"POSITION": 0, "NORMAL": 1, "TEXCOORD_0": 2}, "mode": 4, "indices": 3, "material": 0}]}], "materials": [{"name": "Mon_follower_of_frintessa_calibur_m00_wp:material_0", "pbrMetallicRoughness": {"metallicFactor": 0.0, "roughnessFactor": 0.9, "baseColorTexture": {"index": 0}}, "doubleSided": true}], "accessors": [{"bufferView": 0, "componentType": 5126, "count": 147, "type": "VEC3", "min": [-0.5975994110107422, -0.08487664222717285, -0.14731111526489257], "max": [0.9453384399414063, 0.08487664222717285, 0.1488162612915039]}, {"bufferView": 1, "componentType": 5126, "count": 147, "type": "VEC3"}, {"bufferView": 2, "componentType": 5126, "count": 147, "type": "VEC2"}, {"bufferView": 3, "componentType": 5125, "count": 663, "type": "SCALAR"}], "bufferViews": [{"buffer": 0, "byteOffset": 0, "byteLength": 1764}, {"buffer": 0, "byteOffset": 1764, "byteLength": 1764}, {"buffer": 0, "byteOffset": 3528, "byteLength": 1176}, {"buffer": 0, "byteOffset": 4704, "byteLength": 2652}], "images": [{"uri": "mon_follower_of_frintessa_calibur_m00_wp.png"}], "samplers": [{"magFilter": 9729, "minFilter": 9987, "wrapS": 10497, "wrapT": 10497}], "textures": [{"source": 0, "sampler": 0}], "buffers": [{"uri": "mon_follower_of_frintessa_calibur_m00_wp.bin", "byteLength": 7356}]}