{"asset": {"version": "2.0", "generator": "l2vzla char_pipeline (weapons, static psk)"}, "scene": 0, "scenes": [{"nodes": [0]}], "nodes": [{"name": "morning_star_m00_wp", "mesh": 0}], "meshes": [{"name": "morning_star_m00_wp", "primitives": [{"attributes": {"POSITION": 0, "NORMAL": 1, "TEXCOORD_0": 2}, "mode": 4, "indices": 3, "material": 0}]}], "materials": [{"name": "morning_star_m00_wp:material_0", "pbrMetallicRoughness": {"metallicFactor": 0.0, "roughnessFactor": 0.9, "baseColorTexture": {"index": 0}}, "doubleSided": true}], "accessors": [{"bufferView": 0, "componentType": 5126, "count": 195, "type": "VEC3", "min": [-0.07184981822967529, -0.039842238426208494, -0.04504407405853272], "max": [0.15538661003112794, 0.044383397102355955, 0.04512950420379639]}, {"bufferView": 1, "componentType": 5126, "count": 195, "type": "VEC3"}, {"bufferView": 2, "componentType": 5126, "count": 195, "type": "VEC2"}, {"bufferView": 3, "componentType": 5125, "count": 384, "type": "SCALAR"}], "bufferViews": [{"buffer": 0, "byteOffset": 0, "byteLength": 2340}, {"buffer": 0, "byteOffset": 2340, "byteLength": 2340}, {"buffer": 0, "byteOffset": 4680, "byteLength": 1560}, {"buffer": 0, "byteOffset": 6240, "byteLength": 1536}], "images": [{"uri": "morning_star_m00_wp.png"}], "samplers": [{"magFilter": 9729, "minFilter": 9987, "wrapS": 10497, "wrapT": 10497}], "textures": [{"source": 0, "sampler": 0}], "buffers": [{"uri": "morning_star_m00_wp.bin", "byteLength": 7776}]}