{"asset": {"version": "2.0", "generator": "l2vzla char_pipeline (weapons, static psk)"}, "scene": 0, "scenes": [{"nodes": [0]}], "nodes": [{"name": "mystic_staff_m00_wp", "mesh": 0}], "meshes": [{"name": "mystic_staff_m00_wp", "primitives": [{"attributes": {"POSITION": 0, "NORMAL": 1, "TEXCOORD_0": 2}, "mode": 4, "indices": 3, "material": 0}]}], "materials": [{"name": "mystic_staff_m00_wp:material_0", "pbrMetallicRoughness": {"metallicFactor": 0.0, "roughnessFactor": 0.9, "baseColorTexture": {"index": 0}}, "doubleSided": true, "alphaMode": "BLEND"}], "accessors": [{"bufferView": 0, "componentType": 5126, "count": 123, "type": "VEC3", "min": [-0.16354040145874024, -0.008426287174224854, -0.03053792715072632], "max": [0.33750793457031253, 0.00842565953731537, 0.04765190601348877]}, {"bufferView": 1, "componentType": 5126, "count": 123, "type": "VEC3"}, {"bufferView": 2, "componentType": 5126, "count": 123, "type": "VEC2"}, {"bufferView": 3, "componentType": 5125, "count": 498, "type": "SCALAR"}], "bufferViews": [{"buffer": 0, "byteOffset": 0, "byteLength": 1476}, {"buffer": 0, "byteOffset": 1476, "byteLength": 1476}, {"buffer": 0, "byteOffset": 2952, "byteLength": 984}, {"buffer": 0, "byteOffset": 3936, "byteLength": 1992}], "images": [{"uri": "mystic_staff_m00_wp.png"}], "samplers": [{"magFilter": 9729, "minFilter": 9987, "wrapS": 10497, "wrapT": 10497}], "textures": [{"source": 0, "sampler": 0}], "buffers": [{"uri": "mystic_staff_m00_wp.bin", "byteLength": 5928}]}