{"asset": {"version": "2.0", "generator": "l2vzla char_pipeline (weapons, static psk)"}, "scene": 0, "scenes": [{"nodes": [0]}], "nodes": [{"name": "mystic_knife_m00_wp", "mesh": 0}], "meshes": [{"name": "mystic_knife_m00_wp", "primitives": [{"attributes": {"POSITION": 0, "NORMAL": 1, "TEXCOORD_0": 2}, "mode": 4, "indices": 3, "material": 0}]}], "materials": [{"name": "mystic_knife_m00_wp:material_0", "pbrMetallicRoughness": {"metallicFactor": 0.0, "roughnessFactor": 0.9, "baseColorTexture": {"index": 0}}, "doubleSided": true}], "accessors": [{"bufferView": 0, "componentType": 5126, "count": 121, "type": "VEC3", "min": [-0.036358509063720706, -0.004762042462825775, -0.024882826805114746], "max": [0.12799782752990724, 0.004665158689022064, 0.024479329586029053]}, {"bufferView": 1, "componentType": 5126, "count": 121, "type": "VEC3"}, {"bufferView": 2, "componentType": 5126, "count": 121, "type": "VEC2"}, {"bufferView": 3, "componentType": 5125, "count": 438, "type": "SCALAR"}], "bufferViews": [{"buffer": 0, "byteOffset": 0, "byteLength": 1452}, {"buffer": 0, "byteOffset": 1452, "byteLength": 1452}, {"buffer": 0, "byteOffset": 2904, "byteLength": 968}, {"buffer": 0, "byteOffset": 3872, "byteLength": 1752}], "images": [{"uri": "mystic_knife_m00_wp.png"}], "samplers": [{"magFilter": 9729, "minFilter": 9987, "wrapS": 10497, "wrapT": 10497}], "textures": [{"source": 0, "sampler": 0}], "buffers": [{"uri": "mystic_knife_m00_wp.bin", "byteLength": 5624}]}