{"asset": {"version": "2.0", "generator": "l2vzla char_pipeline (weapons, static psk)"}, "scene": 0, "scenes": [{"nodes": [0]}], "nodes": [{"name": "nos_sword_m00_wp", "mesh": 0}], "meshes": [{"name": "nos_sword_m00_wp", "primitives": [{"attributes": {"POSITION": 0, "NORMAL": 1, "TEXCOORD_0": 2}, "mode": 4, "indices": 3, "material": 0}]}], "materials": [{"name": "nos_sword_m00_wp:material_0", "pbrMetallicRoughness": {"metallicFactor": 0.0, "roughnessFactor": 0.9, "baseColorTexture": {"index": 0}}, "doubleSided": true}], "accessors": [{"bufferView": 0, "componentType": 5126, "count": 77, "type": "VEC3", "min": [-0.17761547088623048, -0.01157083511352539, -0.07311078071594239], "max": [0.6289830780029297, 0.011543564796447754, 0.07314563751220703]}, {"bufferView": 1, "componentType": 5126, "count": 77, "type": "VEC3"}, {"bufferView": 2, "componentType": 5126, "count": 77, "type": "VEC2"}, {"bufferView": 3, "componentType": 5125, "count": 240, "type": "SCALAR"}], "bufferViews": [{"buffer": 0, "byteOffset": 0, "byteLength": 924}, {"buffer": 0, "byteOffset": 924, "byteLength": 924}, {"buffer": 0, "byteOffset": 1848, "byteLength": 616}, {"buffer": 0, "byteOffset": 2464, "byteLength": 960}], "images": [{"uri": "nos_sword_m00_wp_s0.png"}], "samplers": [{"magFilter": 9729, "minFilter": 9987, "wrapS": 10497, "wrapT": 10497}], "textures": [{"source": 0, "sampler": 0}], "buffers": [{"uri": "nos_sword_m00_wp.bin", "byteLength": 3424}]}