{"asset": {"version": "2.0", "generator": "l2vzla char_pipeline (weapons, static psk)"}, "scene": 0, "scenes": [{"nodes": [0]}], "nodes": [{"name": "orcish_sword_m00_wp", "mesh": 0}], "meshes": [{"name": "orcish_sword_m00_wp", "primitives": [{"attributes": {"POSITION": 0, "NORMAL": 1, "TEXCOORD_0": 2}, "mode": 4, "indices": 3, "material": 0}]}], "materials": [{"name": "orcish_sword_m00_wp:material_0", "pbrMetallicRoughness": {"metallicFactor": 0.0, "roughnessFactor": 0.9, "baseColorTexture": {"index": 0}}, "doubleSided": true, "alphaMode": "MASK", "alphaCutoff": 0.5}], "accessors": [{"bufferView": 0, "componentType": 5126, "count": 71, "type": "VEC3", "min": [-0.07324143409729005, -0.008911116719245911, -0.039949283599853516], "max": [0.15033507347106934, 0.011113227605819702, 0.020467348098754883]}, {"bufferView": 1, "componentType": 5126, "count": 71, "type": "VEC3"}, {"bufferView": 2, "componentType": 5126, "count": 71, "type": "VEC2"}, {"bufferView": 3, "componentType": 5125, "count": 252, "type": "SCALAR"}], "bufferViews": [{"buffer": 0, "byteOffset": 0, "byteLength": 852}, {"buffer": 0, "byteOffset": 852, "byteLength": 852}, {"buffer": 0, "byteOffset": 1704, "byteLength": 568}, {"buffer": 0, "byteOffset": 2272, "byteLength": 1008}], "images": [{"uri": "orcish_sword_m00_wp.png"}], "samplers": [{"magFilter": 9729, "minFilter": 9987, "wrapS": 10497, "wrapT": 10497}], "textures": [{"source": 0, "sampler": 0}], "buffers": [{"uri": "orcish_sword_m00_wp.bin", "byteLength": 3280}]}