{"asset": {"version": "2.0", "generator": "l2vzla char_pipeline (weapons, static psk)"}, "scene": 0, "scenes": [{"nodes": [0]}], "nodes": [{"name": "parhit_staff_m00_wp", "mesh": 0}], "meshes": [{"name": "parhit_staff_m00_wp", "primitives": [{"attributes": {"POSITION": 0, "NORMAL": 1, "TEXCOORD_0": 2}, "mode": 4, "indices": 3, "material": 0}]}], "materials": [{"name": "parhit_staff_m00_wp:material_0", "pbrMetallicRoughness": {"metallicFactor": 0.0, "roughnessFactor": 0.9, "baseColorTexture": {"index": 0}}, "doubleSided": true}], "accessors": [{"bufferView": 0, "componentType": 5126, "count": 169, "type": "VEC3", "min": [-0.2510771942138672, -0.1044122314453125, -0.1427889633178711], "max": [0.7125110626220703, 0.11884688377380372, 0.18772525787353517]}, {"bufferView": 1, "componentType": 5126, "count": 169, "type": "VEC3"}, {"bufferView": 2, "componentType": 5126, "count": 169, "type": "VEC2"}, {"bufferView": 3, "componentType": 5125, "count": 597, "type": "SCALAR"}], "bufferViews": [{"buffer": 0, "byteOffset": 0, "byteLength": 2028}, {"buffer": 0, "byteOffset": 2028, "byteLength": 2028}, {"buffer": 0, "byteOffset": 4056, "byteLength": 1352}, {"buffer": 0, "byteOffset": 5408, "byteLength": 2388}], "images": [{"uri": "parhit_staff_m00_wp.png"}], "samplers": [{"magFilter": 9729, "minFilter": 9987, "wrapS": 10497, "wrapT": 10497}], "textures": [{"source": 0, "sampler": 0}], "buffers": [{"uri": "parhit_staff_m00_wp.bin", "byteLength": 7796}]}