{"asset": {"version": "2.0", "generator": "l2vzla char_pipeline (weapons, static psk)"}, "scene": 0, "scenes": [{"nodes": [0]}], "nodes": [{"name": "pike_m00_wp", "mesh": 0}], "meshes": [{"name": "pike_m00_wp", "primitives": [{"attributes": {"POSITION": 0, "NORMAL": 1, "TEXCOORD_0": 2}, "mode": 4, "indices": 3, "material": 0}]}], "materials": [{"name": "pike_m00_wp:material_0", "pbrMetallicRoughness": {"metallicFactor": 0.0, "roughnessFactor": 0.9, "baseColorTexture": {"index": 0}}, "doubleSided": true, "alphaMode": "MASK", "alphaCutoff": 0.5}], "accessors": [{"bufferView": 0, "componentType": 5126, "count": 108, "type": "VEC3", "min": [-0.18902667999267578, -0.009292890429496766, -0.04654626369476318], "max": [0.3461611557006836, 0.00929287314414978, 0.046381659507751465]}, {"bufferView": 1, "componentType": 5126, "count": 108, "type": "VEC3"}, {"bufferView": 2, "componentType": 5126, "count": 108, "type": "VEC2"}, {"bufferView": 3, "componentType": 5125, "count": 462, "type": "SCALAR"}], "bufferViews": [{"buffer": 0, "byteOffset": 0, "byteLength": 1296}, {"buffer": 0, "byteOffset": 1296, "byteLength": 1296}, {"buffer": 0, "byteOffset": 2592, "byteLength": 864}, {"buffer": 0, "byteOffset": 3456, "byteLength": 1848}], "images": [{"uri": "pike_m00_wp.png"}], "samplers": [{"magFilter": 9729, "minFilter": 9987, "wrapS": 10497, "wrapT": 10497}], "textures": [{"source": 0, "sampler": 0}], "buffers": [{"uri": "pike_m00_wp.bin", "byteLength": 5304}]}