{"asset": {"version": "2.0", "generator": "l2vzla char_pipeline (weapons, static psk)"}, "scene": 0, "scenes": [{"nodes": [0]}], "nodes": [{"name": "plate_shield_m00_sh", "mesh": 0}], "meshes": [{"name": "plate_shield_m00_sh", "primitives": [{"attributes": {"POSITION": 0, "NORMAL": 1, "TEXCOORD_0": 2}, "mode": 4, "indices": 3, "material": 0}, {"attributes": {"POSITION": 4, "NORMAL": 5, "TEXCOORD_0": 6}, "mode": 4, "indices": 7, "material": 1}]}], "materials": [{"name": "plate_shield_m00_sh:material_0", "pbrMetallicRoughness": {"metallicFactor": 0.0, "roughnessFactor": 0.9, "baseColorTexture": {"index": 0}}, "doubleSided": true}, {"name": "plate_shield_m00_sh:material_1", "pbrMetallicRoughness": {"metallicFactor": 0.0, "roughnessFactor": 0.9, "baseColorTexture": {"index": 1}}, "doubleSided": true}], "accessors": [{"bufferView": 0, "componentType": 5126, "count": 11, "type": "VEC3", "min": [-0.07315816879272462, -0.06346442222595215, -0.005677316784858704], "max": [0.12321348190307617, 0.06323041439056397, 0.019025884866714478]}, {"bufferView": 1, "componentType": 5126, "count": 11, "type": "VEC3"}, {"bufferView": 2, "componentType": 5126, "count": 11, "type": "VEC2"}, {"bufferView": 3, "componentType": 5125, "count": 30, "type": "SCALAR"}, {"bufferView": 4, "componentType": 5126, "count": 21, "type": "VEC3", "min": [-0.07315816879272462, -0.06346442222595215, -0.000630398765206337], "max": [0.12321348190307617, 0.06323041439056397, 0.024366178512573243]}, {"bufferView": 5, "componentType": 5126, "count": 21, "type": "VEC3"}, {"bufferView": 6, "componentType": 5126, "count": 21, "type": "VEC2"}, {"bufferView": 7, "componentType": 5125, "count": 90, "type": "SCALAR"}], "bufferViews": [{"buffer": 0, "byteOffset": 0, "byteLength": 132}, {"buffer": 0, "byteOffset": 132, "byteLength": 132}, {"buffer": 0, "byteOffset": 264, "byteLength": 88}, {"buffer": 0, "byteOffset": 352, "byteLength": 120}, {"buffer": 0, "byteOffset": 472, "byteLength": 252}, {"buffer": 0, "byteOffset": 724, "byteLength": 252}, {"buffer": 0, "byteOffset": 976, "byteLength": 168}, {"buffer": 0, "byteOffset": 1144, "byteLength": 360}], "images": [{"uri": "plate_shield_m00_sh_s0.png"}, {"uri": "plate_shield_m00_sh_s1.png"}], "samplers": [{"magFilter": 9729, "minFilter": 9987, "wrapS": 10497, "wrapT": 10497}, {"magFilter": 9729, "minFilter": 9987, "wrapS": 10497, "wrapT": 10497}], "textures": [{"source": 0, "sampler": 0}, {"source": 1, "sampler": 1}], "buffers": [{"uri": "plate_shield_m00_sh.bin", "byteLength": 1504}]}