{"asset": {"version": "2.0", "generator": "l2vzla char_pipeline (weapons, static psk)"}, "scene": 0, "scenes": [{"nodes": [0]}], "nodes": [{"name": "pledge_shield_m00_sh", "mesh": 0}], "meshes": [{"name": "pledge_shield_m00_sh", "primitives": [{"attributes": {"POSITION": 0, "NORMAL": 1, "TEXCOORD_0": 2}, "mode": 4, "indices": 3, "material": 0}, {"attributes": {"POSITION": 4, "NORMAL": 5, "TEXCOORD_0": 6}, "mode": 4, "indices": 7, "material": 1}, {"attributes": {"POSITION": 8, "NORMAL": 9, "TEXCOORD_0": 10}, "mode": 4, "indices": 11, "material": 2}]}], "materials": [{"name": "pledge_shield_m00_sh:material_0", "pbrMetallicRoughness": {"metallicFactor": 0.0, "roughnessFactor": 0.9, "baseColorTexture": {"index": 0}}, "doubleSided": true}, {"name": "pledge_shield_m00_sh:material_1", "pbrMetallicRoughness": {"metallicFactor": 0.0, "roughnessFactor": 0.9, "baseColorTexture": {"index": 1}}, "doubleSided": true}, {"name": "pledge_shield_m00_sh:material_2", "pbrMetallicRoughness": {"metallicFactor": 0.0, "roughnessFactor": 0.9, "baseColorTexture": {"index": 2}}, "doubleSided": true}], "accessors": [{"bufferView": 0, "componentType": 5126, "count": 64, "type": "VEC3", "min": [-0.08405814170837403, -0.06733172416687012, -0.009208263754844665], "max": [0.13458269119262695, 0.06730761051177979, 0.016789264678955078]}, {"bufferView": 1, "componentType": 5126, "count": 64, "type": "VEC3"}, {"bufferView": 2, "componentType": 5126, "count": 64, "type": "VEC2"}, {"bufferView": 3, "componentType": 5125, "count": 204, "type": "SCALAR"}, {"bufferView": 4, "componentType": 5126, "count": 18, "type": "VEC3", "min": [-0.08405808448791505, -0.06273644447326661, -1.7732586711645127e-05], "max": [0.13458269119262695, 0.06271234512329102, 0.016789264678955078]}, {"bufferView": 5, "componentType": 5126, "count": 18, "type": "VEC3"}, {"bufferView": 6, "componentType": 5126, "count": 18, "type": "VEC2"}, {"bufferView": 7, "componentType": 5125, "count": 48, "type": "SCALAR"}, {"bufferView": 8, "componentType": 5126, "count": 6, "type": "VEC3", "min": [0.005154727697372436, -0.021170055866241457, -0.009208251237869263], "max": [0.047401528358459476, 0.02111855745315552, -0.006422743797302247]}, {"bufferView": 9, "componentType": 5126, "count": 6, "type": "VEC3"}, {"bufferView": 10, "componentType": 5126, "count": 6, "type": "VEC2"}, {"bufferView": 11, "componentType": 5125, "count": 12, "type": "SCALAR"}], "bufferViews": [{"buffer": 0, "byteOffset": 0, "byteLength": 768}, {"buffer": 0, "byteOffset": 768, "byteLength": 768}, {"buffer": 0, "byteOffset": 1536, "byteLength": 512}, {"buffer": 0, "byteOffset": 2048, "byteLength": 816}, {"buffer": 0, "byteOffset": 2864, "byteLength": 216}, {"buffer": 0, "byteOffset": 3080, "byteLength": 216}, {"buffer": 0, "byteOffset": 3296, "byteLength": 144}, {"buffer": 0, "byteOffset": 3440, "byteLength": 192}, {"buffer": 0, "byteOffset": 3632, "byteLength": 72}, {"buffer": 0, "byteOffset": 3704, "byteLength": 72}, {"buffer": 0, "byteOffset": 3776, "byteLength": 48}, {"buffer": 0, "byteOffset": 3824, "byteLength": 48}], "images": [{"uri": "pledge_shield_m00_sh_s0.png"}, {"uri": "pledge_shield_m00_sh_s1.png"}, {"uri": "pledge_shield_m00_sh_s2.png"}], "samplers": [{"magFilter": 9729, "minFilter": 9987, "wrapS": 10497, "wrapT": 10497}, {"magFilter": 9729, "minFilter": 9987, "wrapS": 10497, "wrapT": 10497}, {"magFilter": 9729, "minFilter": 9987, "wrapS": 10497, "wrapT": 10497}], "textures": [{"source": 0, "sampler": 0}, {"source": 1, "sampler": 1}, {"source": 2, "sampler": 2}], "buffers": [{"uri": "pledge_shield_m00_sh.bin", "byteLength": 3872}]}