{"asset": {"version": "2.0", "generator": "l2vzla char_pipeline (weapons, static psk)"}, "scene": 0, "scenes": [{"nodes": [0]}], "nodes": [{"name": "proof_of_revenge_m00_wp", "mesh": 0}], "meshes": [{"name": "proof_of_revenge_m00_wp", "primitives": [{"attributes": {"POSITION": 0, "NORMAL": 1, "TEXCOORD_0": 2}, "mode": 4, "indices": 3, "material": 0}]}], "materials": [{"name": "proof_of_revenge_m00_wp:material_0", "pbrMetallicRoughness": {"metallicFactor": 0.0, "roughnessFactor": 0.9, "baseColorTexture": {"index": 0}}, "doubleSided": true}], "accessors": [{"bufferView": 0, "componentType": 5126, "count": 110, "type": "VEC3", "min": [-0.08912199974060059, -0.020464649200439455, -0.02584080696105957], "max": [0.1865189552307129, 0.02121316909790039, 0.020105874538421633]}, {"bufferView": 1, "componentType": 5126, "count": 110, "type": "VEC3"}, {"bufferView": 2, "componentType": 5126, "count": 110, "type": "VEC2"}, {"bufferView": 3, "componentType": 5125, "count": 489, "type": "SCALAR"}], "bufferViews": [{"buffer": 0, "byteOffset": 0, "byteLength": 1320}, {"buffer": 0, "byteOffset": 1320, "byteLength": 1320}, {"buffer": 0, "byteOffset": 2640, "byteLength": 880}, {"buffer": 0, "byteOffset": 3520, "byteLength": 1956}], "images": [{"uri": "proof_of_revenge_m00_wp.png"}], "samplers": [{"magFilter": 9729, "minFilter": 9987, "wrapS": 10497, "wrapT": 10497}], "textures": [{"source": 0, "sampler": 0}], "buffers": [{"uri": "proof_of_revenge_m00_wp.bin", "byteLength": 5476}]}