{"asset": {"version": "2.0", "generator": "l2vzla char_pipeline (weapons, static psk)"}, "scene": 0, "scenes": [{"nodes": [0]}], "nodes": [{"name": "saber_m00_wp", "mesh": 0}], "meshes": [{"name": "saber_m00_wp", "primitives": [{"attributes": {"POSITION": 0, "NORMAL": 1, "TEXCOORD_0": 2}, "mode": 4, "indices": 3, "material": 0}]}], "materials": [{"name": "saber_m00_wp:material_0", "pbrMetallicRoughness": {"metallicFactor": 0.0, "roughnessFactor": 0.9, "baseColorTexture": {"index": 0}}, "doubleSided": true, "alphaMode": "MASK", "alphaCutoff": 0.5}], "accessors": [{"bufferView": 0, "componentType": 5126, "count": 144, "type": "VEC3", "min": [-0.048156929016113285, -0.005563334226608276, -0.035041410923004154], "max": [0.2288297462463379, 0.005522552728652954, 0.028362388610839843]}, {"bufferView": 1, "componentType": 5126, "count": 144, "type": "VEC3"}, {"bufferView": 2, "componentType": 5126, "count": 144, "type": "VEC2"}, {"bufferView": 3, "componentType": 5125, "count": 468, "type": "SCALAR"}], "bufferViews": [{"buffer": 0, "byteOffset": 0, "byteLength": 1728}, {"buffer": 0, "byteOffset": 1728, "byteLength": 1728}, {"buffer": 0, "byteOffset": 3456, "byteLength": 1152}, {"buffer": 0, "byteOffset": 4608, "byteLength": 1872}], "images": [{"uri": "saber_m00_wp.png"}], "samplers": [{"magFilter": 9729, "minFilter": 9987, "wrapS": 10497, "wrapT": 10497}], "textures": [{"source": 0, "sampler": 0}], "buffers": [{"uri": "saber_m00_wp.bin", "byteLength": 6480}]}