{"asset": {"version": "2.0", "generator": "l2vzla char_pipeline (weapons, static psk)"}, "scene": 0, "scenes": [{"nodes": [0]}], "nodes": [{"name": "scalpel_m00_wp", "mesh": 0}], "meshes": [{"name": "scalpel_m00_wp", "primitives": [{"attributes": {"POSITION": 0, "NORMAL": 1, "TEXCOORD_0": 2}, "mode": 4, "indices": 3, "material": 0}]}], "materials": [{"name": "scalpel_m00_wp:material_0", "pbrMetallicRoughness": {"metallicFactor": 0.0, "roughnessFactor": 0.9, "baseColorTexture": {"index": 0}}, "doubleSided": true}], "accessors": [{"bufferView": 0, "componentType": 5126, "count": 176, "type": "VEC3", "min": [-0.08024755477905274, -0.017097524404525756, -0.08424551963806153], "max": [0.22127019882202148, 0.01709754705429077, 0.05422195911407471]}, {"bufferView": 1, "componentType": 5126, "count": 176, "type": "VEC3"}, {"bufferView": 2, "componentType": 5126, "count": 176, "type": "VEC2"}, {"bufferView": 3, "componentType": 5125, "count": 576, "type": "SCALAR"}], "bufferViews": [{"buffer": 0, "byteOffset": 0, "byteLength": 2112}, {"buffer": 0, "byteOffset": 2112, "byteLength": 2112}, {"buffer": 0, "byteOffset": 4224, "byteLength": 1408}, {"buffer": 0, "byteOffset": 5632, "byteLength": 2304}], "images": [{"uri": "scalpel_m00_wp.png"}], "samplers": [{"magFilter": 9729, "minFilter": 9987, "wrapS": 10497, "wrapT": 10497}], "textures": [{"source": 0, "sampler": 0}], "buffers": [{"uri": "scalpel_m00_wp.bin", "byteLength": 7936}]}