{"asset": {"version": "2.0", "generator": "l2vzla char_pipeline (weapons, static psk)"}, "scene": 0, "scenes": [{"nodes": [0]}], "nodes": [{"name": "scallop_jamadhr_m00_wp", "mesh": 0}], "meshes": [{"name": "scallop_jamadhr_m00_wp", "primitives": [{"attributes": {"POSITION": 0, "NORMAL": 1, "TEXCOORD_0": 2}, "mode": 4, "indices": 3, "material": 0}]}], "materials": [{"name": "scallop_jamadhr_m00_wp:material_0", "pbrMetallicRoughness": {"metallicFactor": 0.0, "roughnessFactor": 0.9, "baseColorTexture": {"index": 0}}, "doubleSided": true, "alphaMode": "MASK", "alphaCutoff": 0.5}], "accessors": [{"bufferView": 0, "componentType": 5126, "count": 91, "type": "VEC3", "min": [-0.05477650165557862, -0.005811613798141479, -0.03644811153411865], "max": [0.05458883762359619, 0.026387600898742675, 0.06146103382110596]}, {"bufferView": 1, "componentType": 5126, "count": 91, "type": "VEC3"}, {"bufferView": 2, "componentType": 5126, "count": 91, "type": "VEC2"}, {"bufferView": 3, "componentType": 5125, "count": 396, "type": "SCALAR"}], "bufferViews": [{"buffer": 0, "byteOffset": 0, "byteLength": 1092}, {"buffer": 0, "byteOffset": 1092, "byteLength": 1092}, {"buffer": 0, "byteOffset": 2184, "byteLength": 728}, {"buffer": 0, "byteOffset": 2912, "byteLength": 1584}], "images": [{"uri": "scallop_jamadhr_m00_wp.png"}], "samplers": [{"magFilter": 9729, "minFilter": 9987, "wrapS": 10497, "wrapT": 10497}], "textures": [{"source": 0, "sampler": 0}], "buffers": [{"uri": "scallop_jamadhr_m00_wp.bin", "byteLength": 4496}]}