{"asset": {"version": "2.0", "generator": "l2vzla char_pipeline (weapons, static psk)"}, "scene": 0, "scenes": [{"nodes": [0]}], "nodes": [{"name": "short_spear_m00_wp", "mesh": 0}], "meshes": [{"name": "short_spear_m00_wp", "primitives": [{"attributes": {"POSITION": 0, "NORMAL": 1, "TEXCOORD_0": 2}, "mode": 4, "indices": 3, "material": 0}]}], "materials": [{"name": "short_spear_m00_wp:material_0", "pbrMetallicRoughness": {"metallicFactor": 0.0, "roughnessFactor": 0.9, "baseColorTexture": {"index": 0}}, "doubleSided": true}], "accessors": [{"bufferView": 0, "componentType": 5126, "count": 55, "type": "VEC3", "min": [-0.11191879272460938, -0.006595210433006287, -0.010506536960601807], "max": [0.32836624145507814, 0.005952919125556946, 0.010915296077728271]}, {"bufferView": 1, "componentType": 5126, "count": 55, "type": "VEC3"}, {"bufferView": 2, "componentType": 5126, "count": 55, "type": "VEC2"}, {"bufferView": 3, "componentType": 5125, "count": 240, "type": "SCALAR"}], "bufferViews": [{"buffer": 0, "byteOffset": 0, "byteLength": 660}, {"buffer": 0, "byteOffset": 660, "byteLength": 660}, {"buffer": 0, "byteOffset": 1320, "byteLength": 440}, {"buffer": 0, "byteOffset": 1760, "byteLength": 960}], "images": [{"uri": "short_spear_m00_wp.png"}], "samplers": [{"magFilter": 9729, "minFilter": 9987, "wrapS": 10497, "wrapT": 10497}], "textures": [{"source": 0, "sampler": 0}], "buffers": [{"uri": "short_spear_m00_wp.bin", "byteLength": 2720}]}