{"asset": {"version": "2.0", "generator": "l2vzla char_pipeline (weapons, static psk)"}, "scene": 0, "scenes": [{"nodes": [0]}], "nodes": [{"name": "sickle_m00_wp", "mesh": 0}], "meshes": [{"name": "sickle_m00_wp", "primitives": [{"attributes": {"POSITION": 0, "NORMAL": 1, "TEXCOORD_0": 2}, "mode": 4, "indices": 3, "material": 0}]}], "materials": [{"name": "sickle_m00_wp:material_0", "pbrMetallicRoughness": {"metallicFactor": 0.0, "roughnessFactor": 0.9, "baseColorTexture": {"index": 0}}, "doubleSided": true, "alphaMode": "MASK", "alphaCutoff": 0.5}], "accessors": [{"bufferView": 0, "componentType": 5126, "count": 89, "type": "VEC3", "min": [-0.045139703750610355, -0.006049709320068359, -0.013934757709503174], "max": [0.14015235900878906, 0.006049748659133911, 0.09370646476745606]}, {"bufferView": 1, "componentType": 5126, "count": 89, "type": "VEC3"}, {"bufferView": 2, "componentType": 5126, "count": 89, "type": "VEC2"}, {"bufferView": 3, "componentType": 5125, "count": 402, "type": "SCALAR"}], "bufferViews": [{"buffer": 0, "byteOffset": 0, "byteLength": 1068}, {"buffer": 0, "byteOffset": 1068, "byteLength": 1068}, {"buffer": 0, "byteOffset": 2136, "byteLength": 712}, {"buffer": 0, "byteOffset": 2848, "byteLength": 1608}], "images": [{"uri": "sickle_m00_wp.png"}], "samplers": [{"magFilter": 9729, "minFilter": 9987, "wrapS": 10497, "wrapT": 10497}], "textures": [{"source": 0, "sampler": 0}], "buffers": [{"uri": "sickle_m00_wp.bin", "byteLength": 4456}]}