{"asset": {"version": "2.0", "generator": "l2vzla char_pipeline (weapons, static psk)"}, "scene": 0, "scenes": [{"nodes": [0]}], "nodes": [{"name": "silenos_blowgun_m00_wp", "mesh": 0}], "meshes": [{"name": "silenos_blowgun_m00_wp", "primitives": [{"attributes": {"POSITION": 0, "NORMAL": 1, "TEXCOORD_0": 2}, "mode": 4, "indices": 3, "material": 0}]}], "materials": [{"name": "silenos_blowgun_m00_wp:material_0", "pbrMetallicRoughness": {"metallicFactor": 0.0, "roughnessFactor": 0.9, "baseColorTexture": {"index": 0}}, "doubleSided": true}], "accessors": [{"bufferView": 0, "componentType": 5126, "count": 100, "type": "VEC3", "min": [-0.29272216796875, -0.025586161613464355, -0.02702232837677002], "max": [0.03250526428222656, 0.02519186496734619, 0.027022378444671633]}, {"bufferView": 1, "componentType": 5126, "count": 100, "type": "VEC3"}, {"bufferView": 2, "componentType": 5126, "count": 100, "type": "VEC2"}, {"bufferView": 3, "componentType": 5125, "count": 384, "type": "SCALAR"}], "bufferViews": [{"buffer": 0, "byteOffset": 0, "byteLength": 1200}, {"buffer": 0, "byteOffset": 1200, "byteLength": 1200}, {"buffer": 0, "byteOffset": 2400, "byteLength": 800}, {"buffer": 0, "byteOffset": 3200, "byteLength": 1536}], "images": [{"uri": "silenos_blowgun_m00_wp.png"}], "samplers": [{"magFilter": 9729, "minFilter": 9987, "wrapS": 10497, "wrapT": 10497}], "textures": [{"source": 0, "sampler": 0}], "buffers": [{"uri": "silenos_blowgun_m00_wp.bin", "byteLength": 4736}]}