{"asset": {"version": "2.0", "generator": "l2vzla char_pipeline (weapons, static psk)"}, "scene": 0, "scenes": [{"nodes": [0]}], "nodes": [{"name": "single-edged_jamadhr_m00_wp", "mesh": 0}], "meshes": [{"name": "single-edged_jamadhr_m00_wp", "primitives": [{"attributes": {"POSITION": 0, "NORMAL": 1, "TEXCOORD_0": 2}, "mode": 4, "indices": 3, "material": 0}]}], "materials": [{"name": "single-edged_jamadhr_m00_wp:material_0", "pbrMetallicRoughness": {"metallicFactor": 0.0, "roughnessFactor": 0.9, "baseColorTexture": {"index": 0}}, "doubleSided": true}], "accessors": [{"bufferView": 0, "componentType": 5126, "count": 88, "type": "VEC3", "min": [-0.03190827131271362, -0.006398312449455261, -0.008390639424324036], "max": [0.032294631004333496, 0.006313029527664184, 0.110669584274292]}, {"bufferView": 1, "componentType": 5126, "count": 88, "type": "VEC3"}, {"bufferView": 2, "componentType": 5126, "count": 88, "type": "VEC2"}, {"bufferView": 3, "componentType": 5125, "count": 528, "type": "SCALAR"}], "bufferViews": [{"buffer": 0, "byteOffset": 0, "byteLength": 1056}, {"buffer": 0, "byteOffset": 1056, "byteLength": 1056}, {"buffer": 0, "byteOffset": 2112, "byteLength": 704}, {"buffer": 0, "byteOffset": 2816, "byteLength": 2112}], "images": [{"uri": "single-edged_jamadhr_m00_wp.png"}], "samplers": [{"magFilter": 9729, "minFilter": 9987, "wrapS": 10497, "wrapT": 10497}], "textures": [{"source": 0, "sampler": 0}], "buffers": [{"uri": "single-edged_jamadhr_m00_wp.bin", "byteLength": 4928}]}