{"asset": {"version": "2.0", "generator": "l2vzla char_pipeline (weapons, static psk)"}, "scene": 0, "scenes": [{"nodes": [0]}], "nodes": [{"name": "skeleton_buckler_m00_sh", "mesh": 0}], "meshes": [{"name": "skeleton_buckler_m00_sh", "primitives": [{"attributes": {"POSITION": 0, "NORMAL": 1, "TEXCOORD_0": 2}, "mode": 4, "indices": 3, "material": 0}, {"attributes": {"POSITION": 4, "NORMAL": 5, "TEXCOORD_0": 6}, "mode": 4, "indices": 7, "material": 1}]}], "materials": [{"name": "skeleton_buckler_m00_sh:material_0", "pbrMetallicRoughness": {"metallicFactor": 0.0, "roughnessFactor": 0.9, "baseColorTexture": {"index": 0}}, "doubleSided": true, "alphaMode": "MASK", "alphaCutoff": 0.5}, {"name": "skeleton_buckler_m00_sh:material_1", "pbrMetallicRoughness": {"metallicFactor": 0.0, "roughnessFactor": 0.9, "baseColorTexture": {"index": 1}}, "doubleSided": true, "alphaMode": "MASK", "alphaCutoff": 0.5}], "accessors": [{"bufferView": 0, "componentType": 5126, "count": 29, "type": "VEC3", "min": [-0.04694831371307373, -0.06623597145080566, -0.008635022044181824], "max": [0.0823913860321045, 0.06509903430938721, 0.01315406322479248]}, {"bufferView": 1, "componentType": 5126, "count": 29, "type": "VEC3"}, {"bufferView": 2, "componentType": 5126, "count": 29, "type": "VEC2"}, {"bufferView": 3, "componentType": 5125, "count": 114, "type": "SCALAR"}, {"bufferView": 4, "componentType": 5126, "count": 38, "type": "VEC3", "min": [-0.04694831371307373, -0.06623597145080566, 0.0015377514064311981], "max": [0.0823913860321045, 0.06509903430938721, 0.014042245149612427]}, {"bufferView": 5, "componentType": 5126, "count": 38, "type": "VEC3"}, {"bufferView": 6, "componentType": 5126, "count": 38, "type": "VEC2"}, {"bufferView": 7, "componentType": 5125, "count": 144, "type": "SCALAR"}], "bufferViews": [{"buffer": 0, "byteOffset": 0, "byteLength": 348}, {"buffer": 0, "byteOffset": 348, "byteLength": 348}, {"buffer": 0, "byteOffset": 696, "byteLength": 232}, {"buffer": 0, "byteOffset": 928, "byteLength": 456}, {"buffer": 0, "byteOffset": 1384, "byteLength": 456}, {"buffer": 0, "byteOffset": 1840, "byteLength": 456}, {"buffer": 0, "byteOffset": 2296, "byteLength": 304}, {"buffer": 0, "byteOffset": 2600, "byteLength": 576}], "images": [{"uri": "skeleton_buckler_m00_sh_s0.png"}, {"uri": "skeleton_buckler_m00_sh_s1.png"}], "samplers": [{"magFilter": 9729, "minFilter": 9987, "wrapS": 10497, "wrapT": 10497}, {"magFilter": 9729, "minFilter": 9987, "wrapS": 10497, "wrapT": 10497}], "textures": [{"source": 0, "sampler": 0}, {"source": 1, "sampler": 1}], "buffers": [{"uri": "skeleton_buckler_m00_sh.bin", "byteLength": 3176}]}