{"asset": {"version": "2.0", "generator": "l2vzla char_pipeline (weapons, static psk)"}, "scene": 0, "scenes": [{"nodes": [0]}], "nodes": [{"name": "small_shield_m00_sh", "mesh": 0}], "meshes": [{"name": "small_shield_m00_sh", "primitives": [{"attributes": {"POSITION": 0, "NORMAL": 1, "TEXCOORD_0": 2}, "mode": 4, "indices": 3, "material": 0}, {"attributes": {"POSITION": 4, "NORMAL": 5, "TEXCOORD_0": 6}, "mode": 4, "indices": 7, "material": 1}]}], "materials": [{"name": "small_shield_m00_sh:material_0", "pbrMetallicRoughness": {"metallicFactor": 0.0, "roughnessFactor": 0.9, "baseColorTexture": {"index": 0}}, "doubleSided": true}, {"name": "small_shield_m00_sh:material_1", "pbrMetallicRoughness": {"metallicFactor": 0.0, "roughnessFactor": 0.9, "baseColorTexture": {"index": 1}}, "doubleSided": true}], "accessors": [{"bufferView": 0, "componentType": 5126, "count": 14, "type": "VEC3", "min": [-0.0447868824005127, -0.053445229530334475, -0.0037719109654426575], "max": [0.09911230087280273, 0.0533396863937378, 0.011650115251541138]}, {"bufferView": 1, "componentType": 5126, "count": 14, "type": "VEC3"}, {"bufferView": 2, "componentType": 5126, "count": 14, "type": "VEC2"}, {"bufferView": 3, "componentType": 5125, "count": 42, "type": "SCALAR"}, {"bufferView": 4, "componentType": 5126, "count": 48, "type": "VEC3", "min": [-0.04484852313995361, -0.05347056388854981, -0.0037719109654426575], "max": [0.0991123104095459, 0.0533396863937378, 0.014553056955337524]}, {"bufferView": 5, "componentType": 5126, "count": 48, "type": "VEC3"}, {"bufferView": 6, "componentType": 5126, "count": 48, "type": "VEC2"}, {"bufferView": 7, "componentType": 5125, "count": 114, "type": "SCALAR"}], "bufferViews": [{"buffer": 0, "byteOffset": 0, "byteLength": 168}, {"buffer": 0, "byteOffset": 168, "byteLength": 168}, {"buffer": 0, "byteOffset": 336, "byteLength": 112}, {"buffer": 0, "byteOffset": 448, "byteLength": 168}, {"buffer": 0, "byteOffset": 616, "byteLength": 576}, {"buffer": 0, "byteOffset": 1192, "byteLength": 576}, {"buffer": 0, "byteOffset": 1768, "byteLength": 384}, {"buffer": 0, "byteOffset": 2152, "byteLength": 456}], "images": [{"uri": "small_shield_m00_sh_s0.png"}, {"uri": "small_shield_m00_sh_s1.png"}], "samplers": [{"magFilter": 9729, "minFilter": 9987, "wrapS": 10497, "wrapT": 10497}, {"magFilter": 9729, "minFilter": 9987, "wrapS": 10497, "wrapT": 10497}], "textures": [{"source": 0, "sampler": 0}, {"source": 1, "sampler": 1}], "buffers": [{"uri": "small_shield_m00_sh.bin", "byteLength": 2608}]}