{"asset": {"version": "2.0", "generator": "l2vzla char_pipeline (weapons, static psk)"}, "scene": 0, "scenes": [{"nodes": [0]}], "nodes": [{"name": "small_sword_m00_wp", "mesh": 0}], "meshes": [{"name": "small_sword_m00_wp", "primitives": [{"attributes": {"POSITION": 0, "NORMAL": 1, "TEXCOORD_0": 2}, "mode": 4, "indices": 3, "material": 0}]}], "materials": [{"name": "small_sword_m00_wp:material_0", "pbrMetallicRoughness": {"metallicFactor": 0.0, "roughnessFactor": 0.9, "baseColorTexture": {"index": 0}}, "doubleSided": true}], "accessors": [{"bufferView": 0, "componentType": 5126, "count": 81, "type": "VEC3", "min": [-0.05201869487762451, -0.003135479390621185, -0.02657097578048706], "max": [0.18690004348754882, 0.0029677039384841918, 0.026458115577697755]}, {"bufferView": 1, "componentType": 5126, "count": 81, "type": "VEC3"}, {"bufferView": 2, "componentType": 5126, "count": 81, "type": "VEC2"}, {"bufferView": 3, "componentType": 5125, "count": 258, "type": "SCALAR"}], "bufferViews": [{"buffer": 0, "byteOffset": 0, "byteLength": 972}, {"buffer": 0, "byteOffset": 972, "byteLength": 972}, {"buffer": 0, "byteOffset": 1944, "byteLength": 648}, {"buffer": 0, "byteOffset": 2592, "byteLength": 1032}], "images": [{"uri": "small_sword_m00_wp.png"}], "samplers": [{"magFilter": 9729, "minFilter": 9987, "wrapS": 10497, "wrapT": 10497}], "textures": [{"source": 0, "sampler": 0}], "buffers": [{"uri": "small_sword_m00_wp.bin", "byteLength": 3624}]}