{"asset": {"version": "2.0", "generator": "l2vzla char_pipeline (weapons, static psk)"}, "scene": 0, "scenes": [{"nodes": [0]}], "nodes": [{"name": "spike_club_m00_wp", "mesh": 0}], "meshes": [{"name": "spike_club_m00_wp", "primitives": [{"attributes": {"POSITION": 0, "NORMAL": 1, "TEXCOORD_0": 2}, "mode": 4, "indices": 3, "material": 0}]}], "materials": [{"name": "spike_club_m00_wp:material_0", "pbrMetallicRoughness": {"metallicFactor": 0.0, "roughnessFactor": 0.9, "baseColorTexture": {"index": 0}}, "doubleSided": true}], "accessors": [{"bufferView": 0, "componentType": 5126, "count": 160, "type": "VEC3", "min": [-0.049628705978393556, -0.013562294244766236, -0.02329460859298706], "max": [0.14973748207092286, 0.02690213918685913, 0.02198984146118164]}, {"bufferView": 1, "componentType": 5126, "count": 160, "type": "VEC3"}, {"bufferView": 2, "componentType": 5126, "count": 160, "type": "VEC2"}, {"bufferView": 3, "componentType": 5125, "count": 378, "type": "SCALAR"}], "bufferViews": [{"buffer": 0, "byteOffset": 0, "byteLength": 1920}, {"buffer": 0, "byteOffset": 1920, "byteLength": 1920}, {"buffer": 0, "byteOffset": 3840, "byteLength": 1280}, {"buffer": 0, "byteOffset": 5120, "byteLength": 1512}], "images": [{"uri": "spike_club_m00_wp.png"}], "samplers": [{"magFilter": 9729, "minFilter": 9987, "wrapS": 10497, "wrapT": 10497}], "textures": [{"source": 0, "sampler": 0}], "buffers": [{"uri": "spike_club_m00_wp.bin", "byteLength": 6632}]}