{"asset": {"version": "2.0", "generator": "l2vzla char_pipeline (weapons, static psk)"}, "scene": 0, "scenes": [{"nodes": [0]}], "nodes": [{"name": "spike_glove_m00_wp", "mesh": 0}], "meshes": [{"name": "spike_glove_m00_wp", "primitives": [{"attributes": {"POSITION": 0, "NORMAL": 1, "TEXCOORD_0": 2}, "mode": 4, "indices": 3, "material": 0}]}], "materials": [{"name": "spike_glove_m00_wp:material_0", "pbrMetallicRoughness": {"metallicFactor": 0.0, "roughnessFactor": 0.9, "baseColorTexture": {"index": 0}}, "doubleSided": true, "alphaMode": "MASK", "alphaCutoff": 0.5}], "accessors": [{"bufferView": 0, "componentType": 5126, "count": 72, "type": "VEC3", "min": [-0.034184372425079344, -0.015065206289291382, -0.004994567036628724], "max": [0.033832612037658694, 0.014501302242279053, 0.033465473651885985]}, {"bufferView": 1, "componentType": 5126, "count": 72, "type": "VEC3"}, {"bufferView": 2, "componentType": 5126, "count": 72, "type": "VEC2"}, {"bufferView": 3, "componentType": 5125, "count": 288, "type": "SCALAR"}], "bufferViews": [{"buffer": 0, "byteOffset": 0, "byteLength": 864}, {"buffer": 0, "byteOffset": 864, "byteLength": 864}, {"buffer": 0, "byteOffset": 1728, "byteLength": 576}, {"buffer": 0, "byteOffset": 2304, "byteLength": 1152}], "images": [{"uri": "spike_glove_m00_wp.png"}], "samplers": [{"magFilter": 9729, "minFilter": 9987, "wrapS": 10497, "wrapT": 10497}], "textures": [{"source": 0, "sampler": 0}], "buffers": [{"uri": "spike_glove_m00_wp.bin", "byteLength": 3456}]}