{"asset": {"version": "2.0", "generator": "l2vzla char_pipeline (weapons, static psk)"}, "scene": 0, "scenes": [{"nodes": [0]}], "nodes": [{"name": "spinebone_sword_m00_wp", "mesh": 0}], "meshes": [{"name": "spinebone_sword_m00_wp", "primitives": [{"attributes": {"POSITION": 0, "NORMAL": 1, "TEXCOORD_0": 2}, "mode": 4, "indices": 3, "material": 0}]}], "materials": [{"name": "spinebone_sword_m00_wp:material_0", "pbrMetallicRoughness": {"metallicFactor": 0.0, "roughnessFactor": 0.9, "baseColorTexture": {"index": 0}}, "doubleSided": true}], "accessors": [{"bufferView": 0, "componentType": 5126, "count": 113, "type": "VEC3", "min": [-0.07293671131134033, -0.008019335865974427, -0.044841556549072265], "max": [0.2720909118652344, 0.008279689550399781, 0.04425578594207764]}, {"bufferView": 1, "componentType": 5126, "count": 113, "type": "VEC3"}, {"bufferView": 2, "componentType": 5126, "count": 113, "type": "VEC2"}, {"bufferView": 3, "componentType": 5125, "count": 366, "type": "SCALAR"}], "bufferViews": [{"buffer": 0, "byteOffset": 0, "byteLength": 1356}, {"buffer": 0, "byteOffset": 1356, "byteLength": 1356}, {"buffer": 0, "byteOffset": 2712, "byteLength": 904}, {"buffer": 0, "byteOffset": 3616, "byteLength": 1464}], "images": [{"uri": "spinebone_sword_m00_wp.png"}], "samplers": [{"magFilter": 9729, "minFilter": 9987, "wrapS": 10497, "wrapT": 10497}], "textures": [{"source": 0, "sampler": 0}], "buffers": [{"uri": "spinebone_sword_m00_wp.bin", "byteLength": 5080}]}