{"asset": {"version": "2.0", "generator": "l2vzla char_pipeline (weapons, static psk)"}, "scene": 0, "scenes": [{"nodes": [0]}], "nodes": [{"name": "square_shield_m00_sh", "mesh": 0}], "meshes": [{"name": "square_shield_m00_sh", "primitives": [{"attributes": {"POSITION": 0, "NORMAL": 1, "TEXCOORD_0": 2}, "mode": 4, "indices": 3, "material": 0}, {"attributes": {"POSITION": 4, "NORMAL": 5, "TEXCOORD_0": 6}, "mode": 4, "indices": 7, "material": 1}]}], "materials": [{"name": "square_shield_m00_sh:material_0", "pbrMetallicRoughness": {"metallicFactor": 0.0, "roughnessFactor": 0.9, "baseColorTexture": {"index": 0}}, "doubleSided": true}, {"name": "square_shield_m00_sh:material_1", "pbrMetallicRoughness": {"metallicFactor": 0.0, "roughnessFactor": 0.9, "baseColorTexture": {"index": 1}}, "doubleSided": true}], "accessors": [{"bufferView": 0, "componentType": 5126, "count": 8, "type": "VEC3", "min": [-0.08613602638244629, -0.059720029830932615, -0.004118938148021698], "max": [0.1417011070251465, 0.062356967926025395, 0.012041748762130738]}, {"bufferView": 1, "componentType": 5126, "count": 8, "type": "VEC3"}, {"bufferView": 2, "componentType": 5126, "count": 8, "type": "VEC2"}, {"bufferView": 3, "componentType": 5125, "count": 18, "type": "SCALAR"}, {"bufferView": 4, "componentType": 5126, "count": 32, "type": "VEC3", "min": [-0.08613602638244629, -0.0597200345993042, -0.004118938148021698], "max": [0.14170111656188966, 0.062356967926025395, 0.018670228719711305]}, {"bufferView": 5, "componentType": 5126, "count": 32, "type": "VEC3"}, {"bufferView": 6, "componentType": 5126, "count": 32, "type": "VEC2"}, {"bufferView": 7, "componentType": 5125, "count": 66, "type": "SCALAR"}], "bufferViews": [{"buffer": 0, "byteOffset": 0, "byteLength": 96}, {"buffer": 0, "byteOffset": 96, "byteLength": 96}, {"buffer": 0, "byteOffset": 192, "byteLength": 64}, {"buffer": 0, "byteOffset": 256, "byteLength": 72}, {"buffer": 0, "byteOffset": 328, "byteLength": 384}, {"buffer": 0, "byteOffset": 712, "byteLength": 384}, {"buffer": 0, "byteOffset": 1096, "byteLength": 256}, {"buffer": 0, "byteOffset": 1352, "byteLength": 264}], "images": [{"uri": "square_shield_m00_sh_s0.png"}, {"uri": "square_shield_m00_sh_s1.png"}], "samplers": [{"magFilter": 9729, "minFilter": 9987, "wrapS": 10497, "wrapT": 10497}, {"magFilter": 9729, "minFilter": 9987, "wrapS": 10497, "wrapT": 10497}], "textures": [{"source": 0, "sampler": 0}, {"source": 1, "sampler": 1}], "buffers": [{"uri": "square_shield_m00_sh.bin", "byteLength": 1616}]}