{"asset": {"version": "2.0", "generator": "l2vzla char_pipeline (weapons, static psk)"}, "scene": 0, "scenes": [{"nodes": [0]}], "nodes": [{"name": "squires_sword_m00_wp", "mesh": 0}], "meshes": [{"name": "squires_sword_m00_wp", "primitives": [{"attributes": {"POSITION": 0, "NORMAL": 1, "TEXCOORD_0": 2}, "mode": 4, "indices": 3, "material": 0}]}], "materials": [{"name": "squires_sword_m00_wp:material_0", "pbrMetallicRoughness": {"metallicFactor": 0.0, "roughnessFactor": 0.9, "baseColorTexture": {"index": 0}}, "doubleSided": true}], "accessors": [{"bufferView": 0, "componentType": 5126, "count": 73, "type": "VEC3", "min": [-0.03624204158782959, -0.005249586701393127, -0.03203505516052246], "max": [0.17667144775390625, 0.005719062089920044, 0.0317900013923645]}, {"bufferView": 1, "componentType": 5126, "count": 73, "type": "VEC3"}, {"bufferView": 2, "componentType": 5126, "count": 73, "type": "VEC2"}, {"bufferView": 3, "componentType": 5125, "count": 270, "type": "SCALAR"}], "bufferViews": [{"buffer": 0, "byteOffset": 0, "byteLength": 876}, {"buffer": 0, "byteOffset": 876, "byteLength": 876}, {"buffer": 0, "byteOffset": 1752, "byteLength": 584}, {"buffer": 0, "byteOffset": 2336, "byteLength": 1080}], "images": [{"uri": "squires_sword_m00_wp.png"}], "samplers": [{"magFilter": 9729, "minFilter": 9987, "wrapS": 10497, "wrapT": 10497}], "textures": [{"source": 0, "sampler": 0}], "buffers": [{"uri": "squires_sword_m00_wp.bin", "byteLength": 3416}]}