{"asset": {"version": "2.0", "generator": "l2vzla char_pipeline (weapons, static psk)"}, "scene": 0, "scenes": [{"nodes": [0]}], "nodes": [{"name": "staff_of_mana_m00_wp", "mesh": 0}], "meshes": [{"name": "staff_of_mana_m00_wp", "primitives": [{"attributes": {"POSITION": 0, "NORMAL": 1, "TEXCOORD_0": 2}, "mode": 4, "indices": 3, "material": 0}]}], "materials": [{"name": "staff_of_mana_m00_wp:material_0", "pbrMetallicRoughness": {"metallicFactor": 0.0, "roughnessFactor": 0.9, "baseColorTexture": {"index": 0}}, "doubleSided": true, "alphaMode": "MASK", "alphaCutoff": 0.5}], "accessors": [{"bufferView": 0, "componentType": 5126, "count": 135, "type": "VEC3", "min": [-0.15644615173339843, -0.035959770679473875, -0.029625017642974854], "max": [0.3858281326293945, 0.08391721725463867, 0.03149389743804932]}, {"bufferView": 1, "componentType": 5126, "count": 135, "type": "VEC3"}, {"bufferView": 2, "componentType": 5126, "count": 135, "type": "VEC2"}, {"bufferView": 3, "componentType": 5125, "count": 474, "type": "SCALAR"}], "bufferViews": [{"buffer": 0, "byteOffset": 0, "byteLength": 1620}, {"buffer": 0, "byteOffset": 1620, "byteLength": 1620}, {"buffer": 0, "byteOffset": 3240, "byteLength": 1080}, {"buffer": 0, "byteOffset": 4320, "byteLength": 1896}], "images": [{"uri": "staff_of_mana_m00_wp.png"}], "samplers": [{"magFilter": 9729, "minFilter": 9987, "wrapS": 10497, "wrapT": 10497}], "textures": [{"source": 0, "sampler": 0}], "buffers": [{"uri": "staff_of_mana_m00_wp.bin", "byteLength": 6216}]}