{"asset": {"version": "2.0", "generator": "l2vzla char_pipeline (weapons, static psk)"}, "scene": 0, "scenes": [{"nodes": [0]}], "nodes": [{"name": "strengthening_long_bow_m00_wp", "mesh": 0}], "meshes": [{"name": "strengthening_long_bow_m00_wp", "primitives": [{"attributes": {"POSITION": 0, "NORMAL": 1, "TEXCOORD_0": 2}, "mode": 4, "indices": 3, "material": 0}]}], "materials": [{"name": "strengthening_long_bow_m00_wp:material_0", "pbrMetallicRoughness": {"metallicFactor": 0.0, "roughnessFactor": 0.9, "baseColorTexture": {"index": 0}}, "doubleSided": true, "alphaMode": "MASK", "alphaCutoff": 0.5}], "accessors": [{"bufferView": 0, "componentType": 5126, "count": 128, "type": "VEC3", "min": [-0.3133897018432617, -0.011172690391540528, -0.09477038383483886], "max": [0.2898720169067383, 0.011366513967514038, 0.11003485679626465]}, {"bufferView": 1, "componentType": 5126, "count": 128, "type": "VEC3"}, {"bufferView": 2, "componentType": 5126, "count": 128, "type": "VEC2"}, {"bufferView": 3, "componentType": 5125, "count": 588, "type": "SCALAR"}], "bufferViews": [{"buffer": 0, "byteOffset": 0, "byteLength": 1536}, {"buffer": 0, "byteOffset": 1536, "byteLength": 1536}, {"buffer": 0, "byteOffset": 3072, "byteLength": 1024}, {"buffer": 0, "byteOffset": 4096, "byteLength": 2352}], "images": [{"uri": "strengthening_long_bow_m00_wp.png"}], "samplers": [{"magFilter": 9729, "minFilter": 9987, "wrapS": 10497, "wrapT": 10497}], "textures": [{"source": 0, "sampler": 0}], "buffers": [{"uri": "strengthening_long_bow_m00_wp.bin", "byteLength": 6448}]}