{"asset": {"version": "2.0", "generator": "l2vzla char_pipeline (weapons, static psk)"}, "scene": 0, "scenes": [{"nodes": [0]}], "nodes": [{"name": "strengthening_bow_m00_wp", "mesh": 0}], "meshes": [{"name": "strengthening_bow_m00_wp", "primitives": [{"attributes": {"POSITION": 0, "NORMAL": 1, "TEXCOORD_0": 2}, "mode": 4, "indices": 3, "material": 0}]}], "materials": [{"name": "strengthening_bow_m00_wp:material_0", "pbrMetallicRoughness": {"metallicFactor": 0.0, "roughnessFactor": 0.9, "baseColorTexture": {"index": 0}}, "doubleSided": true, "alphaMode": "MASK", "alphaCutoff": 0.5}], "accessors": [{"bufferView": 0, "componentType": 5126, "count": 80, "type": "VEC3", "min": [-0.1972225570678711, -0.005830867290496826, -0.06544343948364258], "max": [0.17766637802124025, 0.006072673797607422, 0.059876565933227544]}, {"bufferView": 1, "componentType": 5126, "count": 80, "type": "VEC3"}, {"bufferView": 2, "componentType": 5126, "count": 80, "type": "VEC2"}, {"bufferView": 3, "componentType": 5125, "count": 438, "type": "SCALAR"}], "bufferViews": [{"buffer": 0, "byteOffset": 0, "byteLength": 960}, {"buffer": 0, "byteOffset": 960, "byteLength": 960}, {"buffer": 0, "byteOffset": 1920, "byteLength": 640}, {"buffer": 0, "byteOffset": 2560, "byteLength": 1752}], "images": [{"uri": "strengthening_bow_m00_wp.png"}], "samplers": [{"magFilter": 9729, "minFilter": 9987, "wrapS": 10497, "wrapT": 10497}], "textures": [{"source": 0, "sampler": 0}], "buffers": [{"uri": "strengthening_bow_m00_wp.bin", "byteLength": 4312}]}