{"asset": {"version": "2.0", "generator": "l2vzla char_pipeline (weapons, static psk)"}, "scene": 0, "scenes": [{"nodes": [0]}], "nodes": [{"name": "sword_of_delusion_m00_wp", "mesh": 0}], "meshes": [{"name": "sword_of_delusion_m00_wp", "primitives": [{"attributes": {"POSITION": 0, "NORMAL": 1, "TEXCOORD_0": 2}, "mode": 4, "indices": 3, "material": 0}]}], "materials": [{"name": "sword_of_delusion_m00_wp:material_0", "pbrMetallicRoughness": {"metallicFactor": 0.0, "roughnessFactor": 0.9, "baseColorTexture": {"index": 0}}, "doubleSided": true}], "accessors": [{"bufferView": 0, "componentType": 5126, "count": 106, "type": "VEC3", "min": [-0.06427511692047119, -0.007510988712310791, -0.0542475175857544], "max": [0.3311442184448242, 0.031454277038574216, 0.03175273895263672]}, {"bufferView": 1, "componentType": 5126, "count": 106, "type": "VEC3"}, {"bufferView": 2, "componentType": 5126, "count": 106, "type": "VEC2"}, {"bufferView": 3, "componentType": 5125, "count": 348, "type": "SCALAR"}], "bufferViews": [{"buffer": 0, "byteOffset": 0, "byteLength": 1272}, {"buffer": 0, "byteOffset": 1272, "byteLength": 1272}, {"buffer": 0, "byteOffset": 2544, "byteLength": 848}, {"buffer": 0, "byteOffset": 3392, "byteLength": 1392}], "images": [{"uri": "sword_of_delusion_m00_wp.png"}], "samplers": [{"magFilter": 9729, "minFilter": 9987, "wrapS": 10497, "wrapT": 10497}], "textures": [{"source": 0, "sampler": 0}], "buffers": [{"uri": "sword_of_delusion_m00_wp.bin", "byteLength": 4784}]}