{"asset": {"version": "2.0", "generator": "l2vzla char_pipeline (weapons, static psk)"}, "scene": 0, "scenes": [{"nodes": [0]}], "nodes": [{"name": "sword_of_revolution_m00_wp", "mesh": 0}], "meshes": [{"name": "sword_of_revolution_m00_wp", "primitives": [{"attributes": {"POSITION": 0, "NORMAL": 1, "TEXCOORD_0": 2}, "mode": 4, "indices": 3, "material": 0}]}], "materials": [{"name": "sword_of_revolution_m00_wp:material_0", "pbrMetallicRoughness": {"metallicFactor": 0.0, "roughnessFactor": 0.9, "baseColorTexture": {"index": 0}}, "doubleSided": true}], "accessors": [{"bufferView": 0, "componentType": 5126, "count": 152, "type": "VEC3", "min": [-0.0877546215057373, -0.006335296630859375, -0.056037888526916504], "max": [0.2774378776550293, 0.0071889710426330565, 0.05568212509155274]}, {"bufferView": 1, "componentType": 5126, "count": 152, "type": "VEC3"}, {"bufferView": 2, "componentType": 5126, "count": 152, "type": "VEC2"}, {"bufferView": 3, "componentType": 5125, "count": 450, "type": "SCALAR"}], "bufferViews": [{"buffer": 0, "byteOffset": 0, "byteLength": 1824}, {"buffer": 0, "byteOffset": 1824, "byteLength": 1824}, {"buffer": 0, "byteOffset": 3648, "byteLength": 1216}, {"buffer": 0, "byteOffset": 4864, "byteLength": 1800}], "images": [{"uri": "sword_of_revolution_m00_wp.png"}], "samplers": [{"magFilter": 9729, "minFilter": 9987, "wrapS": 10497, "wrapT": 10497}], "textures": [{"source": 0, "sampler": 0}], "buffers": [{"uri": "sword_of_revolution_m00_wp.bin", "byteLength": 6664}]}