{"asset": {"version": "2.0", "generator": "l2vzla char_pipeline (weapons, static psk)"}, "scene": 0, "scenes": [{"nodes": [0]}], "nodes": [{"name": "sword_breaker_m00_wp", "mesh": 0}], "meshes": [{"name": "sword_breaker_m00_wp", "primitives": [{"attributes": {"POSITION": 0, "NORMAL": 1, "TEXCOORD_0": 2}, "mode": 4, "indices": 3, "material": 0}]}], "materials": [{"name": "sword_breaker_m00_wp:material_0", "pbrMetallicRoughness": {"metallicFactor": 0.0, "roughnessFactor": 0.9, "baseColorTexture": {"index": 0}}, "doubleSided": true, "alphaMode": "MASK", "alphaCutoff": 0.5}], "accessors": [{"bufferView": 0, "componentType": 5126, "count": 126, "type": "VEC3", "min": [-0.04792600154876709, -0.00412226527929306, -0.025117416381835938], "max": [0.13008735656738282, 0.004570771455764771, 0.025939435958862306]}, {"bufferView": 1, "componentType": 5126, "count": 126, "type": "VEC3"}, {"bufferView": 2, "componentType": 5126, "count": 126, "type": "VEC2"}, {"bufferView": 3, "componentType": 5125, "count": 330, "type": "SCALAR"}], "bufferViews": [{"buffer": 0, "byteOffset": 0, "byteLength": 1512}, {"buffer": 0, "byteOffset": 1512, "byteLength": 1512}, {"buffer": 0, "byteOffset": 3024, "byteLength": 1008}, {"buffer": 0, "byteOffset": 4032, "byteLength": 1320}], "images": [{"uri": "sword_breaker_m00_wp.png"}], "samplers": [{"magFilter": 9729, "minFilter": 9987, "wrapS": 10497, "wrapT": 10497}], "textures": [{"source": 0, "sampler": 0}], "buffers": [{"uri": "sword_breaker_m00_wp.bin", "byteLength": 5352}]}