{"asset": {"version": "2.0", "generator": "l2vzla char_pipeline (weapons, static psk)"}, "scene": 0, "scenes": [{"nodes": [0]}], "nodes": [{"name": "tarbar_m00_wp", "mesh": 0}], "meshes": [{"name": "tarbar_m00_wp", "primitives": [{"attributes": {"POSITION": 0, "NORMAL": 1, "TEXCOORD_0": 2}, "mode": 4, "indices": 3, "material": 0}]}], "materials": [{"name": "tarbar_m00_wp:material_0", "pbrMetallicRoughness": {"metallicFactor": 0.0, "roughnessFactor": 0.9, "baseColorTexture": {"index": 0}}, "doubleSided": true}], "accessors": [{"bufferView": 0, "componentType": 5126, "count": 137, "type": "VEC3", "min": [-0.10231246948242188, -0.009610555768013, -0.08965520858764649], "max": [0.22876514434814454, 0.009799360632896423, 0.08954170227050781]}, {"bufferView": 1, "componentType": 5126, "count": 137, "type": "VEC3"}, {"bufferView": 2, "componentType": 5126, "count": 137, "type": "VEC2"}, {"bufferView": 3, "componentType": 5125, "count": 426, "type": "SCALAR"}], "bufferViews": [{"buffer": 0, "byteOffset": 0, "byteLength": 1644}, {"buffer": 0, "byteOffset": 1644, "byteLength": 1644}, {"buffer": 0, "byteOffset": 3288, "byteLength": 1096}, {"buffer": 0, "byteOffset": 4384, "byteLength": 1704}], "images": [{"uri": "tarbar_m00_wp.png"}], "samplers": [{"magFilter": 9729, "minFilter": 9987, "wrapS": 10497, "wrapT": 10497}], "textures": [{"source": 0, "sampler": 0}], "buffers": [{"uri": "tarbar_m00_wp.bin", "byteLength": 6088}]}