{"asset": {"version": "2.0", "generator": "l2vzla char_pipeline (weapons, static psk)"}, "scene": 0, "scenes": [{"nodes": [0]}], "nodes": [{"name": "temple_spear_m00_wp", "mesh": 0}], "meshes": [{"name": "temple_spear_m00_wp", "primitives": [{"attributes": {"POSITION": 0, "NORMAL": 1, "TEXCOORD_0": 2}, "mode": 4, "indices": 3, "material": 0}]}], "materials": [{"name": "temple_spear_m00_wp:material_0", "pbrMetallicRoughness": {"metallicFactor": 0.0, "roughnessFactor": 0.9, "baseColorTexture": {"index": 0}}, "doubleSided": true}], "accessors": [{"bufferView": 0, "componentType": 5126, "count": 98, "type": "VEC3", "min": [-0.23412418365478516, -0.019612321853637697, -0.07554611206054687], "max": [0.6384522247314454, 0.01944089412689209, 0.13317779541015626]}, {"bufferView": 1, "componentType": 5126, "count": 98, "type": "VEC3"}, {"bufferView": 2, "componentType": 5126, "count": 98, "type": "VEC2"}, {"bufferView": 3, "componentType": 5125, "count": 357, "type": "SCALAR"}], "bufferViews": [{"buffer": 0, "byteOffset": 0, "byteLength": 1176}, {"buffer": 0, "byteOffset": 1176, "byteLength": 1176}, {"buffer": 0, "byteOffset": 2352, "byteLength": 784}, {"buffer": 0, "byteOffset": 3136, "byteLength": 1428}], "images": [{"uri": "temple_spear_m00_wp.png"}], "samplers": [{"magFilter": 9729, "minFilter": 9987, "wrapS": 10497, "wrapT": 10497}], "textures": [{"source": 0, "sampler": 0}], "buffers": [{"uri": "temple_spear_m00_wp.bin", "byteLength": 4564}]}