{"asset": {"version": "2.0", "generator": "l2vzla char_pipeline (weapons, static psk)"}, "scene": 0, "scenes": [{"nodes": [0]}], "nodes": [{"name": "temptation_of_abyss_m00_wp", "mesh": 0}], "meshes": [{"name": "temptation_of_abyss_m00_wp", "primitives": [{"attributes": {"POSITION": 0, "NORMAL": 1, "TEXCOORD_0": 2}, "mode": 4, "indices": 3, "material": 0}]}], "materials": [{"name": "temptation_of_abyss_m00_wp:material_0", "pbrMetallicRoughness": {"metallicFactor": 0.0, "roughnessFactor": 0.9, "baseColorTexture": {"index": 0}}, "doubleSided": true}], "accessors": [{"bufferView": 0, "componentType": 5126, "count": 96, "type": "VEC3", "min": [-0.10779267311096191, -0.03508415937423706, -0.03606682300567627], "max": [0.1940221977233887, 0.036826858520507814, 0.03584417819976807]}, {"bufferView": 1, "componentType": 5126, "count": 96, "type": "VEC3"}, {"bufferView": 2, "componentType": 5126, "count": 96, "type": "VEC2"}, {"bufferView": 3, "componentType": 5125, "count": 396, "type": "SCALAR"}], "bufferViews": [{"buffer": 0, "byteOffset": 0, "byteLength": 1152}, {"buffer": 0, "byteOffset": 1152, "byteLength": 1152}, {"buffer": 0, "byteOffset": 2304, "byteLength": 768}, {"buffer": 0, "byteOffset": 3072, "byteLength": 1584}], "images": [{"uri": "temptation_of_abyss_m00_wp.png"}], "samplers": [{"magFilter": 9729, "minFilter": 9987, "wrapS": 10497, "wrapT": 10497}], "textures": [{"source": 0, "sampler": 0}], "buffers": [{"uri": "temptation_of_abyss_m00_wp.bin", "byteLength": 4656}]}