{"asset": {"version": "2.0", "generator": "l2vzla char_pipeline (weapons, static psk)"}, "scene": 0, "scenes": [{"nodes": [0]}], "nodes": [{"name": "throw_knife_m00_wp", "mesh": 0}], "meshes": [{"name": "throw_knife_m00_wp", "primitives": [{"attributes": {"POSITION": 0, "NORMAL": 1, "TEXCOORD_0": 2}, "mode": 4, "indices": 3, "material": 0}]}], "materials": [{"name": "throw_knife_m00_wp:material_0", "pbrMetallicRoughness": {"metallicFactor": 0.0, "roughnessFactor": 0.9, "baseColorTexture": {"index": 0}}, "doubleSided": true}], "accessors": [{"bufferView": 0, "componentType": 5126, "count": 129, "type": "VEC3", "min": [-0.0509737777709961, -0.0035948115587234497, -0.032548725605010986], "max": [0.12732388496398925, 0.003735908269882202, 0.03247475385665893]}, {"bufferView": 1, "componentType": 5126, "count": 129, "type": "VEC3"}, {"bufferView": 2, "componentType": 5126, "count": 129, "type": "VEC2"}, {"bufferView": 3, "componentType": 5125, "count": 414, "type": "SCALAR"}], "bufferViews": [{"buffer": 0, "byteOffset": 0, "byteLength": 1548}, {"buffer": 0, "byteOffset": 1548, "byteLength": 1548}, {"buffer": 0, "byteOffset": 3096, "byteLength": 1032}, {"buffer": 0, "byteOffset": 4128, "byteLength": 1656}], "images": [{"uri": "throw_knife_m00_wp.png"}], "samplers": [{"magFilter": 9729, "minFilter": 9987, "wrapS": 10497, "wrapT": 10497}], "textures": [{"source": 0, "sampler": 0}], "buffers": [{"uri": "throw_knife_m00_wp.bin", "byteLength": 5784}]}