{"asset": {"version": "2.0", "generator": "l2vzla char_pipeline (weapons, static psk)"}, "scene": 0, "scenes": [{"nodes": [0]}], "nodes": [{"name": "tomahawk_m00_wp", "mesh": 0}], "meshes": [{"name": "tomahawk_m00_wp", "primitives": [{"attributes": {"POSITION": 0, "NORMAL": 1, "TEXCOORD_0": 2}, "mode": 4, "indices": 3, "material": 0}]}], "materials": [{"name": "tomahawk_m00_wp:material_0", "pbrMetallicRoughness": {"metallicFactor": 0.0, "roughnessFactor": 0.9, "baseColorTexture": {"index": 0}}, "doubleSided": true, "alphaMode": "MASK", "alphaCutoff": 0.5}], "accessors": [{"bufferView": 0, "componentType": 5126, "count": 145, "type": "VEC3", "min": [-0.06125868797302246, -0.005344545841217041, -0.013473666906356811], "max": [0.144341402053833, 0.005583505034446716, 0.047099337577819825]}, {"bufferView": 1, "componentType": 5126, "count": 145, "type": "VEC3"}, {"bufferView": 2, "componentType": 5126, "count": 145, "type": "VEC2"}, {"bufferView": 3, "componentType": 5125, "count": 438, "type": "SCALAR"}], "bufferViews": [{"buffer": 0, "byteOffset": 0, "byteLength": 1740}, {"buffer": 0, "byteOffset": 1740, "byteLength": 1740}, {"buffer": 0, "byteOffset": 3480, "byteLength": 1160}, {"buffer": 0, "byteOffset": 4640, "byteLength": 1752}], "images": [{"uri": "tomahawk_m00_wp.png"}], "samplers": [{"magFilter": 9729, "minFilter": 9987, "wrapS": 10497, "wrapT": 10497}], "textures": [{"source": 0, "sampler": 0}], "buffers": [{"uri": "tomahawk_m00_wp.bin", "byteLength": 6392}]}