{"asset": {"version": "2.0", "generator": "l2vzla char_pipeline (weapons, static psk)"}, "scene": 0, "scenes": [{"nodes": [0]}], "nodes": [{"name": "tomb_mace_m00_wp", "mesh": 0}], "meshes": [{"name": "tomb_mace_m00_wp", "primitives": [{"attributes": {"POSITION": 0, "NORMAL": 1, "TEXCOORD_0": 2}, "mode": 4, "indices": 3, "material": 0}]}], "materials": [{"name": "tomb_mace_m00_wp:material_0", "pbrMetallicRoughness": {"metallicFactor": 0.0, "roughnessFactor": 0.9, "baseColorTexture": {"index": 0}}, "doubleSided": true}], "accessors": [{"bufferView": 0, "componentType": 5126, "count": 259, "type": "VEC3", "min": [-0.17023122787475586, -0.15386665344238282, -0.1538667869567871], "max": [0.4371559524536133, 0.15386693954467773, 0.15386680603027345]}, {"bufferView": 1, "componentType": 5126, "count": 259, "type": "VEC3"}, {"bufferView": 2, "componentType": 5126, "count": 259, "type": "VEC2"}, {"bufferView": 3, "componentType": 5125, "count": 948, "type": "SCALAR"}], "bufferViews": [{"buffer": 0, "byteOffset": 0, "byteLength": 3108}, {"buffer": 0, "byteOffset": 3108, "byteLength": 3108}, {"buffer": 0, "byteOffset": 6216, "byteLength": 2072}, {"buffer": 0, "byteOffset": 8288, "byteLength": 3792}], "images": [{"uri": "tomb_mace_m00_wp.png"}], "samplers": [{"magFilter": 9729, "minFilter": 9987, "wrapS": 10497, "wrapT": 10497}], "textures": [{"source": 0, "sampler": 0}], "buffers": [{"uri": "tomb_mace_m00_wp.bin", "byteLength": 12080}]}