{"asset": {"version": "2.0", "generator": "l2vzla char_pipeline (weapons, static psk)"}, "scene": 0, "scenes": [{"nodes": [0]}], "nodes": [{"name": "tomb_cudgel_m00_wp", "mesh": 0}], "meshes": [{"name": "tomb_cudgel_m00_wp", "primitives": [{"attributes": {"POSITION": 0, "NORMAL": 1, "TEXCOORD_0": 2}, "mode": 4, "indices": 3, "material": 0}]}], "materials": [{"name": "tomb_cudgel_m00_wp:material_0", "pbrMetallicRoughness": {"metallicFactor": 0.0, "roughnessFactor": 0.9, "baseColorTexture": {"index": 0}}, "doubleSided": true}], "accessors": [{"bufferView": 0, "componentType": 5126, "count": 167, "type": "VEC3", "min": [-0.1720355987548828, -0.15101743698120118, -0.0325786018371582], "max": [0.36728580474853517, 0.15101739883422852, 0.032578620910644535]}, {"bufferView": 1, "componentType": 5126, "count": 167, "type": "VEC3"}, {"bufferView": 2, "componentType": 5126, "count": 167, "type": "VEC2"}, {"bufferView": 3, "componentType": 5125, "count": 624, "type": "SCALAR"}], "bufferViews": [{"buffer": 0, "byteOffset": 0, "byteLength": 2004}, {"buffer": 0, "byteOffset": 2004, "byteLength": 2004}, {"buffer": 0, "byteOffset": 4008, "byteLength": 1336}, {"buffer": 0, "byteOffset": 5344, "byteLength": 2496}], "images": [{"uri": "tomb_cudgel_m00_wp.png"}], "samplers": [{"magFilter": 9729, "minFilter": 9987, "wrapS": 10497, "wrapT": 10497}], "textures": [{"source": 0, "sampler": 0}], "buffers": [{"uri": "tomb_cudgel_m00_wp.bin", "byteLength": 7840}]}