{"asset": {"version": "2.0", "generator": "l2vzla char_pipeline (weapons, static psk)"}, "scene": 0, "scenes": [{"nodes": [0]}], "nodes": [{"name": "tome_of_blood_m00_wp", "mesh": 0}], "meshes": [{"name": "tome_of_blood_m00_wp", "primitives": [{"attributes": {"POSITION": 0, "NORMAL": 1, "TEXCOORD_0": 2}, "mode": 4, "indices": 3, "material": 0}]}], "materials": [{"name": "tome_of_blood_m00_wp:material_0", "pbrMetallicRoughness": {"metallicFactor": 0.0, "roughnessFactor": 0.9, "baseColorTexture": {"index": 0}}, "doubleSided": true}], "accessors": [{"bufferView": 0, "componentType": 5126, "count": 118, "type": "VEC3", "min": [-0.10225902557373047, -0.008144739270210265, -0.0224884033203125], "max": [0.12323461532592773, 0.008144738674163819, 0.02247046947479248]}, {"bufferView": 1, "componentType": 5126, "count": 118, "type": "VEC3"}, {"bufferView": 2, "componentType": 5126, "count": 118, "type": "VEC2"}, {"bufferView": 3, "componentType": 5125, "count": 672, "type": "SCALAR"}], "bufferViews": [{"buffer": 0, "byteOffset": 0, "byteLength": 1416}, {"buffer": 0, "byteOffset": 1416, "byteLength": 1416}, {"buffer": 0, "byteOffset": 2832, "byteLength": 944}, {"buffer": 0, "byteOffset": 3776, "byteLength": 2688}], "images": [{"uri": "tome_of_blood_m00_wp.png"}], "samplers": [{"magFilter": 9729, "minFilter": 9987, "wrapS": 10497, "wrapT": 10497}], "textures": [{"source": 0, "sampler": 0}], "buffers": [{"uri": "tome_of_blood_m00_wp.bin", "byteLength": 6464}]}