{"asset": {"version": "2.0", "generator": "l2vzla char_pipeline (weapons, static psk)"}, "scene": 0, "scenes": [{"nodes": [0]}], "nodes": [{"name": "tower_shield_m00_sh", "mesh": 0}], "meshes": [{"name": "tower_shield_m00_sh", "primitives": [{"attributes": {"POSITION": 0, "NORMAL": 1, "TEXCOORD_0": 2}, "mode": 4, "indices": 3, "material": 0}, {"attributes": {"POSITION": 4, "NORMAL": 5, "TEXCOORD_0": 6}, "mode": 4, "indices": 7, "material": 1}]}], "materials": [{"name": "tower_shield_m00_sh:material_0", "pbrMetallicRoughness": {"metallicFactor": 0.0, "roughnessFactor": 0.9, "baseColorTexture": {"index": 0}}, "doubleSided": true}, {"name": "tower_shield_m00_sh:material_1", "pbrMetallicRoughness": {"metallicFactor": 0.0, "roughnessFactor": 0.9, "baseColorTexture": {"index": 1}}, "doubleSided": true}], "accessors": [{"bufferView": 0, "componentType": 5126, "count": 24, "type": "VEC3", "min": [-0.07063282489776611, -0.05957621574401856, -0.008079599142074585], "max": [0.12115737915039063, 0.05852846145629883, 0.014725251197814941]}, {"bufferView": 1, "componentType": 5126, "count": 24, "type": "VEC3"}, {"bufferView": 2, "componentType": 5126, "count": 24, "type": "VEC2"}, {"bufferView": 3, "componentType": 5125, "count": 84, "type": "SCALAR"}, {"bufferView": 4, "componentType": 5126, "count": 10, "type": "VEC3", "min": [-0.0706327772140503, -0.05554527282714844, -1.7729460960254074e-05], "max": [0.12115737915039063, 0.05449752330780029, 0.014725251197814941]}, {"bufferView": 5, "componentType": 5126, "count": 10, "type": "VEC3"}, {"bufferView": 6, "componentType": 5126, "count": 10, "type": "VEC2"}, {"bufferView": 7, "componentType": 5125, "count": 24, "type": "SCALAR"}], "bufferViews": [{"buffer": 0, "byteOffset": 0, "byteLength": 288}, {"buffer": 0, "byteOffset": 288, "byteLength": 288}, {"buffer": 0, "byteOffset": 576, "byteLength": 192}, {"buffer": 0, "byteOffset": 768, "byteLength": 336}, {"buffer": 0, "byteOffset": 1104, "byteLength": 120}, {"buffer": 0, "byteOffset": 1224, "byteLength": 120}, {"buffer": 0, "byteOffset": 1344, "byteLength": 80}, {"buffer": 0, "byteOffset": 1424, "byteLength": 96}], "images": [{"uri": "tower_shield_m00_sh_s0.png"}, {"uri": "tower_shield_m00_sh_s1.png"}], "samplers": [{"magFilter": 9729, "minFilter": 9987, "wrapS": 10497, "wrapT": 10497}, {"magFilter": 9729, "minFilter": 9987, "wrapS": 10497, "wrapT": 10497}], "textures": [{"source": 0, "sampler": 0}, {"source": 1, "sampler": 1}], "buffers": [{"uri": "tower_shield_m00_sh.bin", "byteLength": 1520}]}