{"asset": {"version": "2.0", "generator": "l2vzla char_pipeline (weapons, static psk)"}, "scene": 0, "scenes": [{"nodes": [0]}], "nodes": [{"name": "training_gloves_m00_wp", "mesh": 0}], "meshes": [{"name": "training_gloves_m00_wp", "primitives": [{"attributes": {"POSITION": 0, "NORMAL": 1, "TEXCOORD_0": 2}, "mode": 4, "indices": 3, "material": 0}]}], "materials": [{"name": "training_gloves_m00_wp:material_0", "pbrMetallicRoughness": {"metallicFactor": 0.0, "roughnessFactor": 0.9, "baseColorTexture": {"index": 0}}, "doubleSided": true}], "accessors": [{"bufferView": 0, "componentType": 5126, "count": 87, "type": "VEC3", "min": [-0.024272499084472657, -0.006601449847221374, -0.008205059766769409], "max": [0.024648315906524658, 0.006567223072052002, 0.030088560581207277]}, {"bufferView": 1, "componentType": 5126, "count": 87, "type": "VEC3"}, {"bufferView": 2, "componentType": 5126, "count": 87, "type": "VEC2"}, {"bufferView": 3, "componentType": 5125, "count": 264, "type": "SCALAR"}], "bufferViews": [{"buffer": 0, "byteOffset": 0, "byteLength": 1044}, {"buffer": 0, "byteOffset": 1044, "byteLength": 1044}, {"buffer": 0, "byteOffset": 2088, "byteLength": 696}, {"buffer": 0, "byteOffset": 2784, "byteLength": 1056}], "images": [{"uri": "training_gloves_m00_wp.png"}], "samplers": [{"magFilter": 9729, "minFilter": 9987, "wrapS": 10497, "wrapT": 10497}], "textures": [{"source": 0, "sampler": 0}], "buffers": [{"uri": "training_gloves_m00_wp.bin", "byteLength": 3840}]}