{"asset": {"version": "2.0", "generator": "l2vzla char_pipeline (weapons, static psk)"}, "scene": 0, "scenes": [{"nodes": [0]}], "nodes": [{"name": "triple-edged_jamadhr_m00_wp", "mesh": 0}], "meshes": [{"name": "triple-edged_jamadhr_m00_wp", "primitives": [{"attributes": {"POSITION": 0, "NORMAL": 1, "TEXCOORD_0": 2}, "mode": 4, "indices": 3, "material": 0}]}], "materials": [{"name": "triple-edged_jamadhr_m00_wp:material_0", "pbrMetallicRoughness": {"metallicFactor": 0.0, "roughnessFactor": 0.9, "baseColorTexture": {"index": 0}}, "doubleSided": true, "alphaMode": "MASK", "alphaCutoff": 0.5}], "accessors": [{"bufferView": 0, "componentType": 5126, "count": 106, "type": "VEC3", "min": [-0.042652130126953125, -0.005709760189056397, -0.00763805091381073], "max": [0.04271455764770508, 0.005642276406288147, 0.09847939491271973]}, {"bufferView": 1, "componentType": 5126, "count": 106, "type": "VEC3"}, {"bufferView": 2, "componentType": 5126, "count": 106, "type": "VEC2"}, {"bufferView": 3, "componentType": 5125, "count": 570, "type": "SCALAR"}], "bufferViews": [{"buffer": 0, "byteOffset": 0, "byteLength": 1272}, {"buffer": 0, "byteOffset": 1272, "byteLength": 1272}, {"buffer": 0, "byteOffset": 2544, "byteLength": 848}, {"buffer": 0, "byteOffset": 3392, "byteLength": 2280}], "images": [{"uri": "triple-edged_jamadhr_m00_wp.png"}], "samplers": [{"magFilter": 9729, "minFilter": 9987, "wrapS": 10497, "wrapT": 10497}], "textures": [{"source": 0, "sampler": 0}], "buffers": [{"uri": "triple-edged_jamadhr_m00_wp.bin", "byteLength": 5672}]}