{"asset": {"version": "2.0", "generator": "l2vzla char_pipeline (weapons, static psk)"}, "scene": 0, "scenes": [{"nodes": [0]}], "nodes": [{"name": "unique_zariche_m00_wp", "mesh": 0}], "meshes": [{"name": "unique_zariche_m00_wp", "primitives": [{"attributes": {"POSITION": 0, "NORMAL": 1, "TEXCOORD_0": 2}, "mode": 4, "indices": 3, "material": 0}]}], "materials": [{"name": "unique_zariche_m00_wp:material_0", "pbrMetallicRoughness": {"metallicFactor": 0.0, "roughnessFactor": 0.9, "baseColorTexture": {"index": 0}}, "doubleSided": true}], "accessors": [{"bufferView": 0, "componentType": 5126, "count": 189, "type": "VEC3", "min": [-0.1390792942047119, -0.044951796531677246, -0.08884642601013183], "max": [0.4675230407714844, 0.04436455726623535, 0.08317422866821289]}, {"bufferView": 1, "componentType": 5126, "count": 189, "type": "VEC3"}, {"bufferView": 2, "componentType": 5126, "count": 189, "type": "VEC2"}, {"bufferView": 3, "componentType": 5125, "count": 861, "type": "SCALAR"}], "bufferViews": [{"buffer": 0, "byteOffset": 0, "byteLength": 2268}, {"buffer": 0, "byteOffset": 2268, "byteLength": 2268}, {"buffer": 0, "byteOffset": 4536, "byteLength": 1512}, {"buffer": 0, "byteOffset": 6048, "byteLength": 3444}], "images": [{"uri": "unique_zariche_m00_wp.png"}], "samplers": [{"magFilter": 9729, "minFilter": 9987, "wrapS": 10497, "wrapT": 10497}], "textures": [{"source": 0, "sampler": 0}], "buffers": [{"uri": "unique_zariche_m00_wp.bin", "byteLength": 9492}]}