{"asset": {"version": "2.0", "generator": "l2vzla char_pipeline (weapons, static psk)"}, "scene": 0, "scenes": [{"nodes": [0]}], "nodes": [{"name": "voodoo_doll_m00_wp", "mesh": 0}], "meshes": [{"name": "voodoo_doll_m00_wp", "primitives": [{"attributes": {"POSITION": 0, "NORMAL": 1, "TEXCOORD_0": 2}, "mode": 4, "indices": 3, "material": 0}]}], "materials": [{"name": "voodoo_doll_m00_wp:material_0", "pbrMetallicRoughness": {"metallicFactor": 0.0, "roughnessFactor": 0.9, "baseColorTexture": {"index": 0}}, "doubleSided": true}], "accessors": [{"bufferView": 0, "componentType": 5126, "count": 142, "type": "VEC3", "min": [-0.050964946746826174, -0.019559990167617797, -0.051031785011291506], "max": [0.09306509971618653, 0.022659358978271486, 0.04223412036895752]}, {"bufferView": 1, "componentType": 5126, "count": 142, "type": "VEC3"}, {"bufferView": 2, "componentType": 5126, "count": 142, "type": "VEC2"}, {"bufferView": 3, "componentType": 5125, "count": 396, "type": "SCALAR"}], "bufferViews": [{"buffer": 0, "byteOffset": 0, "byteLength": 1704}, {"buffer": 0, "byteOffset": 1704, "byteLength": 1704}, {"buffer": 0, "byteOffset": 3408, "byteLength": 1136}, {"buffer": 0, "byteOffset": 4544, "byteLength": 1584}], "images": [{"uri": "voodoo_doll_m00_wp.png"}], "samplers": [{"magFilter": 9729, "minFilter": 9987, "wrapS": 10497, "wrapT": 10497}], "textures": [{"source": 0, "sampler": 0}], "buffers": [{"uri": "voodoo_doll_m00_wp.bin", "byteLength": 6128}]}