{"asset": {"version": "2.0", "generator": "l2vzla char_pipeline (weapons, static psk)"}, "scene": 0, "scenes": [{"nodes": [0]}], "nodes": [{"name": "war_hammer_m00_wp", "mesh": 0}], "meshes": [{"name": "war_hammer_m00_wp", "primitives": [{"attributes": {"POSITION": 0, "NORMAL": 1, "TEXCOORD_0": 2}, "mode": 4, "indices": 3, "material": 0}]}], "materials": [{"name": "war_hammer_m00_wp:material_0", "pbrMetallicRoughness": {"metallicFactor": 0.0, "roughnessFactor": 0.9, "baseColorTexture": {"index": 0}}, "doubleSided": true}], "accessors": [{"bufferView": 0, "componentType": 5126, "count": 208, "type": "VEC3", "min": [-0.11462780952453613, -0.011924618482589721, -0.0587714672088623], "max": [0.3560184478759766, 0.011924642324447633, 0.0378023099899292]}, {"bufferView": 1, "componentType": 5126, "count": 208, "type": "VEC3"}, {"bufferView": 2, "componentType": 5126, "count": 208, "type": "VEC2"}, {"bufferView": 3, "componentType": 5125, "count": 696, "type": "SCALAR"}], "bufferViews": [{"buffer": 0, "byteOffset": 0, "byteLength": 2496}, {"buffer": 0, "byteOffset": 2496, "byteLength": 2496}, {"buffer": 0, "byteOffset": 4992, "byteLength": 1664}, {"buffer": 0, "byteOffset": 6656, "byteLength": 2784}], "images": [{"uri": "war_hammer_m00_wp.png"}], "samplers": [{"magFilter": 9729, "minFilter": 9987, "wrapS": 10497, "wrapT": 10497}], "textures": [{"source": 0, "sampler": 0}], "buffers": [{"uri": "war_hammer_m00_wp.bin", "byteLength": 9440}]}