{"asset": {"version": "2.0", "generator": "l2vzla char_pipeline (weapons, static psk)"}, "scene": 0, "scenes": [{"nodes": [0]}], "nodes": [{"name": "wgiant_spear_m00_wp", "mesh": 0}], "meshes": [{"name": "wgiant_spear_m00_wp", "primitives": [{"attributes": {"POSITION": 0, "NORMAL": 1, "TEXCOORD_0": 2}, "mode": 4, "indices": 3, "material": 0}]}], "materials": [{"name": "wgiant_spear_m00_wp:material_0", "pbrMetallicRoughness": {"metallicFactor": 0.0, "roughnessFactor": 0.9, "baseColorTexture": {"index": 0}}, "doubleSided": true}], "accessors": [{"bufferView": 0, "componentType": 5126, "count": 98, "type": "VEC3", "min": [-0.16226325988769533, -0.018187748193740846, -0.08091411590576172], "max": [0.3968440628051758, 0.018187748193740846, 0.08091418266296387]}, {"bufferView": 1, "componentType": 5126, "count": 98, "type": "VEC3"}, {"bufferView": 2, "componentType": 5126, "count": 98, "type": "VEC2"}, {"bufferView": 3, "componentType": 5125, "count": 528, "type": "SCALAR"}], "bufferViews": [{"buffer": 0, "byteOffset": 0, "byteLength": 1176}, {"buffer": 0, "byteOffset": 1176, "byteLength": 1176}, {"buffer": 0, "byteOffset": 2352, "byteLength": 784}, {"buffer": 0, "byteOffset": 3136, "byteLength": 2112}], "images": [{"uri": "wgiant_spear_m00_wp.png"}], "samplers": [{"magFilter": 9729, "minFilter": 9987, "wrapS": 10497, "wrapT": 10497}], "textures": [{"source": 0, "sampler": 0}], "buffers": [{"uri": "wgiant_spear_m00_wp.bin", "byteLength": 5248}]}