{"asset": {"version": "2.0", "generator": "l2vzla char_pipeline (weapons, static psk)"}, "scene": 0, "scenes": [{"nodes": [0]}], "nodes": [{"name": "work_hammer_m00_wp", "mesh": 0}], "meshes": [{"name": "work_hammer_m00_wp", "primitives": [{"attributes": {"POSITION": 0, "NORMAL": 1, "TEXCOORD_0": 2}, "mode": 4, "indices": 3, "material": 0}]}], "materials": [{"name": "work_hammer_m00_wp:material_0", "pbrMetallicRoughness": {"metallicFactor": 0.0, "roughnessFactor": 0.9, "baseColorTexture": {"index": 0}}, "doubleSided": true}], "accessors": [{"bufferView": 0, "componentType": 5126, "count": 160, "type": "VEC3", "min": [-0.06387847900390625, -0.02080700159072876, -0.04779810428619385], "max": [0.1782378387451172, 0.022074141502380372, 0.04736683368682861]}, {"bufferView": 1, "componentType": 5126, "count": 160, "type": "VEC3"}, {"bufferView": 2, "componentType": 5126, "count": 160, "type": "VEC2"}, {"bufferView": 3, "componentType": 5125, "count": 492, "type": "SCALAR"}], "bufferViews": [{"buffer": 0, "byteOffset": 0, "byteLength": 1920}, {"buffer": 0, "byteOffset": 1920, "byteLength": 1920}, {"buffer": 0, "byteOffset": 3840, "byteLength": 1280}, {"buffer": 0, "byteOffset": 5120, "byteLength": 1968}], "images": [{"uri": "work_hammer_m00_wp.png"}], "samplers": [{"magFilter": 9729, "minFilter": 9987, "wrapS": 10497, "wrapT": 10497}], "textures": [{"source": 0, "sampler": 0}], "buffers": [{"uri": "work_hammer_m00_wp.bin", "byteLength": 7088}]}