{"asset": {"version": "2.0", "generator": "l2vzla char_pipeline (weapons, static psk)"}, "scene": 0, "scenes": [{"nodes": [0]}], "nodes": [{"name": "zweihander_m00_wp", "mesh": 0}], "meshes": [{"name": "zweihander_m00_wp", "primitives": [{"attributes": {"POSITION": 0, "NORMAL": 1, "TEXCOORD_0": 2}, "mode": 4, "indices": 3, "material": 0}]}], "materials": [{"name": "zweihander_m00_wp:material_0", "pbrMetallicRoughness": {"metallicFactor": 0.0, "roughnessFactor": 0.9, "baseColorTexture": {"index": 0}}, "doubleSided": true}], "accessors": [{"bufferView": 0, "componentType": 5126, "count": 129, "type": "VEC3", "min": [-0.09809166908264161, -0.0071208542585372925, -0.03233813047409058], "max": [0.297829647064209, 0.007120279669761658, 0.03221357583999634]}, {"bufferView": 1, "componentType": 5126, "count": 129, "type": "VEC3"}, {"bufferView": 2, "componentType": 5126, "count": 129, "type": "VEC2"}, {"bufferView": 3, "componentType": 5125, "count": 396, "type": "SCALAR"}], "bufferViews": [{"buffer": 0, "byteOffset": 0, "byteLength": 1548}, {"buffer": 0, "byteOffset": 1548, "byteLength": 1548}, {"buffer": 0, "byteOffset": 3096, "byteLength": 1032}, {"buffer": 0, "byteOffset": 4128, "byteLength": 1584}], "images": [{"uri": "zweihander_m00_wp.png"}], "samplers": [{"magFilter": 9729, "minFilter": 9987, "wrapS": 10497, "wrapT": 10497}], "textures": [{"source": 0, "sampler": 0}], "buffers": [{"uri": "zweihander_m00_wp.bin", "byteLength": 5712}]}